<?xml version="1.0" encoding="UTF-8" standalone="no"?>
<!-- Created with Inkscape (http://www.inkscape.org/) -->

<svg
   xmlns:dc="http://purl.org/dc/elements/1.1/"
   xmlns:cc="http://creativecommons.org/ns#"
   xmlns:rdf="http://www.w3.org/1999/02/22-rdf-syntax-ns#"
   xmlns:svg="http://www.w3.org/2000/svg"
   xmlns="http://www.w3.org/2000/svg"
   xmlns:sodipodi="http://sodipodi.sourceforge.net/DTD/sodipodi-0.dtd"
   xmlns:inkscape="http://www.inkscape.org/namespaces/inkscape"
   width="913.66888mm"
   height="444.3634mm"
   viewBox="0 0 913.66888 444.3634"
   version="1.1"
   id="svg8"
   sodipodi:docname="fundo.svg"
   inkscape:version="0.92.4 (5da689c313, 2019-01-14)">
  <defs
     id="defs2" />
  <sodipodi:namedview
     id="base"
     pagecolor="#ffffff"
     bordercolor="#666666"
     borderopacity="1.0"
     inkscape:pageopacity="0.0"
     inkscape:pageshadow="2"
     inkscape:zoom="0.21430151"
     inkscape:cx="2222.8289"
     inkscape:cy="1106.5527"
     inkscape:document-units="mm"
     inkscape:current-layer="layer1"
     showgrid="false"
     inkscape:window-width="1920"
     inkscape:window-height="1018"
     inkscape:window-x="-8"
     inkscape:window-y="-8"
     inkscape:window-maximized="1"
     fit-margin-top="0"
     fit-margin-left="0"
     fit-margin-right="0"
     fit-margin-bottom="0" />
  <metadata
     id="metadata5">
    <rdf:RDF>
      <cc:Work
         rdf:about="">
        <dc:format>image/svg+xml</dc:format>
        <dc:type
           rdf:resource="http://purl.org/dc/dcmitype/StillImage" />
        <dc:title></dc:title>
      </cc:Work>
    </rdf:RDF>
  </metadata>
  <g
     inkscape:label="Camada 1"
     inkscape:groupmode="layer"
     id="layer1"
     transform="translate(764.25087,85.907632)">
    <path
       style="opacity:1;fill:#dddddd;fill-opacity:1;stroke:#57a4ff;stroke-width:0.26750836;stroke-opacity:0"
       d="m -716.13585,-84.506568 h 829.89058 c 19.68337,0 35.52954,15.84617 35.52954,35.52953 V 243.13566 c 0,19.68336 -5.09006,-194.845413 -135.053365,-127.72448 L -102.40553,175.64929 C -293.97996,274.58992 -596.98692,33.951482 -596.98692,33.951482 l -163.40862,-112.61106 c -16.20751,-11.16921 24.57633,-5.84699 44.25969,-5.84699 z"
       id="rect6087"
       inkscape:connector-curvature="0"
       sodipodi:nodetypes="sssssscss" />
    <ellipse
       style="opacity:1;fill:#dddddd;fill-opacity:1;stroke-width:0.44557711"
       cx="-632.96454"
       cy="306.93991"
       rx="114.06774"
       ry="19.159815"
       id="ellipse3982" />
    <rect
       style="fill:#2488ff;fill-opacity:1;stroke-width:0.59508324"
       x="-711.67963"
       y="56.442108"
       width="138.06493"
       height="64.030106"
       rx="7.7180505"
       id="rect4104" />
    <rect
       style="opacity:0.1;stroke-width:0.59508324"
       x="-700.67444"
       y="110.64498"
       width="116.05457"
       height="1.2005625"
       id="rect4106" />
    <rect
       style="opacity:1;fill:#ffffff;fill-opacity:1;stroke-width:0.59508324"
       x="-700.67444"
       y="66.446815"
       width="116.05457"
       height="44.020702"
       id="rect4108" />
    <circle
       style="opacity:1;fill:#57a4ff;fill-opacity:1;stroke-width:0.59508324"
       cx="-673.66174"
       cy="89.375839"
       r="16.00753"
       id="circle4110" />
    <circle
       style="opacity:1;fill:#57a4ff;fill-opacity:0.99176953;stroke-width:0.59508324"
       cx="-611.63257"
       cy="89.375839"
       r="16.00753"
       id="circle4112" />
    <rect
       style="fill:#2488ff;fill-opacity:1;stroke-width:0.59508324"
       x="-654.65356"
       y="120.47041"
       width="24.01005"
       height="14.010067"
       id="rect4114" />
    <rect
       style="fill:#2488ff;fill-opacity:1;stroke-width:0.59508324"
       x="-692.67065"
       y="130.47693"
       width="100.04705"
       height="80.037636"
       id="rect4116" />
    <rect
       style="fill:#57a4ff;fill-opacity:1;stroke-width:0.59508324"
       x="-694.67163"
       y="226.52209"
       width="104.04893"
       height="10.004706"
       id="rect4118" />
    <polygon
       style="fill:#57a4ff;fill-opacity:1"
       points="435.067,584.175 435.067,607.712 435.067,627.887 435.067,658.149 435.067,674.961 435.067,685.048 465.329,685.048 465.329,674.961 465.329,658.149 465.329,627.887 465.329,607.712 465.329,584.175 "
       id="polygon4120"
       transform="matrix(0.59508321,0,0,0.59508321,-936.56459,-101.10114)" />
    <polygon
       style="fill:#57a4ff;fill-opacity:1"
       points="556.115,584.175 525.853,584.175 525.853,607.712 525.853,627.887 525.853,658.149 525.853,674.961 525.853,685.048 556.115,685.048 556.115,674.961 556.115,658.149 556.115,627.887 556.115,607.712 "
       id="polygon4122"
       transform="matrix(0.59508321,0,0,0.59508321,-936.56459,-101.10114)" />
    <path
       style="fill:#57a4ff;fill-opacity:1;stroke-width:0.59508324"
       inkscape:connector-curvature="0"
       d="m -706.2979,148.48595 v 18.50708 a 27.070222,27.070222 0 0 0 -13.30266,6.41249 31.469863,31.469863 0 0 0 -7.91916,11.61223 c -2.31509,5.60863 -3.4405,11.8374 -3.89984,17.72619 a 101.35294,101.35294 0 0 0 1.10704,23.78035 h -20.00913 c -0.84981,-11.06104 -0.57878,-20.55116 0.52364,-28.69996 1.23564,-9.18689 3.5232,-16.66507 6.42168,-22.74684 5.79695,-12.15889 14.04222,-18.7551 21.2861,-22.338 8.60358,-4.25354 15.79233,-4.25354 15.79233,-4.25354 z"
       id="path4124" />
    <rect
       style="opacity:1;fill:#2488ff;fill-opacity:1;stroke-width:0.59508324"
       x="-677.66364"
       y="246.53148"
       width="18.008469"
       height="14.006586"
       id="rect4126" />
    <rect
       style="opacity:1;fill:#2488ff;fill-opacity:1;stroke-width:0.59508324"
       x="-677.66364"
       y="272.54373"
       width="18.008469"
       height="18.008469"
       id="rect4128" />
    <rect
       style="opacity:1;fill:#2488ff;fill-opacity:1;stroke-width:0.59508324"
       x="-677.66364"
       y="300.55688"
       width="18.008469"
       height="6.0028243"
       id="rect4130" />
    <rect
       style="opacity:1;fill:#2488ff;fill-opacity:1;stroke-width:0.59508324"
       x="-623.63818"
       y="246.53148"
       width="18.008469"
       height="14.006586"
       id="rect4132" />
    <rect
       style="opacity:1;fill:#2488ff;fill-opacity:1;stroke-width:0.59508324"
       x="-623.63818"
       y="272.54373"
       width="18.008469"
       height="18.008469"
       id="rect4134" />
    <rect
       style="opacity:1;fill:#2488ff;fill-opacity:1;stroke-width:0.59508324"
       x="-623.63818"
       y="300.55688"
       width="18.008469"
       height="6.0028243"
       id="rect4136" />
    <path
       style="opacity:1;fill:#2488ff;fill-opacity:1;stroke-width:0.59508324"
       inkscape:connector-curvature="0"
       d="m -706.2979,148.48595 v 18.50708 a 27.070222,27.070222 0 0 0 -13.30266,6.41249 l -2.48967,-20.666 c 8.60358,-4.25357 15.79233,-4.25357 15.79233,-4.25357 z"
       id="path4138" />
    <path
       style="opacity:1;fill:#2488ff;fill-opacity:1;stroke-width:0.59508324"
       inkscape:connector-curvature="0"
       d="m -727.51972,185.01775 c -2.31509,5.60863 -3.4405,11.8374 -3.89984,17.72619 l -18.37846,-4.91961 c 1.23565,-9.18689 3.5232,-16.66507 6.42168,-22.74684 z"
       id="path4140" />
    <path
       style="fill:#57a4ff;fill-opacity:1;stroke-width:0.59508324"
       inkscape:connector-curvature="0"
       d="m -578.99642,148.48595 v 18.50708 a 27.070222,27.070222 0 0 1 13.30265,6.41249 31.469785,31.469785 0 0 1 7.91915,11.61223 c 2.3151,5.60863 3.44051,11.8374 3.89985,17.72619 a 101.35331,101.35331 0 0 1 -1.10704,23.78035 h 20.00914 c 0.84977,-11.06104 0.57877,-20.55116 -0.52364,-28.69996 -1.23565,-9.18689 -3.52321,-16.66507 -6.42168,-22.74684 -5.79695,-12.15889 -14.04223,-18.7551 -21.2861,-22.338 -8.60358,-4.25354 -15.79233,-4.25354 -15.79233,-4.25354 z"
       id="path4142" />
    <path
       style="opacity:1;fill:#2488ff;fill-opacity:1;stroke-width:0.59508324"
       inkscape:connector-curvature="0"
       d="m -578.99642,148.48595 v 18.50708 a 27.070222,27.070222 0 0 1 13.30265,6.41249 l 2.48968,-20.666 c -8.60358,-4.25357 -15.79233,-4.25357 -15.79233,-4.25357 z"
       id="path4144" />
    <path
       style="opacity:1;fill:#2488ff;fill-opacity:1;stroke-width:0.59508324"
       inkscape:connector-curvature="0"
       d="m -557.77462,185.01775 c 2.3151,5.60863 3.44051,11.8374 3.89985,17.72619 l 18.37846,-4.91961 c -1.23565,-9.18689 -3.52321,-16.66507 -6.42168,-22.74684 z"
       id="path4146" />
    <rect
       style="opacity:1;fill:#2488ff;fill-opacity:1;stroke-width:0.59508324"
       x="-654.65356"
       y="120.47041"
       width="24.01005"
       height="1.6582351"
       id="rect4148" />
    <path
       style="opacity:0.1;stroke-width:0.59508324"
       inkscape:connector-curvature="0"
       d="m -590.84577,144.73766 v 33.50933 a 6.981903,6.981903 0 0 1 -1.86035,-4.74965 v -24.01462 a 6.9704953,6.9704953 0 0 1 1.86035,-4.74506 z"
       id="path4150" />
    <path
       style="opacity:0.1;stroke-width:0.59508324"
       inkscape:connector-curvature="0"
       d="m -692.3154,146.94711 v 25.08493 a 6.9749703,6.9749703 0 0 1 -1.86494,4.24436 v -33.57364 a 6.9749703,6.9749703 0 0 1 1.86494,4.24435 z"
       id="path4152" />
    <rect
       style="opacity:0.1;stroke-width:0.59508324"
       x="-687.66681"
       y="210.5161"
       width="90.041107"
       height="1.1851201"
       id="rect4154" />
    <rect
       style="opacity:0.1;stroke-width:0.59508324"
       x="-689.66956"
       y="236.52885"
       width="44.01918"
       height="0.91869539"
       id="rect4156" />
    <rect
       style="opacity:0.1;stroke-width:0.59508324"
       x="-641.6449"
       y="236.52885"
       width="44.01918"
       height="0.91869539"
       id="rect4158" />
    <rect
       style="fill:#2488ff;fill-opacity:1;stroke-width:0.59508324"
       x="-684.75916"
       y="-2.8135817"
       width="6.8901949"
       height="59.255692"
       id="rect4160" />
    <rect
       style="fill:#2488ff;fill-opacity:1;stroke-width:0.59508324"
       x="-605.75153"
       y="-2.8135817"
       width="6.8901949"
       height="59.255692"
       id="rect4162" />
    <circle
       style="opacity:0.1;stroke-width:0.59508324"
       cx="-681.5437"
       cy="-2.3542387"
       r="7.8088899"
       id="circle4164" />
    <circle
       style="fill:#57a4ff;fill-opacity:1;stroke-width:0.59508324"
       cx="-681.5437"
       cy="-2.8135817"
       r="7.8088899"
       id="circle4166" />
    <circle
       style="opacity:0.1;stroke-width:0.59508324"
       cx="-602.07678"
       cy="-2.3542387"
       r="7.8088899"
       id="circle4168" />
    <circle
       style="fill:#57a4ff;fill-opacity:1;stroke-width:0.59508324"
       cx="-602.07678"
       cy="-2.8135817"
       r="7.8088899"
       id="circle4170" />
    <path
       id="path4807"
       d="m -642.00051,156.01629 c -6.09894,0 -11.04668,4.94773 -11.04668,11.05091 0,6.09675 4.94774,11.05512 11.04668,11.05512 6.10105,0 11.01255,-4.95844 11.01255,-11.05512 -5e-5,-6.10318 -4.91157,-11.05091 -11.01255,-11.05091 z m 22.14868,17.39917 -1.99107,4.79636 3.55143,6.97503 0.46897,0.92091 -4.92433,4.92433 -8.07917,-3.81576 -4.79637,1.96972 -2.43447,7.45255 -0.3112,0.98912 h -6.96015 l -3.01212,-8.4118 -4.79637,-1.97823 -6.98554,3.54298 -0.92091,0.46045 -4.92215,-4.92005 3.81152,-8.08353 -1.97612,-4.79214 -7.43992,-2.43024 -0.98701,-0.31973 v -6.95586 l 8.4182,-3.01641 1.97614,-4.78791 -3.54081,-6.98996 -0.46686,-0.91669 4.91575,-4.91574 8.08993,3.80942 4.79004,-1.98036 2.43228,-7.44831 0.31338,-0.98695 h 6.95799 l 3.01429,8.42251 4.78362,1.98036 6.98779,-3.5451 0.92943,-0.46687 4.92004,4.91576 -3.81153,8.07711 1.96971,4.79861 7.46107,2.43229 0.9806,0.31338 v 6.95376 z"
       inkscape:connector-curvature="0"
       style="stroke-width:0.06821545" />
  </g>
</svg>
