<?xml version="1.0" encoding="UTF-8" standalone="no"?>
<!-- Created with Inkscape (http://www.inkscape.org/) -->

<svg
   xmlns:dc="http://purl.org/dc/elements/1.1/"
   xmlns:cc="http://creativecommons.org/ns#"
   xmlns:rdf="http://www.w3.org/1999/02/22-rdf-syntax-ns#"
   xmlns:svg="http://www.w3.org/2000/svg"
   xmlns="http://www.w3.org/2000/svg"
   xmlns:xlink="http://www.w3.org/1999/xlink"
   xmlns:sodipodi="http://sodipodi.sourceforge.net/DTD/sodipodi-0.dtd"
   xmlns:inkscape="http://www.inkscape.org/namespaces/inkscape"
   width="435.11478mm"
   height="170.77313mm"
   viewBox="0 0 435.11478 170.77313"
   version="1.1"
   id="svg8"
   inkscape:version="0.92.4 (5da689c313, 2019-01-14)"
   sodipodi:docname="fundoNovoProduto2.svg">
  <defs
     id="defs2">
    <linearGradient
       gradientUnits="userSpaceOnUse"
       y2="277.87"
       x2="848.51001"
       y1="309.79999"
       x1="848.51001"
       id="ba601b76-5571-4ce0-804a-19bf8cc9a6f6">
      <stop
         id="stop3713"
         stop-opacity="0.25"
         stop-color="gray"
         offset="0" />
      <stop
         id="stop3715"
         stop-opacity="0.12"
         stop-color="gray"
         offset="0.54" />
      <stop
         id="stop3717"
         stop-opacity="0.1"
         stop-color="gray"
         offset="1" />
    </linearGradient>
    <linearGradient
       xlink:href="#ba601b76-5571-4ce0-804a-19bf8cc9a6f6"
       y2="171.94"
       x2="839.07001"
       y1="807.44"
       x1="839.07001"
       id="c11e9009-8f69-4c13-bf2f-5e6c7aa88e08"
       gradientTransform="matrix(0.19903609,0,0,0.19903609,-200.79018,12.002937)" />
    <linearGradient
       gradientUnits="userSpaceOnUse"
       gradientTransform="matrix(0.18549579,0,0,0.18549579,-310.18605,37.62223)"
       y2="275.08965"
       x2="1196.66765"
       y1="772.1466"
       x1="1196.66765"
       id="e0a7c0b6-1905-489a-9c34-9e1ea499243e">
      <stop
         id="stop5189"
         stop-opacity="0.25"
         stop-color="gray"
         offset="0" />
      <stop
         id="stop5191"
         stop-opacity="0.12"
         stop-color="gray"
         offset="0.53514" />
      <stop
         id="stop5193"
         stop-opacity="0.1"
         stop-color="gray"
         offset="1" />
    </linearGradient>
  </defs>
  <sodipodi:namedview
     id="base"
     pagecolor="#ffffff"
     bordercolor="#666666"
     borderopacity="1.0"
     inkscape:pageopacity="0.0"
     inkscape:pageshadow="2"
     inkscape:zoom="0.70710678"
     inkscape:cx="867.26695"
     inkscape:cy="233.03707"
     inkscape:document-units="mm"
     inkscape:current-layer="layer1"
     showgrid="false"
     fit-margin-top="0"
     fit-margin-left="0"
     fit-margin-right="0"
     fit-margin-bottom="0"
     inkscape:window-width="1920"
     inkscape:window-height="1018"
     inkscape:window-x="-8"
     inkscape:window-y="-8"
     inkscape:window-maximized="1" />
  <metadata
     id="metadata5">
    <rdf:RDF>
      <cc:Work
         rdf:about="">
        <dc:format>image/svg+xml</dc:format>
        <dc:type
           rdf:resource="http://purl.org/dc/dcmitype/StillImage" />
        <dc:title />
      </cc:Work>
    </rdf:RDF>
  </metadata>
  <g
     inkscape:label="Camada 1"
     inkscape:groupmode="layer"
     id="layer1"
     transform="translate(189.28464,-17.281284)">
    <path
       style="opacity:1;fill:#f2f2f2;fill-opacity:1;stroke-width:0.46516013"
       d="M -191.09664,60.397477 H 248.01507 V 188.75277 H 105.71061 c -63.388485,-0.23777 -203.615456,0.29716 -223.48091,-9.56439 -22.37932,-11.10948 -19.31882,-25.13641 -24.0537,-31.99346 -12.34308,-17.87527 -21.62991,-18.66563 -49.27264,-26.95065 z"
       id="rect4999-2"
       inkscape:connector-curvature="0"
       sodipodi:nodetypes="ccccsccc" />
    <path
       style="opacity:1;fill:#2488ff;fill-opacity:1;stroke-width:0.4651601"
       d="M -191.09664,16.453226 H 248.01505 V 144.80851 H 105.71061 C 30.723494,144.52723 -58.042095,141.88162 -82.768448,91.205669 -99.230871,57.466408 -154.98724,70.666874 -191.09664,60.397477 Z"
       id="rect4999"
       inkscape:connector-curvature="0"
       sodipodi:nodetypes="ccccccc" />
    <path
       style="fill:#f2f2f2;stroke-width:0.15777165"
       inkscape:connector-curvature="0"
       d="m 165.00437,55.114697 a 16.563341,16.563341 0 0 1 -24.3522,-0.531616 l -36.95728,34.981879 51.96913,54.90331 49.53591,-46.888406 z"
       id="path4835" />
    <path
       style="fill:#f2f2f2;stroke-width:0.15777165"
       inkscape:connector-curvature="0"
       d="m 153.04267,56.730819 a 14.457405,14.457405 0 0 0 10.44348,-4.441778 L 153.18077,41.401789 142.17038,51.82371 a 14.464466,14.464466 0 0 0 10.87229,4.907109 z"
       id="path4837" />
    <rect
       style="fill:#2f2e41;stroke-width:0.15777165"
       x="141.33064"
       y="98.054405"
       width="41.80949"
       height="46.700409"
       id="rect4843" />
    <path
       style="opacity:0.1;stroke-width:0.15777165"
       inkscape:connector-curvature="0"
       d="m 196.5302,82.371896 a 26.062868,26.062868 0 0 1 -18.23998,15.209186 h 5.79653 v 46.700398 h -38.56254 l 21.64153,-37.48497 4.95876,-8.589075 0.3613,-0.626353 16.41298,-28.427294 z"
       id="path4845" />
    <polygon
       style="fill:#3f3d56"
       points="1080.972,784.104 805.472,784.104 529.972,784.104 667.722,545.514 805.472,306.924 943.222,545.514 "
       id="polygon4847"
       transform="matrix(0.15777165,0,0,0.15777165,67.182351,21.045412)" />
    <ellipse
       style="fill:#ffffff;stroke-width:0.0638466;fill-opacity:1"
       cx="-94.56768"
       cy="178.13895"
       rx="16.258726"
       ry="4.3521128"
       id="ellipse5004" />
    <path
       style="fill:url(#e0a7c0b6-1905-489a-9c34-9e1ea499243e);stroke-width:0.18549578"
       inkscape:connector-curvature="0"
       d="m -69.87932,98.845399 a 2.805147,2.805147 0 0 1 -0.194356,-0.537627 c -0.01984,-0.21391 0.0624,-0.496287 -0.126244,-0.597537 -0.106397,-0.0571 -0.252524,-0.0142 -0.346162,-0.0898 a 0.4183171,0.4183171 0 0 1 -0.102155,-0.23817 0.81584573,0.81584573 0 0 0 -0.757538,-0.590396 c 0.204275,-0.540496 0.932032,-0.673127 1.255484,-1.149438 0.161755,-0.236737 0.109244,-0.67455 -0.175909,-0.677398 a 0.5106699,0.5106699 0 0 0 -0.192911,0.05132 c -0.354673,0.145454 -0.707929,0.292353 -1.062587,0.437814 a 5.4726209,5.4726209 0 0 0 -0.601511,0.278086 c -0.584489,0.33228 -1.021442,0.872783 -1.414394,1.421825 a 6.1136516,6.1136516 0 0 0 -0.879575,1.600081 3.6186518,3.6186518 0 0 0 -0.18726,1.095244 q 0,0.056 0.0028,0.11132 c -0.173063,0.0292 -0.315138,0.105157 -0.497183,0.141747 q -0.205965,0.54525 -0.411951,1.0905 a 1.4127674,1.4127674 0 0 1 -0.269168,0.49743 2.527636,2.527636 0 0 1 -0.29248,0.2299 1.6861419,1.6861419 0 0 0 -0.579685,1.46968 1.5815742,1.5815742 0 0 0 -0.929018,1.9496 1.8546536,1.8546536 0 0 0 -1.358354,1.20215 0.90071557,0.90071557 0 0 1 -0.177403,0.37414 0.71980341,0.71980341 0 0 1 -0.474327,0.14653 c -0.465494,0.0289 -0.872565,0.39749 -1.294416,0.19756 a 2.6194008,2.6194008 0 0 0 -1.53749,-0.21601 1.1512184,1.1512184 0 0 1 -0.328066,0.0292 0.86316009,0.86316009 0 0 1 -0.269077,-0.0943 2.1465015,2.1465015 0 0 0 -0.610237,-0.24135 0.56989128,0.56989128 0 0 0 -0.578957,0.22481 c -0.14774,-0.16285 -0.23577,-0.3714 -0.37037,-0.54536 a 0.59276847,0.59276847 0 0 0 -0.561654,-0.26942 c 0.140267,-0.1256 -0.003,-0.37559 -0.18555,-0.42128 a 2.365431,2.365431 0 0 0 -0.560327,0.0204 c -0.487227,-0.003 -0.861074,-0.4473 -1.334344,-0.56371 -0.434997,-0.10698 -1.014804,0.0206 -1.237811,-0.36981 -0.0712,-0.12471 -0.0917,-0.28875 -0.19326,-0.38214 a 0.70047846,0.70047846 0 0 0 -0.141,-0.28882 c -0.178507,-0.20326 -0.480317,-0.23233 -0.749904,-0.22388 a 3.0489182,3.0489182 0 0 0 -0.871474,0.15 c -0.008,-0.0353 -0.0172,-0.0722 -0.0291,-0.11216 a 2.2133023,2.2133023 0 0 0 -0.966057,-1.18613 4.0480893,4.0480893 0 0 0 -1.144641,-0.46535 c -0.002,-0.0356 -0.006,-0.0709 -0.006,-0.10658 a 4.489369,4.489369 0 0 1 0.231227,-1.48173 c 0.0168,-0.0523 0.0361,-0.10405 0.0543,-0.15605 a 5.3070882,5.3070882 0 0 0 2.385828,-8.902237 1.5121431,1.5121431 0 0 0 -0.0417,-0.318889 1.552763,1.552763 0 0 0 -0.32088,-0.621135 c -0.242287,-0.543573 -0.622167,-0.783345 -1.105814,-1.009753 -0.139017,-0.06562 -0.286567,-0.129772 -0.442617,-0.201079 -0.771754,-0.347963 -1.517971,-0.858516 -2.394695,-0.857085 -0.800117,0 -1.566191,0.442084 -2.356398,0.42497 l -0.0596,-0.0028 c -0.0198,-7.01e-4 -0.0397,-7.01e-4 -0.0596,-0.0028 -0.0241,-0.0014 -0.0468,-0.0042 -0.0709,-0.0072 -0.221317,-0.02706 -0.486597,-0.07843 -0.632724,0.09127 a 0.9890431,0.9890431 0 0 0 -0.11206,0.218185 0.45084194,0.45084194 0 0 1 -0.0397,0.07274 v 0 a 0.73995382,0.73995382 0 0 1 -0.10072,0.136908 v 0 c -0.255367,0.280932 -0.683807,0.405004 -1.037054,0.587553 -0.797284,0.409294 -1.320781,1.242129 -1.529311,2.116335 -0.20854,0.875628 -0.13476,1.795468 0.0213,2.681066 0.0787,0.442919 0.251777,0.945674 0.566717,1.22362 l 7e-5,0.0014 -0.007,-0.0056 c 0,0 -2.666457,1.897573 -2.179867,2.167103 0.26468,0.146287 1.36937,-0.553227 2.321647,-1.221144 0.01,0.0405 0.0186,0.0812 0.0291,0.12163 a 8.9375316,8.9375316 0 0 0 0.435517,1.246401 c 0.202877,0.477737 0.486607,0.992564 0.983134,1.135174 a 1.1193873,1.1193873 0 0 0 0.337517,0.0386 c 0.0294,-1.9e-4 0.0587,-0.003 0.088,-0.005 a 7.8137373,7.8137373 0 0 1 -0.229497,2.167747 1.3294743,1.3294743 0 0 0 -0.816137,0.2256 0.65388191,0.65388191 0 0 1 -0.330047,0.1762 0.57616475,0.57616475 0 0 1 -0.34115,-0.16819 1.9357672,1.9357672 0 0 0 -2.422314,0.12833 c -0.96588,0.91042 -0.85657,2.6893 -1.98852,3.37983 -0.31202,0.19033 -0.7109,0.29101 -0.89306,0.60893 a 2.2513623,2.2513623 0 0 1 -0.154,0.29281 0.78913616,0.78913616 0 0 1 -0.27215,0.19494 5.2820834,5.2820834 0 0 0 -0.93304,0.53917 1.3427892,1.3427892 0 0 0 -0.537,0.90491 1.7126344,1.7126344 0 0 0 0.16489,0.76103 7.0972319,7.0972319 0 0 0 0.62093,1.1899 1.2864596,1.2864596 0 0 0 -0.25091,0.5883 c -0.0806,0.56143 0.18799,1.11317 0.21769,1.67962 0.026,0.49491 -0.13078,0.97831 -0.22044,1.46565 -0.34993,1.90195 0.32238,3.8285 1.00659,5.63626 a 2.9170807,2.9170807 0 0 1 0.23899,0.92696 c 0.0183,0.59005 -0.3198,1.13066 -0.41236,1.71361 -0.19456,1.22495 0.7043,2.37722 0.72291,3.61755 0.009,0.57105 -0.17031,1.15227 -0.0282,1.70526 0.0949,0.36903 0.324,0.68616 0.48661,1.03049 0.28814,0.61011 0.36543,1.30233 0.64046,1.91851 a 4.6006424,4.6006424 0 0 0 1.42063,1.69231 c 0.34623,1.09461 -0.14498,2.41635 -0.005,3.58119 0.18798,-0.0731 0.3774,-0.14231 0.56756,-0.20943 a 8.2103349,8.2103349 0 0 0 1.25754,4.95529 c 0.309457,0.482 0.672097,0.93449 0.904744,1.45834 a 6.6549506,6.6549506 0 0 1 0.353067,1.15569 q 0.501347,2.08597 1.002657,4.17194 c 0.270677,1.12628 0.543314,2.27435 0.462027,3.43014 -0.0567,0.80533 -0.25857,1.71085 0.235157,2.34761 a 1.7299856,1.7299856 0 0 1 0.2983,0.41143 1.0464504,1.0464504 0 0 1 0.005,0.54214 36.547169,36.547169 0 0 0 -0.495107,4.06733 c -0.1117,0.15071 -0.22204,0.30082 -0.32467,0.45121 -0.819994,1.19934 -1.214364,2.63401 -1.533561,4.05298 -0.621377,2.7752 -0.900844,5.62312 -1.028524,8.46534 a 5.6263505,5.6263505 0 0 0 -1.04982,1.27922 c -0.42985,0.79576 -0.48516,1.73414 -0.53057,2.63971 a 0.91841562,0.91841562 0 0 0 0.0482,0.43497 0.883305,0.883305 0 0 0 0.45255,0.37791 q 0.12275,0.0602 0.24722,0.11686 c -0.0541,0.19911 -0.10142,0.40322 -0.14381,0.60841 -0.31448,-0.35492 -0.87637,-0.91779 -0.97165,-0.50563 a 20.32286,20.32286 0 0 0 -0.5107,4.18988 0.4624818,0.4624818 0 0 0 0.0496,0.26383 0.4572471,0.4572471 0 0 0 0.32913,0.15973 23.166726,23.166726 0 0 0 4.152418,0.36081 c 1.127824,-0.004 2.252828,-0.0913 3.376412,-0.17685 0.383027,-0.03 0.767474,-0.0599 1.150504,-0.0884 a 25.392147,25.392147 0 0 0 3.523949,-0.43781 c 0.509317,-0.11124 1.034214,-0.2681 1.415821,-0.62605 0.380187,-0.35652 0.571717,-0.9669 0.30785,-1.41898 a 0.00526065,0.00526065 0 0 0 -10e-4,-0.004 c -0.32204,-0.54618 -1.071074,-0.58755 -1.698141,-0.67454 a 5.5578246,5.5578246 0 0 1 -1.778991,-0.56616 c -0.12536,-0.065 -0.247527,-0.13566 -0.368667,-0.20829 0.0321,-0.009 0.0645,-0.0164 0.0963,-0.027 0.537677,-0.18111 0.966104,-0.59468 1.473981,-0.8471 0.588747,-0.29092 1.256924,-0.3551 1.908098,-0.43782 0.649737,-0.0841 1.320764,-0.19964 1.861271,-0.57044 0.506467,-0.34797 0.865384,-0.97973 0.747634,-1.57299 a 0.98788748,0.98788748 0 0 0 -0.0311,-0.1241 c -0.201437,-0.6446 -0.898004,-0.98687 -1.549161,-1.15657 -0.649754,-0.16971 -1.356241,-0.25528 -1.882558,-0.67455 -0.0255,-0.02 -0.0511,-0.0414 -0.0766,-0.0628 -0.045,-0.0368 -0.0914,-0.0742 -0.13837,-0.1104 a 1.1207655,1.1207655 0 0 0 0.15368,-0.65057 c -0.0277,-0.35841 -0.23597,-0.67253 -0.377317,-1.00275 -0.27726,-0.64765 -0.29952,-1.37113 -0.37433,-2.07217 -0.187827,-1.76032 -0.727684,-3.46004 -1.135691,-5.18229 q -0.0694,-0.29294 -0.13272,-0.58875 a 12.511101,12.511101 0 0 1 1.450071,-2.32243 7.5668575,7.5668575 0 0 0 1.388851,-2.74667 c 0.0837,-0.30662 0.14613,-0.61893 0.20996,-0.93124 q 1.087394,-5.39923 2.049968,-10.8227 a 9.0817123,9.0817123 0 0 0 0.18238,-1.56461 4.7490352,4.7490352 0 0 0 0.268997,-1.48116 c 0.18667,-0.73199 0.3768,-1.49979 0.2239,-1.97982 -0.10815,-0.33897 -0.16262,-1.49844 -0.2211,-2.60926 a 10.094353,10.094353 0 0 0 -0.108787,-1.78072 c -0.0166,-0.1007 -0.0372,-0.20148 -0.0597,-0.30213 a 1.284792,1.284792 0 0 0 -0.0357,-0.1479 5.1536831,5.1536831 0 0 0 -0.35118,-0.96934 4.6867606,4.6867606 0 0 0 -0.263347,-0.54109 2.4202748,2.4202748 0 0 0 -0.20123,-0.29447 11.968003,11.968003 0 0 1 1.240024,0.11411 c 0.10119,0.0152 0.22443,0.0234 0.284997,-0.0596 a 0.268993,0.268993 0 0 0 0.0379,-0.14972 2.5428708,2.5428708 0 0 0 -0.323027,-1.34816 c -0.15931,-0.28263 -0.380617,-0.55908 -0.374487,-0.88387 a 1.3482074,1.3482074 0 0 1 0.109407,-0.43886 q 0.27686,-0.7422 0.553677,-1.48437 c 0.4674,-1.25308 0.24497,-2.70859 0.487737,-4.02443 a 23.747371,23.747371 0 0 0 0.36387,-3.11325 c 0.0449,-0.89293 0.017,-1.85991 -0.518947,-2.57339 a 2.9575967,2.9575967 0 0 1 -0.404977,-0.56612 1.7270603,1.7270603 0 0 1 -0.0964,-0.67701 q -0.014,-2.09586 0.0846,-4.1904 a 41.113471,41.113471 0 0 0 6.991234,-0.79033 4.4941492,4.4941492 0 0 0 0.795845,-0.21443 4.1874134,4.1874134 0 0 0 0.804336,-0.50431 c 0.783758,-0.56643 1.578664,-1.14343 2.174601,-1.90677 a 6.42895,6.42895 0 0 0 1.289082,-3.17807 c 0.566876,-0.52503 0.867888,-1.27131 1.151674,-1.99174 a 3.0536742,3.0536742 0 0 0 0.262536,-0.96733 c 0.01521,-0.34255 -0.210572,-0.70164 -0.148119,-1.03873 a 2.7492942,2.7492942 0 0 1 0.83592,-1.51161 0.55090207,0.55090207 0 0 0 0.19882,-0.2656 0.4300256,0.4300256 0 0 0 -0.04732,-0.25886 c -0.0049,-0.0104 -0.01129,-0.0197 -0.0162,-0.03 0.05405,-0.0343 0.107652,-0.0695 0.160416,-0.10654 0.185837,-0.13121 0.363162,-0.27667 0.536253,-0.41928 a 3.3441513,3.3441513 0 0 0 0.696565,-0.705917 1.1472098,1.1472098 0 0 0 0.182997,-0.946954 z m -25.587687,76.454181 c -0.0471,0.003 -0.0943,0.005 -0.14104,0.012 a 1.8344717,1.8344717 0 0 0 -0.506457,0.14546 c -0.013,0.006 -0.0253,0.0135 -0.0382,0.0197 0.22035,-0.47585 0.426457,-0.95843 0.614177,-1.44874 0.0224,-0.0578 0.0434,-0.11647 0.0653,-0.17462 -0.008,0.10898 -0.016,0.2183 -0.0242,0.32721 a 4.003741,4.003741 0 0 0 0.0304,1.11883 z"
       id="path5254" />
    <path
       style="fill:#a0616a;stroke-width:0.18549578"
       inkscape:connector-curvature="0"
       d="m -92.621772,102.60895 c 0.0198,0.77459 0.282317,1.52506 0.323457,2.29822 -2.281208,0.1135 -4.531193,-0.99306 -6.789701,-0.65399 0.631297,-0.40857 0.968954,-1.14486 1.167554,-1.8698 a 7.7540335,7.7540335 0 0 0 0.222737,-2.872777 1.2650015,1.2650015 0 0 0 -0.0284,-0.158877 c -0.0837,-0.37879 -0.300767,-0.915027 -0.242597,-1.212944 0.0766,-0.394387 0.448287,-0.316357 0.783094,-0.293657 a 29.334912,29.334912 0 0 1 3.044452,0.392957 c 0.26243,0.0454 2.818845,0.683797 2.857145,0.617117 a 12.030609,12.030609 0 0 0 -1.106554,2.279761 4.4445903,4.4445903 0 0 0 -0.231217,1.47399 z"
       id="path5256" />
    <path
       style="fill:#a0616a;stroke-width:0.18549578"
       inkscape:connector-curvature="0"
       d="m -70.062311,100.21568 a 3.3351344,3.3351344 0 0 1 -0.696565,0.70223 c -0.173091,0.14188 -0.350424,0.28657 -0.536254,0.41709 a 2.2996116,2.2996116 0 0 1 -1.14059,0.4639 c -0.543356,0.0369 -1.696728,-0.28231 -2.034364,-0.74763 a 1.3486192,1.3486192 0 0 1 -0.194354,-0.77884 3.5828511,3.5828511 0 0 1 0.187253,-1.089534 6.0723899,6.0723899 0 0 1 0.879582,-1.591711 c 0.392952,-0.546177 0.829905,-1.08385 1.414394,-1.414406 a 5.4865942,5.4865942 0 0 1 0.601504,-0.276627 c 0.354672,-0.144704 0.707929,-0.290831 1.062594,-0.435529 a 0.51277712,0.51277712 0 0 1 0.192911,-0.05104 c 0.285153,0.0028 0.337657,0.438354 0.175909,0.673856 -0.323452,0.473829 -1.051201,0.60576 -1.255484,1.143439 a 0.81508519,0.81508519 0 0 1 0.757538,0.587307 0.41508206,0.41508206 0 0 0 0.102155,0.236927 c 0.09364,0.0752 0.239765,0.0326 0.346162,0.0894 0.188655,0.10073 0.106397,0.381627 0.126244,0.594417 a 2.7810956,2.7810956 0 0 0 0.194356,0.534827 1.1364046,1.1364046 0 0 1 -0.182991,0.941984 z"
       id="path5258" />
    <path
       style="fill:#65617d;stroke-width:0.18549578"
       inkscape:connector-curvature="0"
       d="m -101.50748,177.87737 c 0.17562,-0.17547 0.46249,-0.14565 0.70769,-0.10687 a 26.255726,26.255726 0 0 0 3.979029,0.32186 c 0.16684,-0.81468 -0.317477,-1.60651 -0.473497,-2.42333 a 2.1863331,2.1863331 0 0 0 -0.157597,-0.61273 c -0.18766,-0.36006 -0.610967,-0.52474 -1.008254,-0.60853 -0.717057,-0.15125 -1.837961,-0.41813 -2.238441,0.30685 -0.48053,0.86988 -0.63427,2.15467 -0.80893,3.12275 z"
       id="path5260" />
    <path
       style="fill:#3f3d56;stroke-width:0.18549578"
       inkscape:connector-curvature="0"
       d="m -86.928725,174.80009 c -0.540497,0.36886 -1.211524,0.48377 -1.861261,0.56747 -0.651184,0.0823 -1.319361,0.14612 -1.908098,0.43552 -0.507877,0.25111 -0.936314,0.66251 -1.473991,0.84268 a 3.0709365,3.0709365 0 0 1 -1.530741,0.0241 c -0.604337,-0.11349 -1.248404,-0.33337 -1.574681,-0.85544 -0.29083,-0.4639 -0.25962,-1.05266 -0.2199,-1.59883 q 0.0702,-0.92566 0.13761,-1.85418 a 0.88295995,0.88295995 0 0 1 0.11492,-0.44829 c 0.436937,-0.63698 1.499511,0.26671 2.068388,0.26529 0.900844,-0.002 1.868378,-0.48944 2.518105,-1.0867 a 0.76425186,0.76425186 0 0 1 0.195777,-0.14753 c 0.25678,-0.11491 0.51356,0.0979 0.741957,0.28373 0.0255,0.0213 0.051,0.0426 0.0766,0.0624 0.526317,0.41708 1.232804,0.5022 1.882558,0.67103 0.651157,0.16881 1.347724,0.5093 1.549161,1.15053 a 0.97842164,0.97842164 0 0 1 0.0312,0.12342 c 0.11778,0.59016 -0.241147,1.21862 -0.747614,1.56477 z"
       id="path5262" />
    <path
       style="fill:#2f2e41;stroke-width:0.18549578"
       inkscape:connector-curvature="0"
       d="m -86.928725,174.80009 c -0.540497,0.36886 -1.211524,0.48377 -1.861261,0.56747 -0.651184,0.0823 -1.319361,0.14612 -1.908098,0.43552 -0.507877,0.25111 -0.936314,0.66251 -1.473991,0.84268 a 3.0709365,3.0709365 0 0 1 -1.530741,0.0241 c -0.604337,-0.11349 -1.248404,-0.33337 -1.574681,-0.85544 -0.29083,-0.4639 -0.25962,-1.05266 -0.2199,-1.59883 q 0.0702,-0.92566 0.13761,-1.85418 a 0.88295995,0.88295995 0 0 1 0.11492,-0.44829 c 0.436937,-0.63698 1.499511,0.26671 2.068388,0.26529 0.900844,-0.002 1.868378,-0.48944 2.518105,-1.0867 a 0.76425186,0.76425186 0 0 1 0.195777,-0.14753 c 0.25678,-0.11491 0.51356,0.0979 0.741957,0.28373 0.0255,0.0213 0.051,0.0426 0.0766,0.0624 0.526317,0.41708 1.232804,0.5022 1.882558,0.67103 0.651157,0.16881 1.347724,0.5093 1.549161,1.15053 a 0.97842164,0.97842164 0 0 1 0.0312,0.12342 c 0.11778,0.59016 -0.241147,1.21862 -0.747614,1.56477 z"
       id="path5264" />
    <path
       style="fill:#e8eaf2;stroke-width:0.18549578"
       inkscape:connector-curvature="0"
       d="m -86.928725,175.00772 c -0.540497,0.36885 -1.211524,0.48377 -1.861261,0.56746 -0.651184,0.0822 -1.319361,0.14612 -1.908098,0.43552 -0.507877,0.25112 -0.936314,0.66252 -1.473991,0.84269 a 3.0709365,3.0709365 0 0 1 -1.530741,0.0242 2.5273281,2.5273281 0 0 1 -1.574681,-1.06309 c -0.29083,-0.4639 -0.25962,-1.05265 -0.2199,-1.59882 q 0.0702,-0.92567 0.13761,-1.85419 a 0.88295995,0.88295995 0 0 1 0.11492,-0.44829 c 0.436937,-0.63697 1.499511,0.26671 2.068388,0.26529 0.900844,-0.002 1.868378,-0.48943 2.518105,-1.08669 a 0.76425186,0.76425186 0 0 1 0.195777,-0.14754 c 0.25678,-0.1149 0.51356,0.0979 0.741957,0.28373 a 5.3294682,5.3294682 0 0 1 -0.632717,1.308 2.7221358,2.7221358 0 0 1 -1.984698,1.24132 c -0.402907,0.0298 -0.815724,-0.0497 -1.205854,0.0539 -0.388707,0.10357 -0.751894,0.50221 -0.614297,0.88099 0.13477,0.36885 0.611457,0.4497 1.004427,0.47099 0.550417,0.0298 1.115061,0.0567 1.637128,-0.1149 0.3192,-0.10641 0.611437,-0.28232 0.922127,-0.41142 1.320761,-0.5476 2.989102,-0.24118 4.080056,-1.16613 a 2.4142276,2.4142276 0 0 1 0.333357,-0.25536 c 0.28565,0.59794 -0.241147,1.42625 -0.747614,1.77241 z"
       id="path5266" />
    <path
       style="opacity:0.05;stroke-width:0.18549578"
       inkscape:connector-curvature="0"
       d="m -86.928725,175.00772 c -0.540497,0.36885 -1.211524,0.48377 -1.861261,0.56746 -0.651184,0.0822 -1.319361,0.14612 -1.908098,0.43552 -0.507877,0.25112 -0.936314,0.66252 -1.473991,0.84269 a 3.0709365,3.0709365 0 0 1 -1.530741,0.0242 2.5273281,2.5273281 0 0 1 -1.574681,-1.06309 c -0.29083,-0.4639 -0.25962,-1.05265 -0.2199,-1.59882 q 0.0702,-0.92567 0.13761,-1.85419 a 0.88295995,0.88295995 0 0 1 0.11492,-0.44829 c 0.436937,-0.63697 1.499511,0.26671 2.068388,0.26529 0.900844,-0.002 1.868378,-0.48943 2.518105,-1.08669 a 0.76425186,0.76425186 0 0 1 0.195777,-0.14754 c 0.25678,-0.1149 0.51356,0.0979 0.741957,0.28373 a 5.3294682,5.3294682 0 0 1 -0.632717,1.308 2.7221358,2.7221358 0 0 1 -1.984698,1.24132 c -0.402907,0.0298 -0.815724,-0.0497 -1.205854,0.0539 -0.388707,0.10357 -0.751894,0.50221 -0.614297,0.88099 0.13477,0.36885 0.611457,0.4497 1.004427,0.47099 0.550417,0.0298 1.115061,0.0567 1.637128,-0.1149 0.3192,-0.10641 0.611437,-0.28232 0.922127,-0.41142 1.320761,-0.5476 2.989102,-0.24118 4.080056,-1.16613 a 2.4142276,2.4142276 0 0 1 0.333357,-0.25536 c 0.28565,0.59794 -0.241147,1.42625 -0.747614,1.77241 z"
       id="path5268" />
    <path
       style="fill:#2f2e41;stroke-width:0.18549578"
       inkscape:connector-curvature="0"
       d="m -101.26048,134.5911 a 8.1215619,8.1215619 0 0 0 1.11313,5.99254 c 0.309467,0.4795 0.672107,0.92963 0.904744,1.45072 a 6.5940041,6.5940041 0 0 1 0.353087,1.14967 l 1.002657,4.15015 c 0.270677,1.1204 0.543334,2.26247 0.462027,3.41221 -0.0566,0.80114 -0.25858,1.70193 0.235157,2.33536 a 1.7211301,1.7211301 0 0 1 0.2983,0.40928 1.03589,1.03589 0 0 1 0.005,0.53931 c -0.507277,3.01315 -0.883467,6.16322 0.0328,9.07816 0.830484,2.64197 0.877884,5.5694 1.584041,8.2473 0.0874,0.3316 0.187437,0.68113 0.438627,0.91461 a 1.4377167,1.4377167 0 0 0 0.657654,0.31252 c 1.040597,0.24759 2.139488,-0.0425 3.110015,-0.4922 0.682094,-0.31607 1.416261,-0.87032 1.357991,-1.61981 -0.0277,-0.35653 -0.23598,-0.66901 -0.377327,-0.9975 -0.27724,-0.64427 -0.29951,-1.36397 -0.37432,-2.06136 -0.187837,-1.75113 -0.727684,-3.44196 -1.135701,-5.15522 -0.40803,-1.71327 -0.685207,-3.50352 -0.34013,-5.23055 a 45.754849,45.754849 0 0 1 3.365062,-10.35211 1.2483625,1.2483625 0 0 1 0.308217,-0.46356 3.1870531,3.1870531 0 0 0 0.436257,-0.2978 1.3163967,1.3163967 0 0 0 0.19958,-0.54269 c 0.15177,-0.54662 0.602587,-0.94991 0.904794,-1.43 0.763097,-1.21225 0.521267,-2.76612 0.492997,-4.19826 -0.0275,-1.3927 0.17306,-2.79815 -0.0552,-4.17227 -0.22832,-1.37413 -1.015534,-2.77876 -2.340275,-3.20932 -0.656227,-0.21328 -1.365671,-0.16491 -2.052318,-0.0969 -3.637859,0.36007 -7.172731,1.02089 -10.586766,2.32776 z"
       id="path5270" />
    <path
       style="opacity:0.1;stroke-width:0.18549578"
       inkscape:connector-curvature="0"
       d="m -101.26048,134.5911 a 8.1215619,8.1215619 0 0 0 1.11313,5.99254 c 0.309467,0.4795 0.672107,0.92963 0.904744,1.45072 a 6.5940041,6.5940041 0 0 1 0.353087,1.14967 l 1.002657,4.15015 c 0.270677,1.1204 0.543334,2.26247 0.462027,3.41221 -0.0566,0.80114 -0.25858,1.70193 0.235157,2.33536 a 1.7211301,1.7211301 0 0 1 0.2983,0.40928 1.03589,1.03589 0 0 1 0.005,0.53931 c -0.507277,3.01315 -0.883467,6.16322 0.0328,9.07816 0.830484,2.64197 0.877884,5.5694 1.584041,8.2473 0.0874,0.3316 0.187437,0.68113 0.438627,0.91461 a 1.4377167,1.4377167 0 0 0 0.657654,0.31252 c 1.040597,0.24759 2.139488,-0.0425 3.110015,-0.4922 0.682094,-0.31607 1.416261,-0.87032 1.357991,-1.61981 -0.0277,-0.35653 -0.23598,-0.66901 -0.377327,-0.9975 -0.27724,-0.64427 -0.29951,-1.36397 -0.37432,-2.06136 -0.187837,-1.75113 -0.727684,-3.44196 -1.135701,-5.15522 -0.40803,-1.71327 -0.685207,-3.50352 -0.34013,-5.23055 a 45.754849,45.754849 0 0 1 3.365062,-10.35211 1.2483625,1.2483625 0 0 1 0.308217,-0.46356 3.1870531,3.1870531 0 0 0 0.436257,-0.2978 1.3163967,1.3163967 0 0 0 0.19958,-0.54269 c 0.15177,-0.54662 0.602587,-0.94991 0.904794,-1.43 0.763097,-1.21225 0.521267,-2.76612 0.492997,-4.19826 -0.0275,-1.3927 0.17306,-2.79815 -0.0552,-4.17227 -0.22832,-1.37413 -1.015534,-2.77876 -2.340275,-3.20932 -0.656227,-0.21328 -1.365671,-0.16491 -2.052318,-0.0969 -3.637859,0.36007 -7.172731,1.02089 -10.586766,2.32776 z"
       id="path5272" />
    <path
       style="fill:#2f2e41;stroke-width:0.18549578"
       inkscape:connector-curvature="0"
       d="m -86.443518,143.32581 a 8.6981628,8.6981628 0 0 1 -0.18301,1.61017 q -0.961854,5.39444 -2.049968,10.76617 c -0.0639,0.31069 -0.12627,0.62138 -0.20996,0.92639 a 7.5125962,7.5125962 0 0 1 -1.388851,2.73232 c -3.023162,3.76795 -3.284202,9.23971 -4.924173,13.78366 -0.110647,0.30784 -0.221297,0.61569 -0.339067,0.91929 a 22.959492,22.959492 0 0 1 -1.011504,2.25709 0.64511353,0.64511353 0 0 1 -0.20854,0.26953 0.61841326,0.61841326 0 0 1 -0.329117,0.0639 9.6073648,9.6073648 0 0 1 -4.260232,-0.96895 0.88218824,0.88218824 0 0 1 -0.45253,-0.37593 0.9091835,0.9091835 0 0 1 -0.0482,-0.4327 c 0.0455,-0.90084 0.10072,-1.83432 0.53057,-2.62592 a 5.6032526,5.6032526 0 0 1 1.04982,-1.27254 c 0.12768,-2.82738 0.407147,-5.66043 1.028524,-8.42114 0.319197,-1.41157 0.713567,-2.83874 1.533561,-4.03181 0.604337,-0.88099 1.471161,-1.75063 1.364764,-2.8132 -0.0468,-0.46674 -0.24261,-1.04839 0.137597,-1.32219 0.16598,-0.12057 0.4114,-0.1362 0.523477,-0.30784 a 0.58407058,0.58407058 0 0 0 0.0738,-0.26388 6.5152055,6.5152055 0 0 0 -0.13477,-2.18047 11.500228,11.500228 0 0 1 -0.324867,-1.42149 c -0.0482,-0.48519 0.0341,-1.01008 0.357497,-1.37325 0.0198,-0.97037 -0.007,-1.97762 0.0128,-2.94655 a 5.4641085,5.4641085 0 0 0 -0.136197,-1.64564 c -0.0738,-0.25394 -0.18584,-0.49653 -0.24259,-0.75615 -0.20285,-0.93205 0.30361,-2.04853 -0.299317,-2.78766 -0.2511,-0.30642 -0.638397,-0.45963 -0.967527,-0.68095 -0.656844,-0.43837 -1.088121,-1.1562 -1.327881,-1.90951 a 10.539184,10.539184 0 0 1 -0.375927,-2.33794 2.40632,2.40632 0 0 1 -0.006,-0.50504 0.92569079,0.92569079 0 0 1 0.0681,-0.25253 c 0.187277,-0.42133 0.690904,-0.58449 1.139191,-0.6923 a 36.890355,36.890355 0 0 1 8.699192,-1.01717 c 1.083834,-0.7377 1.693871,-0.47383 2.153518,0.30785 a 8.0776865,8.0776865 0 0 1 0.612867,1.49668 c 0.209957,0.63413 0.222727,4.18361 0.427017,4.82059 0.265297,0.8285 -0.502187,2.51953 -0.492247,3.38916 z"
       id="path5274" />
    <path
       style="fill:#3f3d56;stroke-width:0.18549578"
       inkscape:connector-curvature="0"
       d="m -106.04003,111.02558 c -0.0805,0.5585 0.188,1.10736 0.21769,1.67085 0.026,0.49233 -0.13077,0.9732 -0.22043,1.458 -0.34994,1.892 0.32238,3.80849 1.00659,5.60682 a 2.8892341,2.8892341 0 0 1 0.23896,0.92211 c 0.0183,0.58696 -0.31975,1.12476 -0.41234,1.70467 -0.19455,1.21855 0.70429,2.36481 0.72292,3.59864 0.009,0.56808 -0.17032,1.14627 -0.0282,1.69636 0.0949,0.3671 0.324,0.68257 0.48661,1.02511 0.28811,0.60691 0.36545,1.29552 0.64046,1.90849 0.49701,1.10779 1.56477,1.83111 2.58093,2.49565 0.57811,-0.19273 1.203117,-0.42156 1.520494,-0.94179 a 2.3334071,2.3334071 0 0 0 0.2654,-0.8259 c 0.219717,-1.26195 0.212107,-2.55102 0.203847,-3.83194 a 23.629313,23.629313 0 0 0 -0.175317,-3.29848 c -0.20527,-1.39171 -0.656807,-2.73359 -0.980747,-4.10255 -0.408567,-1.72657 -0.617937,-3.51046 -1.254267,-5.16667 -0.55919,-1.45543 -1.4302,-2.76186 -2.34699,-4.0132 -0.34981,-0.47746 -0.62597,-1.15995 -1.3049,-1.0497 a 1.4235169,1.4235169 0 0 0 -1.1607,1.14353 z"
       id="path5276" />
    <path
       style="opacity:0.05;stroke-width:0.18549578"
       inkscape:connector-curvature="0"
       d="m -106.04003,111.02558 c -0.0805,0.5585 0.188,1.10736 0.21769,1.67085 0.026,0.49233 -0.13077,0.9732 -0.22043,1.458 -0.34994,1.892 0.32238,3.80849 1.00659,5.60682 a 2.8892341,2.8892341 0 0 1 0.23896,0.92211 c 0.0183,0.58696 -0.31975,1.12476 -0.41234,1.70467 -0.19455,1.21855 0.70429,2.36481 0.72292,3.59864 0.009,0.56808 -0.17032,1.14627 -0.0282,1.69636 0.0949,0.3671 0.324,0.68257 0.48661,1.02511 0.28811,0.60691 0.36545,1.29552 0.64046,1.90849 0.49701,1.10779 1.56477,1.83111 2.58093,2.49565 0.57811,-0.19273 1.203117,-0.42156 1.520494,-0.94179 a 2.3334071,2.3334071 0 0 0 0.2654,-0.8259 c 0.219717,-1.26195 0.212107,-2.55102 0.203847,-3.83194 a 23.629313,23.629313 0 0 0 -0.175317,-3.29848 c -0.20527,-1.39171 -0.656807,-2.73359 -0.980747,-4.10255 -0.408567,-1.72657 -0.617937,-3.51046 -1.254267,-5.16667 -0.55919,-1.45543 -1.4302,-2.76186 -2.34699,-4.0132 -0.34981,-0.47746 -0.62597,-1.15995 -1.3049,-1.0497 a 1.4235169,1.4235169 0 0 0 -1.1607,1.14353 z"
       id="path5278" />
    <path
       style="opacity:0.1;stroke-width:0.18549578"
       inkscape:connector-curvature="0"
       d="m -91.283991,98.855199 a 12.030609,12.030609 0 0 0 -1.106554,2.279761 5.2482044,5.2482044 0 0 1 -1.256914,0.1518 c -1.644228,0 -2.808832,-0.93557 -3.774936,-2.117304 -0.0837,-0.378777 -0.604467,-0.732757 -0.546297,-1.030674 0.0766,-0.394387 0.448307,-0.316357 0.783104,-0.293657 a 29.334912,29.334912 0 0 1 3.044442,0.392957 c 0.26243,0.0454 2.818855,0.683797 2.857155,0.617117 z"
       id="path5280" />
    <circle
       style="fill:#a0616a;stroke-width:0.18549578"
       cx="-93.646904"
       cy="95.876236"
       r="5.268013"
       id="circle5282" />
    <path
       style="opacity:0.1;stroke-width:0.18549578"
       inkscape:connector-curvature="0"
       d="m -86.991135,133.61938 c -0.912184,-0.0539 -1.830051,-0.0171 -2.745095,0.0198 a 9.2676071,9.2676071 0 0 0 -1.703801,0.17449 c -0.692314,0.15748 -1.339221,0.47242 -2.021588,0.66961 -1.092384,0.31778 -2.245728,0.33197 -3.377809,0.44404 a 19.114424,19.114424 0 0 0 -2.211698,0.34616 0.92569079,0.92569079 0 0 1 0.0681,-0.25253 c 0.187267,-0.42134 0.690894,-0.58449 1.139181,-0.6923 a 36.890355,36.890355 0 0 1 8.699202,-1.01718 c 1.083844,-0.73768 1.693861,-0.47382 2.153508,0.30786 z"
       id="path5284" />
    <path
       style="fill:#3f3d56;stroke-width:0.18549578"
       inkscape:connector-curvature="0"
       d="m -90.581214,104.49998 c -0.22966,0.26575 -0.537837,0.55861 -0.878467,0.47292 a 1.2001781,1.2001781 0 0 1 -0.341857,-0.18298 c -0.607267,-0.39139 -1.352661,-0.48323 -2.067078,-0.59086 a 30.500678,30.500678 0 0 1 -4.257006,-0.95706 4.3422003,4.3422003 0 0 0 -1.259134,-0.25602 c -0.892864,0.005 -1.684174,0.59814 -2.243704,1.29395 -0.55954,0.69582 -0.95596,1.51002 -1.50502,2.21413 -0.39119,0.50167 -0.85706,0.94373 -1.22239,1.46454 -0.92231,1.31484 -1.12054,3.03025 -0.88243,4.61857 0.23811,1.58832 0.87267,3.08597 1.50151,4.5638 a 15.85855,15.85855 0 0 0 1.22598,2.47186 c -0.21214,1.20678 -0.10017,2.58688 0.47367,3.6695 0.18688,0.35258 0.41591,0.6964 0.47769,1.09064 a 2.7299136,2.7299136 0 0 1 -0.0331,0.79986 l -0.26813,1.90724 c -0.0816,0.58076 -0.16331,1.16171 -0.26906,1.73856 -0.19352,1.05575 -0.45605,2.20158 0.0329,3.1571 0.58554,1.14427 -0.0294,2.61071 0.1244,3.88685 a 19.552573,19.552573 0 0 1 5.133402,-1.21962 c 1.132051,-0.11097 2.285235,-0.12499 3.377419,-0.44278 0.682107,-0.19846 1.328974,-0.51264 2.021508,-0.67088 a 9.3196796,9.3196796 0 0 1 1.704571,-0.17401 c 1.262334,-0.0509 2.533595,-0.1014 3.783189,0.0847 0.10118,0.0151 0.22445,0.0232 0.285007,-0.0592 a 0.26660939,0.26660939 0 0 0 0.0379,-0.14894 2.519081,2.519081 0 0 0 -0.323027,-1.34113 c -0.1593,-0.28114 -0.380647,-0.55616 -0.374507,-0.87924 a 1.335885,1.335885 0 0 1 0.109427,-0.43658 l 0.553677,-1.47661 c 0.46741,-1.24653 0.24498,-2.69445 0.487717,-4.00341 a 23.504697,23.504697 0 0 0 0.3639,-3.097 c 0.0449,-0.88826 0.017,-1.85019 -0.518967,-2.55995 a 2.9426254,2.9426254 0 0 1 -0.404977,-0.56317 1.70957,1.70957 0 0 1 -0.0964,-0.67348 q -0.0179,-2.66623 0.146287,-5.32957 c -0.467397,-0.83944 -0.954694,-1.69795 -1.422091,-2.53739 -0.543947,-0.97695 -1.095474,-1.974 -1.315101,-3.07039 -0.14537,-0.72572 -0.14032,-1.47305 -0.24431,-2.20584 a 0.96325367,0.96325367 0 0 0 -0.18627,-0.51511 c -0.178497,-0.2022 -0.480317,-0.23113 -0.749894,-0.22272 a 3.3193265,3.3193265 0 0 0 -0.977264,0.1798 z"
       id="path5286" />
    <path
       style="opacity:0.1;stroke-width:0.18549578"
       inkscape:connector-curvature="0"
       d="m -71.295137,101.33501 a 2.2996116,2.2996116 0 0 1 -1.140583,0.46389 c -0.543356,0.0369 -1.696735,-0.28231 -2.034364,-0.74762 a 1.3486192,1.3486192 0 0 1 -0.194354,-0.77884 0.94674639,0.94674639 0 0 1 0.226976,-0.044 5.9000217,5.9000217 0 0 1 1.767642,0.0709 c 0.574561,0.14045 1.129261,0.48943 1.371844,1.02994 0.0014,0.001 0.0014,0.004 0.0028,0.006 z"
       id="path5288" />
    <path
       style="fill:#3f3d56;stroke-width:0.18549578"
       inkscape:connector-curvature="0"
       d="m -88.821726,112.72807 c 0.32065,0.39977 0.654837,0.81086 1.109684,1.04695 0.523317,0.27163 1.139754,0.27782 1.729241,0.26528 a 41.319978,41.319978 0 0 0 7.2261,-0.7938 4.5127692,4.5127692 0 0 0 0.795845,-0.2133 4.1911956,4.1911956 0 0 0 0.804342,-0.50169 c 0.783759,-0.56345 1.578651,-1.13745 2.174595,-1.89679 a 6.3772133,6.3772133 0 0 0 1.289088,-3.16147 c 0.56687,-0.5223 0.867896,-1.26467 1.151667,-1.98134 a 3.0256032,3.0256032 0 0 0 0.262536,-0.96229 c 0.01521,-0.34075 -0.210571,-0.69797 -0.148111,-1.03331 a 2.7309115,2.7309115 0 0 1 0.835913,-1.50371 0.5483107,0.5483107 0 0 0 0.198813,-0.26422 0.42585195,0.42585195 0 0 0 -0.04732,-0.25751 c -0.242591,-0.54032 -0.797262,-0.88871 -1.372364,-1.03031 a 5.8900087,5.8900087 0 0 0 -1.768237,-0.0702 4.1328461,4.1328461 0 0 0 -0.579161,0.15381 l -0.411958,1.08481 a 1.4030585,1.4030585 0 0 1 -0.269176,0.49484 2.5262263,2.5262263 0 0 1 -0.292472,0.22869 1.6729346,1.6729346 0 0 0 -0.579693,1.46201 1.5710324,1.5710324 0 0 0 -0.929003,1.93942 1.8514464,1.8514464 0 0 0 -1.358355,1.19586 0.89415464,0.89415464 0 0 1 -0.177417,0.3722 0.72240402,0.72240402 0 0 1 -0.474313,0.14576 c -0.465514,0.0288 -0.872558,0.39542 -1.294437,0.19654 a 2.631664,2.631664 0 0 0 -1.537475,-0.21489 1.1573509,1.1573509 0 0 1 -0.328073,0.0291 0.8663191,0.8663191 0 0 1 -0.269059,-0.0938 2.153248,2.153248 0 0 0 -0.610267,-0.24009 0.57132702,0.57132702 0 0 0 -0.578947,0.22363 c -0.14773,-0.16199 -0.23577,-0.36945 -0.37037,-0.54251 a 0.59386104,0.59386104 0 0 0 -0.561644,-0.26802 c 0.140237,-0.12494 -0.004,-0.37362 -0.18556,-0.41907 a 2.3776849,2.3776849 0 0 0 -0.560327,0.0203 c -0.487227,-0.003 -0.861064,-0.44496 -1.334334,-0.56075 -0.435007,-0.10644 -1.014804,0.0205 -1.237791,-0.36789 -0.0791,-0.13769 -0.0945,-0.32443 -0.22909,-0.40874 a 0.44208469,0.44208469 0 0 0 -0.293907,-0.0341 2.8730459,2.8730459 0 0 0 -0.888837,0.26977 c -0.456167,1.7843 -0.216837,3.63734 0.13074,5.44595 a 4.8045004,4.8045004 0 0 0 0.979144,2.24478 z"
       id="path5290" />
    <path
       style="opacity:0.1;stroke-width:0.18549578"
       inkscape:connector-curvature="0"
       d="m -88.835426,119.1222 -2.268455,4.5742 c 0.245177,-0.42385 0.762244,-0.5875 1.170061,-0.85854 a 3.1009089,3.1009089 0 0 0 1.119484,-1.50389 9.2404521,9.2404521 0 0 0 0.42836,-1.85289 c 0.0463,-0.29031 0.142337,-0.69705 0.002,-0.95993 -0.26078,0.0537 -0.3451,0.38614 -0.45168,0.60105 z"
       id="path5292" />
    <path
       style="opacity:0.1;stroke-width:0.18549578"
       inkscape:connector-curvature="0"
       d="m -95.362707,123.00531 c -0.511827,0.50667 -1.138594,0.87917 -1.701811,1.32801 -1.315344,1.04824 -2.253898,2.48534 -3.169222,3.89641 a 6.1253268,6.1253268 0 0 0 -0.64759,1.1799 c 0.10712,0.0918 0.26773,-0.003 0.37368,-0.0967 l 1.781401,-1.56557 a 4.0149839,4.0149839 0 0 0 0.594117,-0.60126 c 0.309087,-0.4164 0.446227,-0.93666 0.727127,-1.37257 a 5.3797784,5.3797784 0 0 1 1.082554,-1.10326 c 0.408737,-0.35072 2.289435,-1.94078 1.830918,-2.55805 -0.330567,0.16654 -0.600737,0.62538 -0.871174,0.89308 z"
       id="path5294" />
    <path
       style="fill:#3f3d56;stroke-width:0.18549578"
       inkscape:connector-curvature="0"
       d="m -91.470591,103.17791 c -0.565157,-0.35181 -1.230491,-0.501 -1.885378,-0.6206 a 3.9719934,3.9719934 0 0 0 -1.199614,-0.0863 c -0.370847,0.0463 -0.726794,0.18945 -1.099934,0.21025 -0.523747,0.0292 -1.025874,-0.18325 -1.531821,-0.32173 -0.505937,-0.13847 -1.090374,-0.19137 -1.516331,0.11475 a 0.65489286,0.65489286 0 0 1 -0.330057,0.17529 0.57741684,0.57741684 0 0 1 -0.34115,-0.16731 1.9436063,1.9436063 0 0 0 -2.422304,0.12766 c -0.96588,0.90567 -0.85657,2.67526 -1.98852,3.36217 -0.31201,0.18934 -0.7109,0.2895 -0.89305,0.60576 a 2.2375837,2.2375837 0 0 1 -0.15401,0.29128 0.78894883,0.78894883 0 0 1 -0.27214,0.19392 5.2882492,5.2882492 0 0 0 -0.93303,0.53636 1.3344048,1.3344048 0 0 0 -0.53701,0.90018 1.695988,1.695988 0 0 0 0.1649,0.75706 7.1034091,7.1034091 0 0 0 6.903087,4.41417 1.0926704,1.0926704 0 0 0 0.723124,-0.22568 1.364661,1.364661 0 0 0 0.25347,-0.41746 c 0.532137,-1.1158 1.531611,-1.93948 2.166258,-3.00032 0.378247,-0.63224 0.621034,-1.33938 1.014784,-1.9621 0.596897,-0.94398 1.504651,-1.64134 2.393145,-2.31805 0.501037,-0.38161 1.058844,-0.78209 1.688301,-0.75536 0.560987,0.0239 0.969024,0.054 0.763357,-0.63402 a 2.2042464,2.2042464 0 0 0 -0.966077,-1.17995 z"
       id="path5296" />
    <path
       style="opacity:0.05;stroke-width:0.18549578"
       inkscape:connector-curvature="0"
       d="m -91.470591,103.17791 c -0.565157,-0.35181 -1.230491,-0.501 -1.885378,-0.6206 a 3.9719934,3.9719934 0 0 0 -1.199614,-0.0863 c -0.370847,0.0463 -0.726794,0.18945 -1.099934,0.21025 -0.523747,0.0292 -1.025874,-0.18325 -1.531821,-0.32173 -0.505937,-0.13847 -1.090374,-0.19137 -1.516331,0.11475 a 0.65489286,0.65489286 0 0 1 -0.330057,0.17529 0.57741684,0.57741684 0 0 1 -0.34115,-0.16731 1.9436063,1.9436063 0 0 0 -2.422304,0.12766 c -0.96588,0.90567 -0.85657,2.67526 -1.98852,3.36217 -0.31201,0.18934 -0.7109,0.2895 -0.89305,0.60576 a 2.2375837,2.2375837 0 0 1 -0.15401,0.29128 0.78894883,0.78894883 0 0 1 -0.27214,0.19392 5.2882492,5.2882492 0 0 0 -0.93303,0.53636 1.3344048,1.3344048 0 0 0 -0.53701,0.90018 1.695988,1.695988 0 0 0 0.1649,0.75706 7.1034091,7.1034091 0 0 0 6.903087,4.41417 1.0926704,1.0926704 0 0 0 0.723124,-0.22568 1.364661,1.364661 0 0 0 0.25347,-0.41746 c 0.532137,-1.1158 1.531611,-1.93948 2.166258,-3.00032 0.378247,-0.63224 0.621034,-1.33938 1.014784,-1.9621 0.596897,-0.94398 1.504651,-1.64134 2.393145,-2.31805 0.501037,-0.38161 1.058844,-0.78209 1.688301,-0.75536 0.560987,0.0239 0.969024,0.054 0.763357,-0.63402 a 2.2042464,2.2042464 0 0 0 -0.966077,-1.17995 z"
       id="path5298" />
    <path
       style="fill:#2f2e41;stroke-width:0.18549578"
       inkscape:connector-curvature="0"
       d="m -88.728986,179.52989 c -0.381607,0.35608 -0.906504,0.51213 -1.415821,0.62278 a 25.518854,25.518854 0 0 1 -3.523949,0.43554 c -0.38303,0.0284 -0.767477,0.0582 -1.150504,0.088 -1.123584,0.0851 -2.248588,0.17166 -3.376412,0.17592 a 23.285201,23.285201 0 0 1 -4.152408,-0.35893 0.3522973,0.3522973 0 0 1 -0.37877,-0.42133 20.116309,20.116309 0 0 1 0.51069,-4.16801 c 0.13055,-0.56179 1.13777,0.69798 1.18318,0.75046 0.27946,0.31778 0.49084,0.46391 0.91502,0.4866 1.159054,0.0639 2.457125,-0.64124 3.377829,-1.26828 a 4.3231016,4.3231016 0 0 1 0.625617,-0.38728 1.8419361,1.8419361 0 0 1 0.506467,-0.14471 3.0578331,3.0578331 0 0 1 1.723671,0.34899 c 0.692307,0.34331 1.299491,0.837 1.984698,1.19025 a 5.5786262,5.5786262 0 0 0 1.778981,0.56321 c 0.627067,0.0866 1.376101,0.12768 1.698141,0.67102 a 0.00521614,0.00521614 0 0 1 0.001,0.004 c 0.263877,0.4497 0.0723,1.0569 -0.30785,1.41157 z"
       id="path5300" />
    <path
       style="fill:#e8eaf2;stroke-width:0.18549578"
       inkscape:connector-curvature="0"
       d="m -88.728986,179.73752 c -0.381607,0.35608 -0.906504,0.51213 -1.415821,0.62278 a 25.518854,25.518854 0 0 1 -3.523949,0.43553 c -0.38303,0.0284 -0.767477,0.0582 -1.150504,0.0879 -1.123584,0.0851 -2.248588,0.17166 -3.376412,0.17592 a 23.285028,23.285028 0 0 1 -4.152408,-0.35892 0.4581412,0.4581412 0 0 1 -0.32914,-0.15889 1.8405893,1.8405893 0 0 1 -0.25725,-0.47007 c 0.0241,-1.40163 0.40338,-2.80185 0.71831,-4.16801 0.13055,-0.56179 1.13777,0.69798 1.18318,0.75046 0.27946,0.31778 0.49084,0.46391 0.91502,0.4866 1.159054,0.0639 2.457125,-0.64124 3.377829,-1.26828 a 4.3231016,4.3231016 0 0 1 0.625617,-0.38728 1.8419361,1.8419361 0 0 1 0.506467,-0.14471 c -0.14896,0.83417 -1.344881,1.84141 -1.962008,2.14784 -1.248414,0.61995 -2.732315,0.31069 -4.125435,0.38304 a 0.57535227,0.57535227 0 0 0 -0.29224,0.071 c -0.16739,0.11065 -0.17734,0.34757 -0.17166,0.5476 0.0113,0.33197 0.0539,0.72209 0.34188,0.89091 a 0.98612712,0.98612712 0 0 0 0.46249,0.0965 65.406787,65.406787 0 0 0 10.286669,-0.36035 5.6559742,5.6559742 0 0 0 1.675438,-0.37311 4.3364332,4.3364332 0 0 0 0.971777,-0.62562 c 0.438537,0.34457 0.0723,1.26453 -0.30785,1.61919 z"
       id="path5302" />
    <path
       style="fill:#2f2e41;stroke-width:0.18549578"
       inkscape:connector-curvature="0"
       d="m -91.597508,95.819289 c -0.0198,0.544758 0.351827,1.601656 -0.666757,1.306569 -0.607187,-0.17591 -0.778837,-0.895165 -1.549181,-0.734854 -0.777427,0.163149 -0.947674,1.109381 -1.208694,1.730748 a 3.3119604,3.3119604 0 0 1 -2.400365,1.939298 1.4451494,1.4451494 0 0 1 -0.661077,-10e-4 c -0.496537,-0.141857 -0.780267,-0.654004 -0.983134,-1.129241 a 8.8596268,8.8596268 0 0 1 -0.435517,-1.239894 5.2359302,5.2359302 0 0 1 -0.15749,-0.909364 v -0.0014 a 4.0449767,4.0449767 0 0 1 -0.003,-0.628461 c 0.0922,-1.238483 0.797304,-2.36773 1.699571,-3.221758 0.902264,-0.854022 1.998878,-1.471147 3.081312,-2.079753 a 4.4992002,4.4992002 0 0 1 1.136344,-0.506464 3.82417,3.82417 0 0 1 1.200191,-0.04964 4.1893332,4.1893332 0 0 1 1.526474,0.358921 2.1500074,2.1500074 0 0 1 0.537667,0.377359 1.6163472,1.6163472 0 0 1 0.465307,0.777414 c 0.195787,0.800122 -0.31494,1.520804 -0.729177,2.15352 -0.368887,0.561788 -0.825684,1.157628 -0.852634,1.858447 z"
       id="path5304" />
    <path
       style="opacity:0.1;stroke-width:0.18549578"
       inkscape:connector-curvature="0"
       d="m -74.455445,107.51066 c -0.218017,-0.54904 -1.132935,-2.06638 -0.868162,-2.5883 a 6.8323941,6.8323941 0 0 1 0.696102,1.24499 c 0.172902,0.42444 0.03169,0.99355 0.17206,1.34331 z"
       id="path5306" />
    <path
       style="opacity:0.1;stroke-width:0.18549578"
       inkscape:connector-curvature="0"
       d="m -90.722294,93.960624 c 0.415007,-0.633074 0.925764,-1.353678 0.730227,-2.153863 a 1.6794677,1.6794677 0 0 0 -0.592477,-0.886608 1.4679598,1.4679598 0 0 1 0.150137,0.37377 c 0.19553,0.800178 -0.315217,1.520796 -0.730254,2.153856 -0.36831,0.561816 -0.825497,1.158272 -0.851777,1.858637 -0.0204,0.544351 0.35192,1.602002 -0.667644,1.306755 -0.606517,-0.17563 -0.778107,-0.895456 -1.548821,-0.734711 -0.777517,0.162168 -0.947257,1.108668 -1.208334,1.730625 a 3.3150582,3.3150582 0 0 1 -2.400898,1.939428 1.449221,1.449221 0 0 1 -0.660614,-0.001 1.0009055,1.0009055 0 0 1 -0.31127,-0.152827 1.3431564,1.3431564 0 0 0 0.753607,0.665654 1.449325,1.449325 0 0 0 0.660617,0.001 3.3150879,3.3150879 0 0 0 2.400925,-1.939428 c 0.26106,-0.621967 0.430787,-1.568463 1.208314,-1.730624 0.770744,-0.160752 0.942324,0.55909 1.548821,0.73472 1.019594,0.295227 0.647227,-0.76242 0.667657,-1.306765 0.0263,-0.700364 0.483477,-1.296813 0.851784,-1.858629 z"
       id="path5308" />
    <path
       style="opacity:0.1;stroke-width:0.18549578"
       inkscape:connector-curvature="0"
       d="m -90.496624,92.878413 a 4.643208,4.643208 0 0 1 -0.3121,0.445456 5.2695939,5.2695939 0 0 1 -0.720687,0.746216 5.9963126,5.9963126 0 0 1 -0.486587,0.381615 7.6577722,7.6577722 0 0 1 -0.983134,0.587329 c -0.995894,0.502201 -2.074068,0.817144 -3.146582,1.12783 q -1.051204,0.306432 -2.103868,0.611439 c -0.258187,0.19578 -0.730604,0.5476 -1.252661,0.912197 a 5.2359302,5.2359302 0 0 1 -0.15749,-0.909365 v -0.0014 a 4.0449767,4.0449767 0 0 1 -0.003,-0.628461 c 0.0922,-1.238482 0.797304,-2.367737 1.699571,-3.221759 0.902264,-0.854028 1.998888,-1.471145 3.081312,-2.079758 a 4.4992002,4.4992002 0 0 1 1.136354,-0.506458 3.82417,3.82417 0 0 1 1.200181,-0.04963 4.1893332,4.1893332 0 0 1 1.526484,0.358921 2.1500074,2.1500074 0 0 1 0.537657,0.37736 2.0506337,2.0506337 0 0 1 0.269547,0.570306 c 0.13333,0.431266 -0.0497,0.895168 -0.285157,1.278193 z"
       id="path5310" />
    <path
       style="fill:#3f3d56;stroke-width:0.18549578"
       inkscape:connector-curvature="0"
       d="m -90.496624,92.736549 a 4.643208,4.643208 0 0 1 -0.3121,0.445463 5.2695939,5.2695939 0 0 1 -0.720687,0.746216 5.9967244,5.9967244 0 0 1 -0.486587,0.381614 7.6575479,7.6575479 0 0 1 -0.983134,0.587329 c -0.995894,0.502202 -2.074068,0.817144 -3.146582,1.127831 q -1.051204,0.30643 -2.103868,0.611438 c -0.733444,0.554688 -3.190548,2.374816 -3.603378,2.147829 -0.4866,-0.26812 2.179857,-2.155779 2.179857,-2.155779 l 0.12262,0.09307 c -0.39014,-0.245429 -0.594417,-0.814312 -0.682367,-1.306587 -0.15605,-0.880978 -0.22983,-1.796015 -0.0213,-2.667073 0.20853,-0.869635 0.732027,-1.698123 1.529311,-2.105278 0.353237,-0.181595 0.781677,-0.305015 1.037044,-0.584482 a 0.73624578,0.73624578 0 0 0 0.10073,-0.136193 0.44784433,0.44784433 0 0 0 0.0397,-0.07235 0.98192003,0.98192003 0 0 1 0.11206,-0.217049 c 0.146127,-0.168822 0.411417,-0.117755 0.632734,-0.0908 0.0241,0.0028 0.0468,0.0056 0.0709,0.0071 a 1.115132,1.115132 0 0 0 0.11915,0.0056 c 0.790197,0.01704 1.556271,-0.422755 2.356398,-0.422755 0.876714,-0.0014 1.622931,0.506465 2.394685,0.852613 0.15605,0.07094 0.3036,0.134776 0.442627,0.200026 0.557517,0.25962 0.977434,0.536254 1.207274,1.273959 0.13334,0.431252 -0.0497,0.895161 -0.285157,1.278193 z"
       id="path5312" />
    <path
       style="opacity:0.1;stroke-width:0.18549578"
       inkscape:connector-curvature="0"
       d="m -96.612451,89.554506 a 0.36039048,0.36039048 0 0 1 -0.0837,0.462479 0.64675517,0.64675517 0 0 1 -0.331977,0.117755 2.2351593,2.2351593 0 0 1 -0.25819,0.01984 0.70391567,0.70391567 0 0 1 -0.341897,-0.05819 0.42729511,0.42729511 0 0 1 -0.0596,-0.03828 0.73561691,0.73561691 0 0 0 0.10073,-0.136194 c 0.0198,0.01563 0.0397,0.01136 0.11917,0.0056 a 1.8062225,1.8062225 0 0 0 0.425597,-0.07234 0.47810982,0.47810982 0 0 0 0.1603,-0.07661 0.49057142,0.49057142 0 0 0 0.150377,-0.22983 z"
       id="path5314" />
    <path
       style="opacity:0.1;stroke-width:0.18549578"
       inkscape:connector-curvature="0"
       d="m -99.620523,96.607605 a 0.97340951,0.97340951 0 0 0 0.363937,0.135491 1.1733295,1.1733295 0 0 0 0.970864,-0.145483"
       id="path5316" />
  </g>
</svg>
