<?xml version="1.0" encoding="UTF-8" standalone="no"?>
<!-- Created with Inkscape (http://www.inkscape.org/) -->

<svg
   xmlns:dc="http://purl.org/dc/elements/1.1/"
   xmlns:cc="http://creativecommons.org/ns#"
   xmlns:rdf="http://www.w3.org/1999/02/22-rdf-syntax-ns#"
   xmlns:svg="http://www.w3.org/2000/svg"
   xmlns="http://www.w3.org/2000/svg"
   xmlns:xlink="http://www.w3.org/1999/xlink"
   xmlns:sodipodi="http://sodipodi.sourceforge.net/DTD/sodipodi-0.dtd"
   xmlns:inkscape="http://www.inkscape.org/namespaces/inkscape"
   width="435.11478mm"
   height="170.77313mm"
   viewBox="0 0 435.11478 170.77313"
   version="1.1"
   id="svg8"
   inkscape:version="0.92.4 (5da689c313, 2019-01-14)"
   sodipodi:docname="fundoNovoProduto.svg">
  <defs
     id="defs2">
    <linearGradient
       gradientUnits="userSpaceOnUse"
       y2="277.87"
       x2="848.51001"
       y1="309.79999"
       x1="848.51001"
       id="ba601b76-5571-4ce0-804a-19bf8cc9a6f6">
      <stop
         id="stop3713"
         stop-opacity="0.25"
         stop-color="gray"
         offset="0" />
      <stop
         id="stop3715"
         stop-opacity="0.12"
         stop-color="gray"
         offset="0.54" />
      <stop
         id="stop3717"
         stop-opacity="0.1"
         stop-color="gray"
         offset="1" />
    </linearGradient>
    <linearGradient
       xlink:href="#ba601b76-5571-4ce0-804a-19bf8cc9a6f6"
       y2="171.94"
       x2="839.07001"
       y1="807.44"
       x1="839.07001"
       id="c11e9009-8f69-4c13-bf2f-5e6c7aa88e08"
       gradientTransform="matrix(0.19903609,0,0,0.19903609,-200.79018,12.002937)" />
    <linearGradient
       inkscape:collect="always"
       xlink:href="#ba601b76-5571-4ce0-804a-19bf8cc9a6f6"
       id="linearGradient4154"
       gradientUnits="userSpaceOnUse"
       x1="848.51001"
       y1="309.79999"
       x2="848.51001"
       y2="277.87"
       gradientTransform="matrix(0.19903609,0,0,0.19903609,-200.79018,12.002937)" />
  </defs>
  <sodipodi:namedview
     id="base"
     pagecolor="#ffffff"
     bordercolor="#666666"
     borderopacity="1.0"
     inkscape:pageopacity="0.0"
     inkscape:pageshadow="2"
     inkscape:zoom="0.35"
     inkscape:cx="32.266807"
     inkscape:cy="240.78717"
     inkscape:document-units="mm"
     inkscape:current-layer="layer1"
     showgrid="false"
     fit-margin-top="0"
     fit-margin-left="0"
     fit-margin-right="0"
     fit-margin-bottom="0"
     inkscape:window-width="1920"
     inkscape:window-height="1018"
     inkscape:window-x="-8"
     inkscape:window-y="-8"
     inkscape:window-maximized="1" />
  <metadata
     id="metadata5">
    <rdf:RDF>
      <cc:Work
         rdf:about="">
        <dc:format>image/svg+xml</dc:format>
        <dc:type
           rdf:resource="http://purl.org/dc/dcmitype/StillImage" />
        <dc:title></dc:title>
      </cc:Work>
    </rdf:RDF>
  </metadata>
  <g
     inkscape:label="Camada 1"
     inkscape:groupmode="layer"
     id="layer1"
     transform="translate(189.28464,-17.281284)">
    <ellipse
       style="opacity:0.1;fill:#6c63ff;stroke-width:0.19903608"
       cx="-23.890881"
       cy="170.23265"
       rx="23.661409"
       ry="4.0702882"
       id="ellipse3725" />
    <ellipse
       style="opacity:0.1;fill:#6c63ff;stroke-width:0.19903608"
       cx="-95.531937"
       cy="166.25192"
       rx="35.03035"
       ry="2.4779992"
       id="ellipse3727" />
    <path
       style="opacity:0.1;fill:#6c63ff;stroke-width:0.19903608"
       inkscape:connector-curvature="0"
       d="m -116.63971,26.466889 c 6.27362,-5.590923 16.12192,-6.72941 25.078546,-6.283569 28.151662,1.393253 53.562604,14.989408 75.544147,30.360965 7.9614408,5.57301 15.79152182,11.562006 20.9565102,19.226885 10.5150788,15.600447 7.3961758,37.21975 -7.2250138,50.06355 -4.9758997,4.37879 -11.0047034,7.72459 -17.1967184,10.6962 -11.006689,5.2844 -22.889147,9.52587 -35.376673,10.73202 -8.908855,0.86183 -17.929166,0.16122 -26.786274,-1.03896 -24.744164,-3.35575 -49.032544,-10.77781 -69.385974,-23.47432 -8.92876,-5.57301 -17.34599,-12.4915 -21.02617,-21.495896 -3.68018,-9.004392 -1.32359,-20.425086 7.79227,-25.757264 3.78168,-2.205319 8.27989,-3.2005 12.69452,-4.135969 6.49653,-1.37733 13.09856,-2.734756 18.96216,-5.533204 6.05866,-2.893984 13.22396,-8.484908 12.02974,-14.881927 -1.29373,-6.868736 -2.32673,-12.895548 3.93893,-18.478511 z"
       id="path3729" />
    <line
       style="fill:#6c63ff;stroke-width:0.19903608"
       x1="-141.24655"
       y1="55.307217"
       x2="-142.74529"
       y2="55.307217"
       id="line3731" />
    <g
       style="opacity:0.1"
       id="g3741"
       transform="matrix(0.19903609,0,0,0.19903609,-173.88846,20.095744)">
      <path
         inkscape:connector-curvature="0"
         d="m 541.81,687 c 3.84,6.53 9.86,10.74 16.64,10.74 11.58,0 21,-12.27 21,-27.42 0,-15.15 -9.45,-27.32 -21,-27.32 -5.45,0 -10.42,2.72 -14.15,7.19 a 27.09,27.09 0 0 0 -3.57,5.59 l -0.2,1.19 c 0,0 -4.47,3.82 -10.56,0.31 v -88.82 h -86.72 a 7,7 0 0 1 -1.05,-6.54 8.36,8.36 0 0 1 3.91,-4.77 c 6.53,-3.84 10.75,-9.86 10.75,-16.64 0,-11.58 -12.28,-21 -27.42,-21 -15.14,0 -27.42,9.39 -27.42,21 0,5.45 2.73,10.43 7.2,14.16 a 27.25,27.25 0 0 0 5.58,3.56 l 0.12,0.2 a 8.53,8.53 0 0 1 1.67,10 h -39.11 v 164.48 a 39,39 0 0 0 39,39 H 530 v -87.28 a 6.91,6.91 0 0 1 7.07,-1.5 8.28,8.28 0 0 1 4.74,3.87 z"
         transform="translate(-135.16,-40.66)"
         id="path3733" />
      <path
         inkscape:connector-curvature="0"
         d="m 395.86,565 h 13.58 a 27.41,27.41 0 0 1 -10.71,-21.51 c 0,-15.59 13.6,-28.22 30.37,-28.22 16.77,0 30.38,12.63 30.38,28.22 A 27.41,27.41 0 0 1 448.77,565 h 81.4 v -87.63 a 7,7 0 0 1 7.07,-1.5 8.33,8.33 0 0 1 4.78,3.91 c 3.83,6.53 9.85,10.74 16.64,10.74 11.58,0 21,-12.27 21,-27.41 0,-15.14 -9.38,-27.42 -21,-27.42 -5.46,0 -10.43,2.73 -14.16,7.19 a 27.63,27.63 0 0 0 -3.57,5.59 l -0.19,0.12 A 8.54,8.54 0 0 1 530.17,450 v -88.8 h -83.49 a 7,7 0 0 1 -1.05,-6.54 8.31,8.31 0 0 1 3.91,-4.77 c 6.53,-3.83 10.74,-9.86 10.74,-16.64 0,-11.58 -12.27,-21 -27.41,-21 -15.14,0 -27.42,9.39 -27.42,21 0,5.46 2.73,10.43 7.19,14.16 a 27.63,27.63 0 0 0 5.59,3.57 l 0.12,0.19 a 8.53,8.53 0 0 1 1.67,10 h -24.16 v -4.5 H 413.7 A 27.4,27.4 0 0 1 403,335.2 c 0,-15.59 13.6,-28.23 30.38,-28.23 16.78,0 30.37,12.64 30.37,28.23 A 27.4,27.4 0 0 1 453,356.7 h 77.1 V 268 a 6.94,6.94 0 0 1 7.08,-1.5 8.34,8.34 0 0 1 4.77,3.91 c 3.83,6.53 9.86,10.74 16.64,10.74 11.58,0 21,-12.27 21,-27.42 0,-15.15 -9.38,-27.41 -21,-27.41 -5.46,0 -10.43,2.72 -14.16,7.19 a 27.09,27.09 0 0 0 -3.57,5.59 l -0.19,1.19 c 0,0 -4.47,3.82 -10.57,0.31 V 157.87 H 416.63 a 39,39 0 0 0 -39,39 v 42.22 h -0.59 a 2.29,2.29 0 0 0 -2.29,2.29 v 20 a 2.3,2.3 0 0 0 2.29,2.29 h 0.59 v 20.42 h -0.77 a 2.3,2.3 0 0 0 -2.3,2.29 v 38.19 a 2.3,2.3 0 0 0 2.3,2.29 h 0.77 v 15 H 377 a 2.29,2.29 0 0 0 -2.29,2.29 v 12.3 h -0.5 v 25.92 a 2.28,2.28 0 0 0 2.29,2.29 h 0.68 V 565 Z"
         transform="translate(-135.16,-40.66)"
         id="path3735" />
      <path
         inkscape:connector-curvature="0"
         d="m 692.59,299.5 a 2.3,2.3 0 0 0 -2.29,-2.3 h -1.38 v -2.51 h -0.75 v -99.75 a 37.49,37.49 0 0 0 -37.5,-37.5 h -112.5 v 76 a 27.75,27.75 0 0 1 22,-11.05 c 15.71,0 28.45,13.61 28.45,30.39 0,16.78 -12.74,30.39 -28.45,30.39 a 27.73,27.73 0 0 1 -22,-11.05 v 84.33 h 91 a 27.47,27.47 0 0 1 -10.69,-21.53 c 0,-15.61 13.57,-28.26 30.32,-28.26 a 31.45,31.45 0 0 1 20.37,7.34 26.72,26.72 0 0 1 0,41.75 v 0.67 h 19.75 v -0.07 h 3.67 z"
         transform="translate(-135.16,-40.66)"
         id="path3737" />
      <path
         inkscape:connector-curvature="0"
         d="m 662.38,560.51 v -10 0 a 19,19 0 0 0 1.13,-1.87 16.66,16.66 0 0 0 2.06,-7.95 16.37,16.37 0 0 0 -0.94,-5.44 18,18 0 0 0 -2.25,-4.38 v 0 c -4.61,-6.63 -13.72,-11.15 -24.22,-11.15 -15.15,0 -27.42,9.39 -27.42,21 0,5.46 2.73,10.43 7.19,14.16 a 27.63,27.63 0 0 0 5.59,3.57 l 0.12,0.19 a 8.54,8.54 0 0 1 1.67,10 h -88.22 v 82 a 27.41,27.41 0 0 1 21.77,-11 c 15.59,0 28.22,13.6 28.22,30.37 0,16.77 -12.63,30.38 -28.22,30.38 a 27.41,27.41 0 0 1 -21.77,-11 v 66.19 h 101.23 a 24.06,24.06 0 0 0 24.06,-24 v -162.91 0 162.8 a 24.06,24.06 0 0 1 -24.06,24.06 H 537.09 v 16 h 105 a 39,39 0 0 0 39,-39 v -163.86 0 -4.3 h -18.71 z"
         transform="translate(-135.16,-40.66)"
         id="path3739" />
    </g>
    <path
       style="fill:#3a3768;stroke-width:0.19903608"
       inkscape:connector-curvature="0"
       d="m -116.94623,161.65021 a 4.7888082,4.7888082 0 0 1 -4.78881,-4.7888 v -32.51056 h -3.72396 v 32.73148 a 7.7624075,7.7624075 0 0 0 7.76241,7.76241 h 22.594574 v -3.18458 z"
       id="path3743" />
    <path
       style="fill:#57a4ff;fill-opacity:1;stroke-width:0.19903608"
       inkscape:connector-curvature="0"
       d="m -93.708763,147.17432 a 1.6480188,1.6480188 0 0 1 0.949402,0.77823 c 0.764298,1.29971 1.962496,2.13764 3.31196,2.13764 2.304838,0 4.179758,-2.44217 4.179758,-5.45756 0,-3.0154 -1.87293,-5.44563 -4.171796,-5.44563 -1.084747,0 -2.073956,0.54137 -2.816361,1.43107 a 5.3918876,5.3918876 0 0 0 -0.710559,1.11261 l -0.03981,0.23686 c 0,0 -0.889691,0.76031 -2.101821,0.0617 v -17.67837 h -17.26041 a 1.3932526,1.3932526 0 0 1 -0.20898,-1.3017 1.6639417,1.6639417 0 0 1 0.77823,-0.9494 c 1.2997,-0.7643 2.13963,-1.96249 2.13963,-3.31196 0,-2.30484 -2.44416,-4.17976 -5.45756,-4.17976 -3.01341,0 -5.45758,1.86895 -5.45758,4.17976 0,1.08475 0.54337,2.07595 1.43306,2.81835 a 5.4237333,5.4237333 0 0 0 1.11063,0.70857 l 0.0239,0.0398 a 1.6977778,1.6977778 0 0 1 0.33239,1.99036 h -4.06034 v 32.51653 a 4.7888082,4.7888082 0 0 0 4.78881,4.7888 h 21.844214 v -14.17734 a 1.3753393,1.3753393 0 0 1 1.393253,-0.29855 z"
       id="path3745" />
    <rect
       style="fill:#3a3768;stroke-width:0.19903608"
       x="-126.11582"
       y="82.137283"
       width="0.59113717"
       height="0.96333468"
       id="rect3747" />
    <rect
       style="fill:#3a3768;stroke-width:0.19903608"
       x="-125.03107"
       y="82.137283"
       width="3.2303557"
       height="0.96333468"
       id="rect3749" />
    <rect
       style="fill:#3a3768;stroke-width:0.19903608"
       x="-125.52468"
       y="82.137283"
       width="0.49360952"
       height="0.96333468"
       id="rect3751" />
    <path
       style="fill:#6c63ff;stroke-width:0.19903608"
       inkscape:connector-curvature="0"
       d="M -93.889886,124.72305"
       id="path3753" />
    <path
       style="fill:#3a3768;stroke-width:0.19903608"
       inkscape:connector-curvature="0"
       d="m -125.66002,87.752091 h 0.13534 v -4.653465 h -0.59711 v 4.197669 a 0.45380227,0.45380227 0 0 0 0.46177,0.455796 z"
       id="path3755" />
    <path
       style="fill:#3a3768;stroke-width:0.19903608"
       inkscape:connector-curvature="0"
       d="m -121.80072,83.098626 h -3.23035 v 4.197669 a 0.45579264,0.45579264 0 0 1 -0.45778,0.455796 h -0.0358 v 35.910099 h 3.72396 z"
       id="path3757" />
    <path
       style="fill:#3a3768;stroke-width:0.19903608"
       inkscape:connector-curvature="0"
       d="m -125.52468,87.752091 h 0.0358 a 0.45579264,0.45579264 0 0 0 0.45779,-0.455796 v -4.197669 h -0.49361 z"
       id="path3759" />
    <path
       style="fill:#57a4ff;fill-opacity:1;stroke-width:0.19903608"
       inkscape:connector-curvature="0"
       d="m -121.22948,119.37296 c 0,-3.10298 2.70689,-5.61681 6.04472,-5.61681 3.33784,0 6.04672,2.51383 6.04672,5.61681 a 5.4555791,5.4555791 0 0 1 -2.13168,4.28923 h 16.20154 v -17.44154 a 1.3932526,1.3932526 0 0 1 1.407186,-0.29856 1.6579706,1.6579706 0 0 1 0.951392,0.77824 c 0.762308,1.2997 1.960505,2.13765 3.31196,2.13765 2.304838,0 4.179758,-2.44218 4.179758,-5.45558 0,-3.01341 -1.866958,-5.45757 -4.179758,-5.45757 -1.086737,0 -2.075946,0.543366 -2.81835,1.431066 a 5.4993671,5.4993671 0 0 0 -0.71056,1.112614 l -0.03782,0.0239 a 1.6997681,1.6997681 0 0 1 -2.103811,0.28064 V 83.098626 H -111.6857 a 1.3932526,1.3932526 0 0 1 -0.20899,-1.301692 1.6539899,1.6539899 0 0 1 0.77823,-0.949408 c 1.29971,-0.762305 2.13765,-1.962493 2.13765,-3.311958 0,-2.304838 -2.44217,-4.179758 -5.45558,-4.179758 -3.01341,0 -5.45757,1.868949 -5.45757,4.179758 0,1.086737 0.54337,2.075946 1.43107,2.818353 a 5.4993671,5.4993671 0 0 0 1.11261,0.710557 l 0.0239,0.03784 a 1.6977778,1.6977778 0 0 1 0.3324,1.990359 h -4.80872 v 40.569533 h 2.70291 a 5.4555791,5.4555791 0 0 1 -2.13167,-4.28923 z"
       id="path3761" />
    <path
       style="fill:#3a3768;stroke-width:0.19903608"
       inkscape:connector-curvature="0"
       d="m -124.93156,79.623457 a 0.45579264,0.45579264 0 0 0 -0.45778,-0.455793 h -0.0358 v 2.969616 h 0.49362 z"
       id="path3763" />
    <path
       style="fill:#3a3768;stroke-width:0.19903608"
       inkscape:connector-curvature="0"
       d="m -125.44308,58.79035 h -0.0995 a 0.45579264,0.45579264 0 0 0 -0.45578,0.455792 v 3.980722 a 0.457783,0.457783 0 0 0 0.45578,0.455792 h 0.11744 V 58.79234 Z"
       id="path3765" />
    <path
       style="fill:#3a3768;stroke-width:0.19903608"
       inkscape:connector-curvature="0"
       d="m -125.57842,67.742993 a 0.457783,0.457783 0 0 0 -0.45778,0.455792 v 7.601188 a 0.457783,0.457783 0 0 0 0.45778,0.455793 h 0.15326 v -8.512773 z"
       id="path3767" />
    <path
       style="fill:#3a3768;stroke-width:0.19903608"
       inkscape:connector-curvature="0"
       d="m -125.42516,79.233346 h -0.12937 a 0.45579264,0.45579264 0 0 0 -0.4558,0.455793 v 2.513828 h 0.59711 z"
       id="path3769" />
    <path
       style="fill:#3a3768;stroke-width:0.19903608"
       inkscape:connector-curvature="0"
       d="m -125.42516,50.389037 v 8.403303 a 0.45380227,0.45380227 0 0 1 0.43788,0.453802 v 3.980722 a 0.45579264,0.45579264 0 0 1 -0.43788,0.453803 v 4.064316 h 0.0697 a 0.45579264,0.45579264 0 0 1 0.45579,0.455793 v 7.601188 a 0.45579264,0.45579264 0 0 1 -0.45579,0.455792 h -0.0737 v 2.985542 h 0.0358 a 0.457783,0.457783 0 0 1 0.45778,0.455793 v 2.503876 h 3.23036 V 50.615938 a 4.7888082,4.7888082 0 0 1 4.78682,-4.788809 h 6.49057 V 46.6591 a 3.9429049,3.9429049 0 0 0 3.94291,3.942905 h 11.418695 v -2.603392 h -5.256545 a 0.77425041,0.77425041 0 0 1 -0.77027,-0.766289 v -0.16719 a 0.77226,0.77226 0 0 1 0.77027,-0.77027 h 5.246594 V 42.62862 h -22.590594 a 7.7624075,7.7624075 0 0 0 -7.75843,7.760417 z"
       id="path3771" />
    <path
       style="fill:#3a3768;stroke-width:0.19903608"
       inkscape:connector-curvature="0"
       d="m -124.98728,63.224874 v -3.980722 a 0.45380227,0.45380227 0 0 0 -0.43788,-0.453802 v 4.886336 a 0.45579264,0.45579264 0 0 0 0.43788,-0.451812 z"
       id="path3773" />
    <path
       style="fill:#3a3768;stroke-width:0.19903608"
       inkscape:connector-curvature="0"
       d="m -124.89573,75.799973 v -7.601188 a 0.45579264,0.45579264 0 0 0 -0.45579,-0.455792 h -0.0737 v 8.512773 h 0.0697 a 0.45579264,0.45579264 0 0 0 0.45978,-0.455793 z"
       id="path3775" />
    <path
       style="fill:#57a4ff;fill-opacity:1;stroke-width:0.19903608"
       inkscape:connector-curvature="0"
       d="m -120.3796,77.923689 c 0,-3.102973 2.70689,-5.618789 6.04672,-5.618789 3.33982,0 6.04472,2.515816 6.04472,5.618789 a 5.4535887,5.4535887 0 0 1 -2.13963,4.279278 h 15.345678 V 64.548464 a 1.3813104,1.3813104 0 0 1 1.409175,-0.298554 1.659961,1.659961 0 0 1 0.949402,0.778231 c 0.762308,1.299705 1.962496,2.137647 3.311961,2.137647 2.304838,0 4.179758,-2.442173 4.179758,-5.457569 0,-3.015397 -1.866959,-5.455579 -4.179758,-5.455579 -1.086737,0 -2.075946,0.541377 -2.818351,1.431069 a 5.3918876,5.3918876 0 0 0 -0.710559,1.112612 l -0.03782,0.236853 c 0,0 -0.889691,0.760317 -2.103811,0.0617 v -8.49884 h -11.412725 a 3.9429049,3.9429049 0 0 1 -3.93295,-3.942905 v -0.831971 h -6.48659 a 4.7888082,4.7888082 0 0 0 -4.78682,4.79478 v 31.587029 h 3.45129 a 5.4535887,5.4535887 0 0 1 -2.12969,-4.279278 z"
       id="path3777" />
    <path
       style="fill:#e6e8ec;stroke-width:0.19903608"
       inkscape:connector-curvature="0"
       d="m -100.32273,46.288893 a 0.77226,0.77226 0 0 0 -0.77027,0.77027 v 0.173161 a 0.77425041,0.77425041 0 0 0 0.77027,0.77226 h 5.246589 v -1.70972 z"
       id="path3779" />
    <path
       style="fill:#3a3768;stroke-width:0.19903608"
       inkscape:connector-curvature="0"
       d="m -64.814698,70.336433 v 11.814786 h 1.343495 V 69.860737 h -0.726482 c -0.340346,0 -0.617013,0.212968 -0.617013,0.475696 z"
       id="path3781" />
    <rect
       style="fill:#3a3768;stroke-width:0.19903608"
       x="-93.475891"
       y="42.543034"
       width="1.5922886"
       height="3.5826495"
       id="rect3783" />
    <rect
       style="fill:#3a3768;stroke-width:0.19903608"
       x="-93.475891"
       y="47.917007"
       width="1.5922886"
       height="2.5874691"
       id="rect3785" />
    <rect
       style="fill:#e6e8ec;stroke-width:0.19903608"
       x="-93.475891"
       y="46.125683"
       width="1.5922886"
       height="1.7913247"
       id="rect3787" />
    <path
       style="fill:#3a3768;stroke-width:0.19903608"
       inkscape:connector-curvature="0"
       d="M -63.196529,70.360317 H -63.57072 V 82.13728 h 0.829979 V 70.8181 a 0.457783,0.457783 0 0 0 -0.455788,-0.457783 z"
       id="path3789" />
    <path
       style="fill:#3a3768;stroke-width:0.19903608"
       inkscape:connector-curvature="0"
       d="m -91.885593,46.125684 c 0.423947,0.09554 0.796144,0.867797 0.796144,0.867797 v 0.16719 c 0,0 -0.374187,0.77027 -0.796144,0.756337 v 0 2.587469 h 8.994441 a 3.9448952,3.9448952 0 0 0 3.942905,-3.944895 v -0.831971 h 6.76723 a 4.7868179,4.7868179 0 0 1 4.776866,4.786818 v 23.189695 a 5.3182442,5.3182442 0 0 1 0,8.309755 v 0.133353 h 2.7865 V 70.465806 a 0.05772047,0.05772047 0 0 1 0.05973,-0.05772 h 0.935468 V 50.006887 a 7.4618628,7.4618628 0 0 0 -7.463857,-7.463853 h -20.996329 v 3.58265 z m 3.013406,-0.01791 a 0.96930573,0.96930573 0 1 1 -0.969305,0.969306 0.96930573,0.96930573 0 0 1 0.969305,-0.969306 z"
       id="path3791" />
    <path
       style="fill:#57a4ff;fill-opacity:1;stroke-width:0.19903608"
       inkscape:connector-curvature="0"
       d="m -89.107049,55.468437 c 3.126857,0 5.662577,2.708881 5.662577,6.048707 0,3.339826 -2.53572,6.048707 -5.662577,6.048707 a 5.5192706,5.5192706 0 0 1 -4.378794,-2.199349 v 16.784717 h 18.112285 a 5.4675213,5.4675213 0 0 1 -2.127697,-4.285251 c 0,-3.106953 2.700921,-5.624759 6.034774,-5.624759 a 6.2596849,6.2596849 0 0 1 4.064316,1.462915 V 50.514429 a 4.7868179,4.7868179 0 0 0 -4.776866,-4.786818 h -6.767226 v 0.831971 a 3.9448952,3.9448952 0 0 1 -3.942905,3.944895 h -10.586729 v 7.165299 a 5.5232514,5.5232514 0 0 1 4.368842,-2.201339 z"
       id="path3793" />
    <path
       style="fill:#e6e8ec;stroke-width:0.19903608"
       inkscape:connector-curvature="0"
       d="m -91.885593,47.917008 a 0.79614433,0.79614433 0 0 0 0.796144,-0.756337 v -0.16719 a 0.99518039,0.99518039 0 0 0 -0.796144,-0.867797 h -0.199036 v 1.791324 z"
       id="path3795" />
    <circle
       style="fill:#e6e8ec;stroke-width:0.19903608"
       cx="-95.266205"
       cy="32.22501"
       r="0.96930575"
       transform="rotate(-9.2199992)"
       id="circle3797" />
    <path
       style="fill:#3a3768;stroke-width:0.19903608"
       inkscape:connector-curvature="0"
       d="m -68.753619,122.76851 v -1.99036 a 3.325893,3.325893 0 0 0 0,-3.90907 z"
       id="path3799" />
    <rect
       style="fill:#3a3768;stroke-width:0.19903608"
       x="-68.753616"
       y="123.53679"
       width="3.7239652"
       height="0.85585523"
       id="rect3801" />
    <path
       style="fill:#6c63ff;stroke-width:0.19903608"
       inkscape:connector-curvature="0"
       d="m -70.256339,122.13955 a 1.659961,1.659961 0 0 0 -0.77823,0.94941 1.3932526,1.3932526 0 0 0 0.208986,1.30369 h 2.071964 v -0.85586 h -0.796142 a 5.9710826,5.9710826 0 0 0 0.796142,-0.76828 v -1.99036 a 4.7131746,4.7131746 0 0 1 -1.50272,1.3614 z"
       id="path3803" />
    <path
       style="fill:#6c63ff;stroke-width:0.19903608"
       inkscape:connector-curvature="0"
       d="m -69.553741,123.53679 h 0.796142 v -0.76828 a 5.9710826,5.9710826 0 0 1 -0.796142,0.76828 z"
       id="path3805" />
    <path
       style="fill:#3a3768;stroke-width:0.19903608"
       inkscape:connector-curvature="0"
       d="m -68.118695,118.8276 a 3.397546,3.397546 0 0 0 -0.634924,-1.95454 v 3.90708 a 3.4055075,3.4055075 0 0 0 0.634924,-1.95254 z"
       id="path3807" />
    <path
       style="fill:#3a3768;stroke-width:0.19903608"
       inkscape:connector-curvature="0"
       d="m -65.029657,124.39265 v 32.624 a 7.7624075,7.7624075 0 0 1 -7.762408,7.76241 H -93.69085 v -3.18458 h 20.148426 a 4.7888082,4.7888082 0 0 0 4.788805,-4.78881 v -32.41302 z"
       id="path3809" />
    <path
       style="fill:#57a4ff;fill-opacity:1;stroke-width:0.19903608"
       inkscape:connector-curvature="0"
       d="m -71.034569,123.08896 a 1.659961,1.659961 0 0 1 0.77823,-0.94941 4.7131746,4.7131746 0 0 0 1.50272,-1.35941 v -3.90708 c -0.917557,-1.31961 -2.730773,-2.21925 -4.820656,-2.21925 -3.015398,0 -5.457568,1.86895 -5.457568,4.17976 0,1.08673 0.543369,2.07594 1.43107,2.81835 a 5.4993671,5.4993671 0 0 0 1.11261,0.71056 l 0.02392,0.0378 a 1.6997681,1.6997681 0 0 1 0.332395,1.99036 H -93.69085 v 16.32095 a 5.4555791,5.4555791 0 0 1 4.333015,-2.18939 c 3.102973,0 5.616799,2.70689 5.616799,6.04472 0,3.33784 -2.513826,6.04673 -5.616799,6.04673 a 5.4555791,5.4555791 0 0 1 -4.333015,-2.1894 v 13.17417 h 20.148426 a 4.7888082,4.7888082 0 0 0 4.788805,-4.77686 v -32.42895 h -2.065991 a 1.3932526,1.3932526 0 0 1 -0.214959,-1.30369 z"
       id="path3811" />
    <path
       style="fill:url(#linearGradient4154);stroke-width:0.19903608"
       inkscape:connector-curvature="0"
       d="m -33.165967,73.664316 c 1.110618,-0.49958 1.932638,-1.341503 2.213284,-2.420279 a 3.0552039,3.0552039 0 0 0 0.07563,-0.398072 3.5488134,3.5488134 0 0 0 0.12738,-0.380159 c 0.280639,-1.082756 -0.02783,-2.203329 -0.760319,-3.160693 l -1.454951,5.573011 v 0 z"
       id="path3813" />
    <path
       style="fill:url(#c11e9009-8f69-4c13-bf2f-5e6c7aa88e08);stroke-width:0.19903608"
       inkscape:connector-curvature="0"
       d="M 0.41938174,71.572447 C 0.19248436,70.240896 -4.0111578,67.356863 -4.0111578,67.356863 c 0,0 -1.8570124,-0.995181 -2.8402494,-2.14561 -0.6289515,-0.732452 -0.8259991,-0.724491 -0.8857062,-0.624972 a 0.29855413,0.29855413 0 0 0 -0.1353471,-0.04578 c -0.039795,-0.02786 -0.077626,-0.05374 -0.1134486,-0.0836 v 0 A 0.26869872,0.26869872 0 0 0 -8.143147,64.184224 c -0.047769,-0.02786 -0.095537,-0.06369 -0.143306,-0.09753 -0.3184628,-0.535407 -0.4319115,-1.293734 -0.4697277,-1.954534 -0.047769,-0.833962 -0.9951829,-0.624973 -1.3196113,-0.531426 -0.222918,-0.417976 -0.43987,-0.851875 -0.644877,-1.285774 a 2.3585777,2.3585777 0 0 0 0.224912,-0.447831 c 0.5851695,-1.271841 0.457781,-2.730775 0.7125501,-4.076259 0.1831157,-0.973286 0.565265,-1.990361 0.489625,-2.937773 0,-0.02189 0,-0.04577 0,-0.06966 0,0 0,0.01 0,0.01393 a 2.5178065,2.5178065 0 0 0 -0.1612173,-0.692646 c -0.1691763,-0.425937 -0.4637548,-0.796144 -0.5971088,-1.236014 -0.212965,-0.642887 -0.07763,-1.351455 -0.254761,-2.002303 -0.220932,-0.82401 -0.917557,-1.460925 -1.70574,-1.825161 -0.788183,-0.364236 -1.665937,-0.489629 -2.529753,-0.597108 -2.159542,-0.270689 -4.454424,-0.431909 -6.424885,0.475696 a 1.1544093,1.1544093 0 0 1 -0.597108,0.161219 1.8331224,1.8331224 0 0 1 -0.54536,-0.252776 c -0.529435,-0.262727 -1.194217,-0.09554 -1.667916,0.254767 -0.473707,0.350303 -0.79615,0.855855 -1.108632,1.345484 -0.31249,0.489628 -0.654829,0.99518 -1.144462,1.315628 -0.57521,0.38414 -1.335529,0.513513 -1.791325,1.031007 a 1.6659321,1.6659321 0 0 0 -0.370203,0.859836 c 0,0 0,-0.01 0,-0.01393 a 1.086737,1.086737 0 0 0 0,0.11345 c 0,0.02986 0,0.0617 0,0.09156 0,0.02986 0,0.04976 0,0.07365 0,0.08559 0,0.16918 0,0.252776 a 5.4336851,5.4336851 0 0 0 0.384135,1.413156 1.9664765,1.9664765 0 0 0 0.521476,0.887701 c 0.692646,0.563272 1.791325,0.03184 2.627277,0.346322 0.07365,0.02588 0.143306,0.05971 0.212973,0.09156 0,0.03184 -0.02189,0.06369 -0.03182,0.09753 a 6.6060077,6.6060077 0 0 0 -0.268701,1.872931 c 0,3.737897 3.102977,6.767226 6.930443,6.767226 0.143306,0 0.284619,0 0.425931,-0.01592 0.01993,0.07365 0.04183,0.149278 0.05973,0.220931 a 7.3384605,7.3384605 0 0 1 0.199033,2.531739 l -0.04182,-0.370208 a 1.8351127,1.8351127 0 0 0 -0.288606,-0.10947 2.575527,2.575527 0 0 0 -0.859836,-0.131363 c -0.941434,-0.01194 -2.358576,0.366226 -3.871247,2.201338 0,0 -1.930652,1.072805 -2.497903,1.331552 a 0.26670835,0.26670835 0 0 0 -0.105489,0.119422 v 0 c 0,0 -2.581502,3.899116 -2.848209,5.381935 -0.266707,1.482819 -0.597108,3.184577 -0.597108,3.184577 0,0 -0.644877,1.922689 -1.060863,2.774563 -0.415986,0.851877 -0.796142,1.663944 -0.831972,2.034148 -0.03581,0.370211 0.151272,1.182278 -0.644877,1.699767 -0.796142,0.517496 -0.995175,1.922692 -0.995175,1.922692 0,0 -0.398075,0.37419 -0.961347,0.84789 h -0.01994 l 2.079931,-7.975373 0.372197,0.09355 a 0.47768661,0.47768661 0 0 0 0.489625,-0.16719 0.44385048,0.44385048 0 0 0 0.0816,-0.1652 l 0.419966,-1.616173 0.169183,-0.642887 0.03385,-0.131364 0.244816,-0.937459 -0.827992,-0.199036 -0.969305,-0.240834 -2.738739,-0.690655 0.238843,-0.915567 v 0 l 0.199033,-0.77624 v 0 l 1.251938,-4.804731 v 0 l 0.199041,-0.77425 c -0.796149,-1.031008 -2.064005,-1.86895 -3.622459,-2.25707 -3.005446,-0.746385 -5.915355,0.467735 -6.500518,2.710872 a 3.0552039,3.0552039 0 0 0 -0.07763,0.398072 2.9039365,2.9039365 0 0 0 -0.125395,0.378169 3.2005002,3.2005002 0 0 0 -0.07961,1.194216 q 0.01196,0.09753 0.02987,0.199036 a 4.0961626,4.0961626 0 0 0 0.762305,1.705739 5.4376659,5.4376659 0 0 0 0.929503,0.965325 l 0.01392,0.04379 a 1.8171995,1.8171995 0 0 1 0.260734,0.796144 c 0,0.03981 0,0.0816 0,0.123403 a 1.831132,1.831132 0 0 1 -0.238844,0.33438 l -18.36307,-4.563897 -0.199034,0.77425 v 0 l -4.135969,15.893033 v 0 a 5.9949669,5.9949669 0 0 1 1.791325,-0.94542 5.835738,5.835738 0 0 1 0.776237,-0.199042 l 0.09355,-0.01595 a 5.5471357,5.5471357 0 0 1 2.225222,0.09156 c 2.320759,0.577204 3.924989,2.553638 4.223547,4.878377 a 5.9332658,5.9332658 0 0 1 0.04972,0.885713 6.2417716,6.2417716 0 0 1 -0.119421,1.124557 c -0.995176,3.021365 -4.05237,4.846526 -7.021993,4.108105 a 5.5730104,5.5730104 0 0 1 -3.761779,-3.214432 l -0.199033,0.776237 v 0 l -4.267337,16.311011 16.263236,4.04441 v 0 l 0.175157,-0.78221 h 0.02588 a 5.4038297,5.4038297 0 0 1 -1.122564,-4.30316 c 0,-0.0259 0.01595,-0.0497 0.02588,-0.0756 0.01993,-0.0577 0.04183,-0.11344 0.06372,-0.16917 a 5.4834441,5.4834441 0 0 1 0.398074,-0.7862 c 0.07961,-0.12937 0.163211,-0.25476 0.252775,-0.37618 q 0.0836,-0.11344 0.173164,-0.22093 a 5.6546152,5.6546152 0 0 1 0.973284,-0.92751 l 0.115442,-0.0836 c 0.131368,-0.0935 0.266708,-0.18311 0.398075,-0.26671 0.08161,-0.0478 0.165197,-0.0955 0.248796,-0.13932 a 6.4547403,6.4547403 0 0 1 3.128847,-0.74639 6.8687353,6.8687353 0 0 1 1.552482,0.19904 6.436827,6.436827 0 0 1 3.839404,2.66907 5.8178248,5.8178248 0 0 1 0.326422,0.5573 5.4496081,5.4496081 0 0 1 0.563271,1.81919 5.1530443,5.1530443 0 0 1 -0.03979,1.52263 5.4177622,5.4177622 0 0 1 -2.105801,2.7248 l -0.199041,0.74838 h 0.02189 l -0.02987,0.0219 -0.199034,0.74638 3.71401,0.92353 5.260526,-20.112597 c 1.419128,-0.165205 2.14561,-0.79615 2.14561,-0.8877 0,-0.09156 1.70574,-1.036979 2.651161,-1.295727 0.46972,-0.127388 1.013094,-0.218938 1.444998,-0.310496 -0.50953,2.529745 -0.995176,4.9759 -0.951394,5.119206 0.01392,0.05574 0.10549,-0.03182 0.244816,-0.222918 a 1.0747949,1.0747949 0 0 0 -0.0179,0.222918 c 0,0.03784 0.05371,0.0099 0.123401,-0.0677 l -0.0099,0.04777 c 0,0 -2.953691,5.714324 -3.184575,6.369154 -0.230884,0.65483 0.05574,2.33071 0.965326,2.88602 a 1.9465729,1.9465729 0 0 1 0.46574,0.41201 l -0.107476,0.21297 c -0.33836,0.68667 -0.638903,1.45097 -0.585169,1.92667 a 2.6093631,2.6093631 0 0 1 -0.398068,1.71967 c 0,0 -2.557616,7.90372 -2.499895,10.1787 0.0577,2.27499 -0.909598,7.26681 -0.909598,7.26681 0,0 -1.050911,3.21642 -0.425931,4.13198 0.624972,0.91558 1.335529,4.91023 1.335529,4.91023 0,0 0.483659,0.91557 0.453802,1.6918 -0.02987,0.77625 0.455796,2.1894 0.455796,2.1894 l 1.592283,5.7402 c 0,0 -0.171169,1.52661 0.425939,2.60738 0.597108,1.08076 0.539387,0.74837 0.254769,2.63523 -0.284626,1.88687 0.342339,3.63241 1.363392,4.17976 0.398075,0.21496 0.41798,0.54337 0.294579,0.86382 v 0 c -0.260742,-0.10151 -0.477687,0.43787 -0.607061,0.87377 l -0.131367,0.12539 0.08758,0.0219 c -0.05574,0.19904 -0.08758,0.36623 -0.08758,0.36623 0,0 -2.669072,2.21925 -2.840242,3.02336 -0.17117,0.8041 -2.046094,1.22009 -2.046094,1.22009 0,0 -2.840242,0.77624 -3.582649,1.16436 a 1.3534454,1.3534454 0 0 0 -0.784204,1.07678 2.9536955,2.9536955 0 0 0 0.103504,1.08675 c 0.282625,1.13649 4.25937,1.24795 6.170116,0.94342 1.910747,-0.30452 5.849668,-1.41515 5.849668,-1.41515 0,0 4.147914,-0.39806 5.373974,-0.8877 1.226067,-0.48962 0.254769,-1.7754 0.254769,-1.7754 0,0 0,-0.0418 0,-0.11942 0.02986,-0.46375 0.115442,-2.14561 -0.179129,-2.58746 -0.220932,-0.34235 -0.214959,-1.19422 -0.183116,-1.7356 0.829979,-1.49277 -0.951393,-5.97108 -0.951393,-5.97108 0,0 0.340353,-4.37879 0.113448,-5.01969 -0.226897,-0.6409 -1.194216,-6.07459 -1.194216,-6.07459 0,0 -0.597108,-2.46804 -0.368218,-2.88403 0.228891,-0.41599 -0.143306,-1.6102 -0.143306,-1.6102 0,0 -0.973284,-1.32757 -0.885706,-1.74554 0.08757,-0.41798 -0.284626,-1.16437 -0.284626,-1.16437 0,0 2.897971,-4.32704 2.641209,-5.13115 -0.256755,-0.8041 0.115442,-2.10779 0.115442,-2.10779 0,0 0.364238,-0.61303 0.796149,-1.34747 0.537394,-0.89965 1.194217,-1.97643 1.409176,-2.3128 0.278645,-0.42793 0.9494,-2.24911 1.32359,-3.29803 0.159224,-0.44584 0.266707,-0.75236 0.266707,-0.75236 0,0 0.453803,8.16048 0.85187,8.98648 0.398074,0.826 0.995183,7.40613 0.995183,7.40613 a 4.5021962,4.5021962 0 0 1 0.284618,1.83114 c -0.05574,1.02503 0.909598,5.4914 0.909598,5.4914 0,0 0.425939,3.1607 0.141313,3.99267 -0.284619,0.83196 -0.05574,6.96626 -0.05574,6.96626 0,0 -1.562434,1.19421 -1.960501,2.10779 -0.398075,0.91358 0.05574,3.41148 0.05574,3.41148 l 0.183115,0.0856 a 5.2605237,5.2605237 0 0 0 -0.324435,1.07877 c -0.05574,0.52745 -0.909591,2.91389 -0.824006,3.24628 0.08559,0.33239 -0.368217,1.35942 -0.425939,1.88487 -0.0577,0.52546 -0.766284,1.30369 -0.824005,1.58234 a 6.7891209,6.7891209 0 0 1 -0.31249,0.73046 6.9662631,6.9662631 0 0 0 -0.368217,1.12654 c -0.284619,1.16636 3.09501,1.35942 3.09501,1.35942 4.999792,0.91557 5.909382,-2.82831 5.909382,-2.82831 0,0 0.624972,-3.32788 0.851877,-3.58264 a 0.39807217,0.39807217 0 0 0 0.03784,-0.31647 v 0 a 4.219565,4.219565 0 0 0 -0.720509,-1.56641 c -0.159232,-0.18511 -0.169184,-0.6608 -0.143306,-1.08674 a 2.5118354,2.5118354 0 0 0 0.427924,-0.0796 c 2.016236,-0.58119 1.194217,-3.93893 1.194217,-3.93893 0,0 1.3634,-2.21726 1.3634,-3.0771 0,-0.85984 0.4836521,-3.49507 0.4836521,-3.49507 1.7336112,-3.10695 1.0509105,-10.65042 1.3355365,-11.26146 0.2846185,-0.61104 -0.5971082,-2.88404 -1.3076652,-3.91106 -0.7105645,-1.02703 -0.4259385,-3.7996 0,-4.60371 0.425931,-0.8041 -0.4259385,-3.58265 -0.4259385,-3.58265 0,0 0.8240057,-5.37397 0.7961419,-6.2139 -0.027834,-0.83993 0.7105569,-3.30002 0.7105569,-3.30002 0,0 0.7384283,-1.27582 0.5672585,-1.66394 -0.1711773,-0.38813 0.567251,-1.39325 0.3702034,-1.83113 -0.1970476,-0.43789 0.1691838,-1.80327 0.5393871,-2.60738 0.1890887,-0.412 0.423945,-1.54651 0.5971083,-2.55562 0.019935,-0.11146 0.039795,-0.22292 0.057698,-0.33239 0.8279927,0.52346 1.5922913,0.91358 1.8629778,0.80809 0.5075439,-0.19904 -0.3005438,-2.78651 -0.8538629,-4.3987 0.095537,-0.0716 0.135347,-0.12539 0.095537,-0.14928 -0.3403536,-0.22292 0.037839,-1.22208 0.037839,-1.22208 2.0082773,-1.18228 1.3255766,-2.06998 0.6826932,-2.58747 -0.6428835,-0.51749 -0.2268974,-1.99036 -0.4179721,-2.58747 -0.1910746,-0.59711 0.2288909,-3.29006 0.569237,-5.250568 a 3.7578013,3.7578013 0 0 0 -0.00993,-1.285775 c 0.3642379,-0.555305 0.7404143,-1.136495 1.0708154,-1.673889 1.1345095,-1.849046 3.5587653,-10.650425 3.5587653,-10.650425 l -0.015948,-0.04581 C 1.0026032,81.223612 1.179746,80.843449 1.2752833,80.590673 2.0097246,78.679928 0.64633178,72.907882 0.41942688,71.57235 Z m -17.65052074,-5.067459 0.05176,-0.02388 c 0,0.01393 0,0.02786 0,0.0418 z M -53.423858,112.8804 Z m 25.172091,48.03735 a 0.9095949,0.9095949 0 0 1 -0.360251,-0.0716 z"
       id="path3815" />
    <path
       style="fill:#fec2be;stroke-width:0.19903608"
       inkscape:connector-curvature="0"
       d="m -49.293863,96.770415 c 1.638067,0.620993 5.445628,0.688667 7.137436,0.688667 0.513517,0 0.831972,0 0.831972,0 l 1.084747,-2.209297 -1.084747,-1.841087 c 0,0 -0.995183,-0.274666 -2.31678,-0.51351 -1.950556,-0.350306 -4.619629,-0.624979 -5.891471,0.163204 -2.133664,1.319611 -1.894821,2.90195 0.238843,3.712023 z"
       id="path3817" />
    <path
       style="opacity:0.1;stroke-width:0.19903608"
       inkscape:connector-curvature="0"
       d="m -42.158413,97.459082 c 0.513509,0 0.831964,0 0.831964,0 l 1.084748,-2.209297 -1.082754,-1.841087 c 0,0 -0.995183,-0.274666 -2.31678,-0.51351 1.072801,0.788183 3.652309,2.503868 1.482822,4.563894 z"
       id="path3819" />
    <path
       style="fill:#4c4981;stroke-width:0.19903608"
       inkscape:connector-curvature="0"
       d="m -24.191431,70.344394 -0.477687,-0.55332 c 0,0 -2.466059,3.901107 -2.7248,5.373975 -0.258748,1.472866 -0.597108,3.164673 -0.597108,3.164673 0,0 -0.624979,1.91473 -1.031013,2.760634 -0.406034,0.845904 -0.772258,1.655978 -0.80808,2.024195 -0.03581,0.368218 0.147285,1.178291 -0.626966,1.693794 -0.774251,0.515503 -0.955373,1.914726 -0.955373,1.914726 0,0 -2.798446,2.722814 -4.271316,2.786508 -1.472869,0.06372 -5.704375,0.810081 -5.55709,1.546516 0.147293,0.736427 -1.765447,1.176298 -2.539698,1.361407 -0.774251,0.185102 4.9759,2.388433 1.620155,5.226681 0,0 2.133665,0.441864 2.354596,0.955373 0.220932,0.513517 2.46606,-0.292577 2.46606,-0.292577 0,0 0.479672,-1.142468 2.135657,-1.216115 1.655978,-0.07365 2.501882,-0.810074 2.501882,-0.919543 0,-0.109469 1.655978,-1.031005 2.587467,-1.287768 0.931489,-0.256754 2.133672,-0.368217 2.171488,-0.626958 0.03784,-0.258748 5.52126,-23.922153 5.52126,-23.922153 z"
       id="path3821" />
    <path
       style="opacity:0.05;stroke-width:0.19903608"
       inkscape:connector-curvature="0"
       d="m -24.191431,70.344394 -0.477687,-0.55332 c 0,0 -2.466059,3.901107 -2.7248,5.373975 -0.258748,1.472866 -0.597108,3.164673 -0.597108,3.164673 0,0 -0.624979,1.91473 -1.031013,2.760634 -0.406034,0.845904 -0.772258,1.655978 -0.80808,2.024195 -0.03581,0.368218 0.147285,1.178291 -0.626966,1.693794 -0.774251,0.515503 -0.955373,1.914726 -0.955373,1.914726 0,0 -2.798446,2.722814 -4.271316,2.786508 -1.472869,0.06372 -5.704375,0.810081 -5.55709,1.546516 0.147293,0.736427 -1.765447,1.176298 -2.539698,1.361407 -0.774251,0.185102 4.9759,2.388433 1.620155,5.226681 0,0 2.133665,0.441864 2.354596,0.955373 0.220932,0.513517 2.46606,-0.292577 2.46606,-0.292577 0,0 0.479672,-1.142468 2.135657,-1.216115 1.655978,-0.07365 2.501882,-0.810074 2.501882,-0.919543 0,-0.109469 1.655978,-1.031005 2.587467,-1.287768 0.931489,-0.256754 2.133672,-0.368217 2.171488,-0.626958 0.03784,-0.258748 5.52126,-23.922153 5.52126,-23.922153 z"
       id="path3823" />
    <path
       style="fill:#000000;fill-opacity:1;stroke-width:0.19903608"
       inkscape:connector-curvature="0"
       d="m -18.459192,172.47976 c 4.858472,0.91159 5.742192,-2.81635 5.742192,-2.81635 0,0 0.607061,-3.31197 0.827993,-3.56076 a 0.39807217,0.39807217 0 0 0 0.03784,-0.31448 v 0 a 4.3330156,4.3330156 0 0 0 -0.700604,-1.56044 c -0.302538,-0.35826 -0.05574,-1.84904 -0.05574,-1.84904 l -5.630729,-1.43506 c 0,0 -0.497591,1.13052 -0.551333,1.65598 -0.05371,0.52546 -0.88372,2.89797 -0.796142,3.23036 0.08758,0.33239 -0.358265,1.35145 -0.413992,1.87691 -0.05574,0.52545 -0.744394,1.29772 -0.79615,1.57238 a 6.5064897,6.5064897 0 0 1 -0.304523,0.72848 7.2906919,7.2906919 0 0 0 -0.358265,1.12057 c -0.284619,1.15839 2.999473,1.35145 2.999473,1.35145 z"
       id="path3825" />
    <path
       style="opacity:0.1;stroke-width:0.19903608"
       inkscape:connector-curvature="0"
       d="m -18.459192,172.47976 c 4.858472,0.91159 5.742192,-2.81635 5.742192,-2.81635 0,0 0.607061,-3.31197 0.827993,-3.56076 a 0.39807217,0.39807217 0 0 0 0.03784,-0.31448 l -1.170332,3.35177 c 0,0 -0.965326,2.01425 -4.553948,1.71171 -2.042107,-0.17316 -3.047242,-0.55133 -3.534881,-0.8459 a 7.2906919,7.2906919 0 0 0 -0.358265,1.12057 c -0.274666,1.16038 3.009426,1.35344 3.009426,1.35344 z"
       id="path3827" />
    <path
       style="opacity:0.1;stroke-width:0.19903608"
       inkscape:connector-curvature="0"
       d="m -14.677501,167.23516 c 0,0 -1.214122,0.0278 -1.297721,-0.96532 z"
       id="path3829" />
    <polygon
       style="fill:#6c63ff"
       points="614.02,468.06 613.17,471.99 609.58,471.08 610.15,467.07 "
       id="polygon3831"
       transform="matrix(0.19903609,0,0,0.19903609,-173.88846,20.095744)" />
    <polygon
       style="opacity:0.1"
       points="614.02,468.06 613.17,471.99 609.58,471.08 610.15,467.07 "
       id="polygon3833"
       transform="matrix(0.19903609,0,0,0.19903609,-173.88846,20.095744)" />
    <rect
       style="fill:#3a3768;stroke-width:0.19903608"
       x="-82.532967"
       y="-9.7679796"
       width="0.96333468"
       height="0.82998049"
       transform="rotate(-75.720001)"
       id="rect3835" />
    <rect
       style="fill:#3a3768;stroke-width:0.19903608"
       x="-82.531952"
       y="-13.494351"
       width="0.96333468"
       height="2.7526691"
       transform="rotate(-75.720001)"
       id="rect3837" />
    <rect
       style="fill:#3a3768;stroke-width:0.19903608"
       x="-82.534431"
       y="-10.742572"
       width="0.96333468"
       height="0.97328651"
       transform="rotate(-75.720001)"
       id="rect3839" />
    <path
       style="fill:#6c63ff;stroke-width:0.19903608"
       inkscape:connector-curvature="0"
       d="m -33.156014,75.598947 c -0.06372,0.02986 -0.125395,0.0617 -0.187095,0.08758 l 0.155252,0.03981 -0.238844,0.933478 -1.180284,-0.300544 a 1.3932526,1.3932526 0 0 1 0.121407,-1.311648 1.6460284,1.6460284 0 0 1 0.995183,-0.728472 5.1749383,5.1749383 0 0 0 0.738421,-0.27467 z"
       id="path3841" />
    <path
       style="fill:#3a3768;stroke-width:0.19903608"
       inkscape:connector-curvature="0"
       d="m -30.339657,79.629428 0.360259,0.09355 a 0.45579264,0.45579264 0 0 0 0.555312,-0.3304 l 0.402047,-1.608212 -0.796142,-0.199036 z"
       id="path3843" />
    <path
       style="fill:#3a3768;stroke-width:0.19903608"
       inkscape:connector-curvature="0"
       d="m -30.614323,71.636138 c -0.274673,1.074795 -1.072809,1.912737 -2.151583,2.408337 l 1.413155,-5.553106 c 0.71653,0.953382 1.017074,2.069975 0.738428,3.144769 z"
       id="path3845" />
    <path
       style="fill:#3a3768;stroke-width:0.19903608"
       inkscape:connector-curvature="0"
       d="m -30.841228,79.502044 a 0.45579264,0.45579264 0 0 1 -0.328407,-0.553319 l 0.410013,-1.610202 -2.667079,-0.678714 -8.134612,31.953251 a 5.3063021,5.3063021 0 0 1 -1.733603,6.81102 l -0.189081,0.74439 3.608527,0.92552 9.535813,-37.456601 z"
       id="path3847" />
    <path
       style="fill:#3a3768;stroke-width:0.19903608"
       inkscape:connector-curvature="0"
       d="m -31.169635,78.948725 a 0.45579264,0.45579264 0 0 0 0.328407,0.553319 l 0.501571,0.127384 0.521476,-2.050072 -0.941441,-0.240833 z"
       id="path3849" />
    <path
       style="fill:#6c63ff;stroke-width:0.19903608"
       inkscape:connector-curvature="0"
       d="m -34.487564,75.047617 a 1.6619513,1.6619513 0 0 1 0.995176,-0.728472 5.3023213,5.3023213 0 0 0 0.736434,-0.27467 l 1.415149,-5.553106 a 6.3273572,6.3273572 0 0 0 -3.520949,-2.245127 c -2.919861,-0.744396 -5.750151,0.463754 -6.317409,2.696939 -0.268693,1.052901 0.01392,2.145608 0.692645,3.085058 a 5.3739743,5.3739743 0 0 0 0.901639,0.961345 l 0.01392,0.04379 a 1.6997681,1.6997681 0 0 1 -0.17117,2.018226 l -17.845574,-4.543993 -4.026507,15.819392 a 5.4615502,5.4615502 0 0 1 4.727112,-1.062857 c 3.007432,0.766292 4.776866,4.010574 3.952853,7.244911 -0.824006,3.234337 -3.92101,5.238635 -6.928442,4.482295 a 5.4595598,5.4595598 0 0 1 -3.656296,-3.198506 l -4.133976,16.233378 15.80744,4.02252 a 5.4496081,5.4496081 0 0 1 -1.011101,-4.67336 c 0.766293,-3.00545 4.008589,-4.77687 7.244912,-3.95286 a 6.2238584,6.2238584 0 0 1 4.050383,3.19054 l 8.134612,-31.953248 -1.168346,-0.300544 a 1.3932526,1.3932526 0 0 1 0.107483,-1.311649 z"
       id="path3851" />
    <path
       style="fill:#6c63ff;stroke-width:0.19903608"
       inkscape:connector-curvature="0"
       d="m -33.189851,75.72633 0.03385,-0.127383 c -0.06169,0.02986 -0.123401,0.0617 -0.187095,0.08957 z"
       id="path3853" />
    <g
       style="opacity:0.1"
       id="g3859"
       transform="matrix(0.19903609,0,0,0.19903609,-173.88846,20.095744)">
      <path
         inkscape:connector-curvature="0"
         d="m 860.19,324.78 -4.73,-1.21 -13.39,-3.41 v 0 l 0.17,-0.64 v 0 l 2,-7.81 a 26,26 0 0 1 -3.71,1.38 8.27,8.27 0 0 0 -5,3.66 9.67,9.67 0 0 0 -0.74,1.58 9.59,9.59 0 0 1 0.73,-1.58 8.35,8.35 0 0 1 5,-3.66 26.64,26.64 0 0 0 3.7,-1.38 l 7.11,-27.9 a 31.79,31.79 0 0 0 -17.69,-11.28 c -14.67,-3.74 -28.89,2.33 -31.74,13.55 -1.35,5.29 0.07,10.78 3.48,15.5 a 27,27 0 0 0 4.53,4.83 l 0.07,0.22 a 8.54,8.54 0 0 1 -0.86,10.14 l -89.66,-22.83 -20.23,79.48 A 27.44,27.44 0 0 1 723,368.08 c 15.11,3.85 24,20.15 19.86,36.4 -4.14,16.25 -19.7,26.32 -34.81,22.52 a 27.43,27.43 0 0 1 -18.37,-16.07 l -20.77,81.56 79.42,20.21 a 27.38,27.38 0 0 1 -5.08,-23.48 c 3.85,-15.1 20.14,-24 36.4,-19.86 a 31.27,31.27 0 0 1 20.35,16.03 26.66,26.66 0 0 1 -8.71,34.22 l -0.95,3.74 18.13,4.65 47.91,-188.19 1.81,0.47 a 2.29,2.29 0 0 0 2.79,-1.66 l 2.02,-8.12 1.19,-4.69 z m -18.44,-5 c -0.15,0.07 -0.3,0.15 -0.45,0.21 v 0 z m -6.8,3.59 v 0 l 5.93,1.51 v 0 z"
         transform="translate(-135.16,-40.66)"
         id="path3855" />
      <path
         inkscape:connector-curvature="0"
         d="m 855,299.61 c 1.37,-5.4 -0.14,-11 -3.71,-15.8 l -7.1,27.9 c 5.45,-2.49 9.46,-6.71 10.81,-12.1 z"
         transform="translate(-135.16,-40.66)"
         id="path3857" />
    </g>
    <rect
       style="fill:#3a3768;stroke-width:0.19903608"
       x="-81.738945"
       y="-9.7684736"
       width="0.96333468"
       height="0.82998049"
       transform="rotate(-75.720001)"
       id="rect3861" />
    <rect
       style="fill:#3a3768;stroke-width:0.19903608"
       x="-81.737915"
       y="-13.494844"
       width="0.96333468"
       height="2.7526691"
       transform="rotate(-75.720001)"
       id="rect3863" />
    <rect
       style="fill:#3a3768;stroke-width:0.19903608"
       x="-81.736473"
       y="-10.743559"
       width="0.96333468"
       height="0.97328651"
       transform="rotate(-75.720001)"
       id="rect3865" />
    <path
       style="fill:#6c63ff;stroke-width:0.19903608"
       inkscape:connector-curvature="0"
       d="m -32.958967,74.826687 -0.187095,0.08957 0.153259,0.03782 -0.236858,0.939451 -1.180284,-0.300545 a 1.3813104,1.3813104 0 0 1 0.119421,-1.311647 1.6559802,1.6559802 0 0 1 0.995183,-0.728472 5.1490635,5.1490635 0 0 0 0.736435,-0.27467 z"
       id="path3867" />
    <path
       style="fill:#3a3768;stroke-width:0.19903608"
       inkscape:connector-curvature="0"
       d="m -30.144603,78.859158 0.362252,0.09156 a 0.45579264,0.45579264 0 0 0 0.561278,-0.3304 l 0.410014,-1.608212 -0.796142,-0.199036 z"
       id="path3869" />
    <path
       style="fill:#3a3768;stroke-width:0.19903608"
       inkscape:connector-curvature="0"
       d="m -30.415289,70.865869 c -0.27268,1.072805 -1.070816,1.910747 -2.151576,2.406346 l 1.415141,-5.553107 c 0.712551,0.953383 1.013094,2.069976 0.736435,3.146761 z"
       id="path3871" />
    <path
       style="fill:#3a3768;stroke-width:0.19903608"
       inkscape:connector-curvature="0"
       d="m -30.64418,78.731775 a 0.45579264,0.45579264 0 0 1 -0.328408,-0.555311 l 0.398068,-1.608211 -2.655141,-0.674732 -8.13261,31.949269 a 5.2983406,5.2983406 0 0 1 -1.733604,6.80903 l -0.189089,0.74439 3.610514,0.91955 9.533834,-37.456602 z"
       id="path3873" />
    <path
       style="fill:#3a3768;stroke-width:0.19903608"
       inkscape:connector-curvature="0"
       d="m -30.972588,78.176464 a 0.45579264,0.45579264 0 0 0 0.328408,0.555311 l 0.499577,0.127383 0.525456,-2.052062 -0.943428,-0.238843 z"
       id="path3875" />
    <path
       style="fill:#57a4ff;fill-opacity:1;stroke-width:0.19903608"
       inkscape:connector-curvature="0"
       d="m -34.290524,74.275357 a 1.6559802,1.6559802 0 0 1 0.995183,-0.728472 5.1490635,5.1490635 0 0 0 0.736435,-0.27467 l 1.413155,-5.553107 a 6.3253668,6.3253668 0 0 0 -3.518955,-2.245127 c -2.921855,-0.742405 -5.750159,0.463754 -6.319396,2.698929 -0.266714,1.050911 0.01392,2.14362 0.694632,3.08307 a 5.3859165,5.3859165 0 0 0 0.901632,0.963334 l 0.01392,0.0418 a 1.7037489,1.7037489 0 0 1 -0.171177,2.018226 l -17.84756,-4.542004 -4.032473,15.8174 a 5.4575695,5.4575695 0 0 1 4.737057,-1.060862 c 3.005446,0.764298 4.776866,4.008588 3.95286,7.244918 -0.824013,3.236323 -3.923003,5.236634 -6.938402,4.472335 a 5.4655309,5.4655309 0 0 1 -3.650323,-3.2005 l -4.131989,16.233383 15.805461,4.02451 a 5.4496081,5.4496081 0 0 1 -1.009114,-4.67337 c 0.764298,-3.00744 4.008588,-4.77686 7.244911,-3.95286 a 6.2099259,6.2099259 0 0 1 4.052377,3.2005 l 8.132611,-31.949268 -1.180285,-0.300544 a 1.3932526,1.3932526 0 0 1 0.119422,-1.317619 z"
       id="path3877" />
    <path
       style="fill:#6c63ff;stroke-width:0.19903608"
       inkscape:connector-curvature="0"
       d="m -32.992803,74.95606 0.03182,-0.129373 c -0.06169,0.02986 -0.123401,0.0617 -0.185101,0.08957 z"
       id="path3879" />
    <path
       style="fill:#000000;fill-opacity:1;stroke-width:0.19903608"
       inkscape:connector-curvature="0"
       d="m -35.789264,134.60917 c 0.597109,0.9096 1.297713,4.88633 1.297713,4.88633 0,0 0.469728,0.9096 0.441864,1.68385 -0.02783,0.77425 0.441857,2.18939 0.441857,2.18939 l 1.546516,5.71433 c 0,0 -0.167191,1.51865 0.413992,2.58747 0.581183,1.06883 0.523462,0.74439 0.248796,2.62131 -0.274674,1.87691 0.330401,3.61648 1.32359,4.17976 0.99319,0.56327 -0.441863,1.84904 -0.441863,1.84904 0,0 6.349252,1.71171 7.674836,0.66279 1.325577,-1.04892 -0.690659,-6.23978 -0.690659,-6.23978 0,0 0.332394,-4.36088 0.111462,-4.99581 -0.220932,-0.63492 -1.160379,-6.04472 -1.160379,-6.04472 0,0 -0.579197,-2.4581 -0.358265,-2.8721 0.220932,-0.41399 -0.137333,-1.59228 -0.137333,-1.59228 0,0 -0.939456,-1.32559 -0.855857,-1.73958 0.08359,-0.41399 -0.276659,-1.15839 -0.276659,-1.15839 0,0 2.810384,-4.31908 2.561588,-5.12916 -0.248788,-0.81007 0.109477,-2.09784 0.109477,-2.09784 l 0.784196,-1.3415 c 0.523469,-0.89566 1.1564,-1.96847 1.369373,-2.30285 0.270687,-0.42593 0.923523,-2.23716 1.287761,-3.28211 l 0.258748,-0.74837 c 0,0 0.441856,8.11669 0.827993,8.94469 0.386128,0.82798 0.965325,7.36433 0.965325,7.36433 a 4.57783,4.57783 0 0 1 0.27666,1.82118 c -0.05574,1.02105 0.88372,5.46552 0.88372,5.46552 0,0 0.413993,3.14677 0.137333,3.98073 -0.27666,0.83396 -0.05574,6.93043 -0.05574,6.93043 0,0 -1.518652,1.19422 -1.904781,2.09785 -0.386128,0.90362 0.05574,3.38361 0.05574,3.38361 0,0 4.416608,2.2093 6.36915,1.63011 1.952549,-0.5792 1.158394,-3.92102 1.158394,-3.92102 0,0 1.3255762,-2.20731 1.3255762,-3.06316 0,-0.85585 0.4816661,-3.4692 0.4816661,-3.4692 1.683849,-3.09103 1.0210607,-10.59867 1.2977203,-11.20573 0.2766595,-0.60706 -0.5811904,-2.87209 -1.269849,-3.89314 -0.6886661,-1.02107 -0.4140001,-3.7817 0,-4.57784 0.4139925,-0.79614 -0.4259385,-3.56474 -0.4259385,-3.56474 0,0 0.7961418,-5.35605 0.7722575,-6.18404 -0.023847,-0.828 0.6906596,-3.2841 0.6906596,-3.2841 0,0 0.7165299,-1.26985 0.5513256,-1.65797 -0.1651968,-0.38812 0.5513331,-1.37932 0.358265,-1.82118 -0.1930607,-0.44186 0.1671903,-1.79132 0.5254552,-2.58747 0.1831157,-0.41002 0.4120066,-1.54054 0.5971083,-2.54169 0.1691838,-0.95338 0.2945709,-1.79132 0.2945709,-1.79132 l -4.5559342,-3.67222 -11.372921,-2.98554 -4.277289,-1.37932 -4.169805,6.56819 a 16.697138,16.697138 0 0 0 -0.810074,1.47883 c -0.328407,0.6827 -0.620992,1.44302 -0.569244,1.91672 a 2.6491703,2.6491703 0 0 1 -0.386129,1.71172 c 0,0 -2.485964,7.8659 -2.430229,10.13093 0.05574,2.26503 -0.88372,7.23098 -0.88372,7.23098 0,0 -1.021061,3.2005 -0.408027,4.11408 z"
       id="path3881" />
    <path
       style="fill:#fec2be;stroke-width:0.19903608"
       inkscape:connector-curvature="0"
       d="m -18.978674,70.619064 c 0.175149,-0.07165 12.1830019,-5.031632 10.5290101,-6.016861 -0.981251,-0.585166 -2.1893991,-3.065155 -3.0173921,-5.005757 -0.577203,-1.355436 -0.969305,-2.448144 -0.969305,-2.448144 0,0 -9.637324,-1.71171 -6.188028,4.19568 a 10.946985,10.946985 0 0 1 1.216108,2.909908 c 0.983237,4.02451 -1.490781,6.291531 -1.570393,6.365174 z"
       id="path3883" />
    <path
       style="opacity:0.1;stroke-width:0.19903608"
       inkscape:connector-curvature="0"
       d="m -18.624389,61.343982 a 10.946985,10.946985 0 0 1 1.216108,2.909908 6.7294101,6.7294101 0 0 0 5.690443,-3.998635 6.408962,6.408962 0 0 0 0.250782,-0.658809 c -0.577203,-1.355436 -0.969305,-2.448144 -0.969305,-2.448144 0,0 -9.637324,-1.71171 -6.188028,4.19568 z"
       id="path3885" />
    <path
       style="fill:#fec2be;stroke-width:0.19903608"
       inkscape:connector-curvature="0"
       d="m -24.615376,57.313502 a 6.7333908,6.7333908 0 1 0 0.262727,-1.864968 6.7353812,6.7353812 0 0 0 -0.262727,1.864968 z"
       id="path3887" />
    <path
       style="opacity:0.1;stroke-width:0.19903608"
       inkscape:connector-curvature="0"
       d="m -31.111914,109.50276 c 0.704584,0.64089 0.975278,1.86098 0.975278,1.86098 0,0 3.313949,2.26305 3.093017,0.82799 -0.220924,-1.43505 1.711713,-7.23297 1.711713,-7.23297 l -0.220932,7.89576 c 0,0 10.59867,-0.49759 11.372921,-1.26985 0.774251,-0.77225 5.3003352,-2.25308 5.3003352,-2.25308 0,0 1.3932501,1.11261 2.6591196,1.95652 0.1691838,-0.95338 0.2945709,-1.79133 0.2945709,-1.79133 l -4.5559337,-3.67221 -11.372921,-2.98554 -4.277289,-1.37932 -4.169805,6.56819 a 16.697138,16.697138 0 0 0 -0.810074,1.47486 z"
       id="path3889" />
    <path
       style="fill:#ffffff;stroke-width:0.19903608"
       inkscape:connector-curvature="0"
       d="m -31.460227,108.87977 c 0.883721,0.55133 1.214122,2.04212 1.214122,2.04212 0,0 3.311955,2.26303 3.091031,0.82798 -0.220932,-1.43505 1.711705,-7.23296 1.711705,-7.23296 l -0.220924,7.89576 c 0,0 10.600656,-0.49362 11.370927,-1.26985 0.770272,-0.77625 5.3003355,-2.26305 5.3003355,-2.26305 0,0 3.9210097,3.14677 4.6375396,2.8701 0.7165299,-0.27666 -1.269849,-5.63073 -1.269849,-5.63073 L -7.6654604,74.761005 c 0,0 0.5513256,-9.330812 -0.2766596,-9.663202 a 1.1942165,1.1942165 0 0 1 -0.34832,-0.216949 c -0.5453526,-0.489629 -0.7085635,-1.48481 -0.7563321,-2.320761 -0.053712,-0.99518 -1.3793179,-0.49759 -1.3793179,-0.49759 l 0.7722572,0.995181 -6.8408712,4.159853 -0.05973,0.03582 a 7.5633716,7.5633716 0 0 0 -0.822013,-0.372198 c -0.597108,-0.232871 -1.411169,-0.451811 -1.938617,-0.234862 a 1.87492,1.87492 0 0 0 -0.724489,0.652838 8.2042676,8.2042676 0 0 0 -0.931489,1.886862 l -2.477998,4.193691 c 0,0 -1.269849,5.57301 -1.269849,5.797921 0,0.224911 -0.386136,5.300332 -0.827992,5.851658 -0.441864,0.551333 -0.88372,3.311963 -0.718524,4.139955 0.165205,0.827985 -0.276659,3.921018 -0.276659,3.921018 -1.821175,1.490781 -2.758637,6.56819 -2.758637,6.56819 0,0 -2.878065,5.69243 -3.104963,6.34925 -0.226904,0.65681 0.06169,2.32872 0.945421,2.87209 z"
       id="path3891" />
    <path
       style="opacity:0.1;stroke-width:0.19903608"
       inkscape:connector-curvature="0"
       d="m -16.494704,67.436477 c 0.670755,0.995181 2.609365,2.388433 2.609365,2.388433 l 5.594899,-4.727107 c -0.5453526,-0.489628 -0.7085635,-1.484809 -0.7563321,-2.322751 -0.053712,-0.99518 -1.3793179,-0.4956 -1.3793179,-0.4956 l 0.161217,0.199036 a 0.89168165,0.89168165 0 0 1 -0.240837,1.307668 z"
       id="path3893" />
    <path
       style="fill:#ffffff;stroke-width:0.19903608"
       inkscape:connector-curvature="0"
       d="m -16.494704,67.215547 c 0.670755,0.99518 2.609365,2.388433 2.609365,2.388433 l 5.594899,-4.727107 c -0.5453526,-0.489629 -0.7085635,-1.484809 -0.7563321,-2.32076 -0.053712,-0.995181 -1.3793179,-0.497591 -1.3793179,-0.497591 l 0.161217,0.199036 a 0.88969132,0.88969132 0 0 1 -0.240837,1.305677 z"
       id="path3895" />
    <path
       style="opacity:0.1;stroke-width:0.19903608"
       inkscape:connector-curvature="0"
       d="m -19.08217,67.959942 c 0.722495,0.863817 1.747535,1.845065 1.699766,1.353446 -0.04777,-0.49162 0.611041,-1.576366 1.031006,-2.062015 a 3.0552039,3.0552039 0 0 0 -2.006284,0.05573 1.858997,1.858997 0 0 0 -0.724488,0.652839 z"
       id="path3897" />
    <path
       style="fill:#ffffff;stroke-width:0.19903608"
       inkscape:connector-curvature="0"
       d="m -19.19164,67.627552 c 0.722496,0.865806 1.745542,1.845064 1.697774,1.355435 -0.04777,-0.489629 0.543366,-1.287763 0.963332,-1.773411 -0.597108,-0.232873 -1.409176,-0.451812 -1.93861,-0.232873 a 1.8510356,1.8510356 0 0 0 -0.722496,0.650849 z"
       id="path3899" />
    <circle
       style="fill:#57a4ff;fill-opacity:1;stroke-width:0.19903608"
       cx="-17.382404"
       cy="71.779442"
       r="0.44186011"
       id="circle3901" />
    <circle
       style="fill:#57a4ff;fill-opacity:1;stroke-width:0.19903608"
       cx="-20.732185"
       cy="83.70369"
       r="0.44186011"
       id="circle3903" />
    <circle
       style="fill:#57a4ff;fill-opacity:1;stroke-width:0.19903608"
       cx="-24.521826"
       cy="95.777222"
       r="0.44186011"
       id="circle3905" />
    <circle
       style="fill:#57a4ff;fill-opacity:1;stroke-width:0.19903608"
       cx="-24.633284"
       cy="108.9156"
       r="0.44186011"
       id="circle3907" />
    <circle
       style="fill:#57a4ff;fill-opacity:1;stroke-width:0.19903608"
       cx="-19.332952"
       cy="77.410172"
       r="0.44186011"
       id="circle3909" />
    <circle
       style="fill:#57a4ff;fill-opacity:1;stroke-width:0.19903608"
       cx="-22.314522"
       cy="89.666817"
       r="0.44186011"
       id="circle3911" />
    <circle
       style="fill:#57a4ff;fill-opacity:1;stroke-width:0.19903608"
       cx="-25.222435"
       cy="101.70254"
       r="0.44186011"
       id="circle3913" />
    <circle
       style="fill:#57a4ff;fill-opacity:1;stroke-width:0.19903608"
       cx="-24.559649"
       cy="110.38846"
       r="0.44186011"
       id="circle3915" />
    <path
       style="opacity:0.1;stroke-width:0.19903608"
       inkscape:connector-curvature="0"
       d="m -8.29044,65.145572 c 0,0 -0.073647,-0.662791 0.8817343,0.479677 0.9553732,1.142467 2.7606299,2.133667 2.7606299,2.133667 0,0 4.08621401,2.87209 4.30713843,4.195681 0.22093194,1.32359 1.54452257,7.067771 0.845904,8.980507 -0.69861855,1.91274 -6.04074213,11.080344 -6.04074213,11.080344 0,0 1.3932501,1.657971 1.0688219,3.60852 -0.3244282,1.950556 -0.7364348,4.637542 -0.5533191,5.226692 0.1831157,0.58915 -0.2209319,2.06002 0.3980747,2.57552 0.6189991,0.51551 1.2877604,1.39325 -0.6627958,2.57553 0,0 -0.3682174,0.99518 -0.037839,1.21611 0.3304012,0.22093 -4.8942942,2.50188 -6.9662582,1.28777 -2.071971,-1.21412 -5.772049,-10.931066 -5.851661,-13.102547 -0.07962,-2.171488 1.140475,-9.354698 1.803263,-11.042527 0.662789,-1.687829 2.651161,-8.281892 3.497065,-9.752769 0.845904,-1.470876 4.5499612,-9.462175 4.5499612,-9.462175 z"
       id="path3917" />
    <path
       style="fill:#4c4981;stroke-width:0.19903608"
       inkscape:connector-curvature="0"
       d="m -8.071494,65.145572 c 0,0 -0.073647,-0.662791 0.8837202,0.479677 0.9573592,1.142467 2.7606299,2.133667 2.7606299,2.133667 0,0 4.08620653,2.87209 4.30713847,4.195681 0.22093194,1.32359 1.54452253,7.067771 0.845904,8.980507 -0.69861855,1.91274 -6.03676267,11.080344 -6.03676267,11.080344 0,0 1.3932501,1.657971 1.0688219,3.60852 -0.3244282,1.950556 -0.7364348,4.637542 -0.5533191,5.226692 0.1831082,0.58915 -0.2209319,2.06002 0.3980672,2.57552 0.6190066,0.51551 1.2877679,1.39325 -0.6627883,2.57553 0,0 -0.3682174,0.99518 -0.037839,1.21611 0.3304012,0.22093 -4.8942943,2.50188 -6.9662656,1.28777 -2.071964,-1.21412 -5.772041,-10.931066 -5.851661,-13.102547 -0.07961,-2.171488 1.140483,-9.354698 1.803271,-11.042527 0.662788,-1.687829 2.651161,-8.281892 3.497065,-9.752769 0.845904,-1.470876 4.5439952,-9.462175 4.5439952,-9.462175 z"
       id="path3919" />
    <path
       style="opacity:0.1;stroke-width:0.19903608"
       inkscape:connector-curvature="0"
       d="m -6.598632,71.411228 c 0,0 -3.16467,3.497064 -3.0552008,5.815834 0,0 -0.035808,-3.75581 3.0552008,-5.815834 z"
       id="path3921" />
    <path
       style="opacity:0.1;stroke-width:0.19903608"
       inkscape:connector-curvature="0"
       d="m -10.977423,77.153419 c 0,0.10947 -2.135658,8.058974 -2.024196,9.054149 0.111456,0.995183 -0.626965,3.936935 -0.626965,3.936935 l -0.995183,-0.256754 c 0,0 0.772265,-4.086214 0.91955,-5.594907 0.147286,-1.508692 2.726794,-7.139423 2.726794,-7.139423 z"
       id="path3923" />
    <path
       style="opacity:0.1;stroke-width:0.19903608"
       inkscape:connector-curvature="0"
       d="m -11.825321,99.825624 c 0.07365,0.109469 5.0435808,5.740196 3.6443577,6.146236 -1.3992306,0.40603 -3.6443577,-6.146236 -3.6443577,-6.146236 z"
       id="path3925" />
    <path
       style="opacity:0.1;stroke-width:0.19903608"
       inkscape:connector-curvature="0"
       d="m -7.7391069,98.384598 c 0.1094692,0.07365 1.9903584,4.048402 2.2073108,2.985542 0.2169525,-1.06285 -1.6181615,2.90792 -1.9127399,-0.0358 z"
       id="path3927" />
    <path
       style="opacity:0.1;stroke-width:0.19903608"
       inkscape:connector-curvature="0"
       d="m -17.278907,66.40547 c 0,0 -2.052059,-1.251937 -4.629581,1.950554 0,0 -1.87691,1.066834 -2.428235,1.32558 -0.551333,0.258747 -1.178299,7.103598 -1.178299,7.103598 0,0 -1.214121,2.943744 -0.88372,4.637541 0.330401,1.693794 -0.955373,7.507639 -0.955373,7.507639 0,0 -2.137644,10.449398 -2.065991,10.747956 0.07162,0.298551 2.17148,-3.27614 2.135658,-5.04358 -0.03581,-1.767441 1.765447,-7.286707 2.024195,-7.619102 0.258748,-0.332387 2.024195,-9.788594 2.024195,-9.788594 0,0 1.435053,-4.012567 2.354596,-5.338148 0.919551,-1.32558 2.062019,-3.827463 2.539706,-4.269323 a 4.864442,4.864442 0 0 1 1.140475,-0.736434 z"
       id="path3929" />
    <path
       style="fill:#4c4981;stroke-width:0.19903608"
       inkscape:connector-curvature="0"
       d="m -17.253029,66.40547 c 0,0 -2.300863,-1.251937 -4.876383,1.950554 0,0 -1.878904,1.066834 -2.430237,1.32558 -0.551325,0.258747 -1.178291,7.103598 -1.178291,7.103598 0,0 -1.214121,2.943744 -0.88372,4.637541 0.330401,1.693794 -0.955373,7.507639 -0.955373,7.507639 0,0 -2.135658,10.453378 -2.062012,10.747956 0.07365,0.294571 2.171481,-3.27614 2.135658,-5.04358 -0.03581,-1.767441 1.765447,-7.286707 2.024195,-7.619102 0.258749,-0.332387 2.030169,-9.788594 2.030169,-9.788594 0,0 1.435045,-4.012567 2.354596,-5.338148 0.919543,-1.32558 2.062011,-3.827463 2.539698,-4.269323 0.477686,-0.44186 1.361407,-0.736434 1.361407,-0.736434 z"
       id="path3931" />
    <path
       style="fill:#fec2be;stroke-width:0.19903608"
       inkscape:connector-curvature="0"
       d="m -27.356101,89.408069 c 0,0 -4.378799,-2.870099 -6.496538,-1.452965 -2.117747,1.417142 -5.573016,3.423426 -2.171488,4.87639 3.401527,1.452965 8.114707,1.174312 8.114707,1.174312 z"
       id="path3933" />
    <path
       style="opacity:0.1;stroke-width:0.19903608"
       inkscape:connector-curvature="0"
       d="m -24.310853,117.10593 c 0.652843,1.39326 1.194217,8.43515 1.556461,10.66635 0.523469,-0.89566 1.1564,-1.96847 1.369373,-2.30285 0.270687,-0.42593 0.923523,-2.23716 1.287761,-3.28211 -0.415986,-1.0111 -1.56442,-3.90906 -1.56442,-4.9759 0,-1.29771 -2.097842,-2.92582 -2.097842,-2.92582 0,0 -1.32359,1.16436 -0.551333,2.82033 z"
       id="path3935" />
    <path
       style="opacity:0.1;stroke-width:0.19903608"
       inkscape:connector-curvature="0"
       d="m -10.23303,138.71927 c 0,0 -4.858471,-2.06998 -6.293517,-0.59711 -1.435053,1.47286 6.293517,0.59711 6.293517,0.59711 z"
       id="path3937" />
    <path
       style="opacity:0.1;stroke-width:0.19903608"
       inkscape:connector-curvature="0"
       d="m -12.965796,139.54725 c 0,0 4.9141993,2.76063 3.2303578,3.2224 -1.6838488,0.46176 -3.2303578,-3.2224 -3.2303578,-3.2224 z"
       id="path3939" />
    <path
       style="opacity:0.1;stroke-width:0.19903608"
       inkscape:connector-curvature="0"
       d="m -27.65068,137.14688 c 0,0 2.097842,0.13733 1.297721,0.55133 -0.800129,0.414 -1.297721,-0.55133 -1.297721,-0.55133 z"
       id="path3941" />
    <path
       style="opacity:0.1;stroke-width:0.19903608"
       inkscape:connector-curvature="0"
       d="m -30.273969,137.7818 c 0.02783,0.13734 6.100449,2.09785 4.914199,2.98555 -1.186258,0.8877 -4.914199,-2.98555 -4.914199,-2.98555 z"
       id="path3943" />
    <path
       style="opacity:0.1;stroke-width:0.19903608"
       inkscape:connector-curvature="0"
       d="m -10.951546,154.67599 c -0.909598,-0.13933 -5.989001,-2.48596 -4.002622,-0.79615 1.986386,1.68982 4.002622,0.79615 4.002622,0.79615 z"
       id="path3945" />
    <path
       style="opacity:0.1;stroke-width:0.19903608"
       inkscape:connector-curvature="0"
       d="m -13.463387,156.52503 c 0,0 -0.441857,1.71171 -2.125706,1.49078 -1.683841,-0.22093 2.125706,-1.49078 2.125706,-1.49078 z"
       id="path3947" />
    <path
       style="opacity:0.1;stroke-width:0.19903608"
       inkscape:connector-curvature="0"
       d="m -12.054212,160.00219 c -0.304523,-0.0816 -3.92101,-1.73758 -4.002615,-0.96532 -0.08161,0.77226 3.449296,2.1257 3.725956,1.71171 a 1.4808285,1.4808285 0 0 0 0.276659,-0.74639 z"
       id="path3949" />
    <path
       style="opacity:0.1;stroke-width:0.19903608"
       inkscape:connector-curvature="0"
       d="m -23.75952,158.01581 c -0.441864,-0.0278 -4.577832,-1.35345 -5.409804,-0.16719 z"
       id="path3951" />
    <path
       style="opacity:0.1;stroke-width:0.19903608"
       inkscape:connector-curvature="0"
       d="m -27.513339,158.78807 c 0,0 -0.718524,-0.63492 -1.435054,-0.30452 -0.716529,0.3304 1.435054,0.30452 1.435054,0.30452 z"
       id="path3953" />
    <path
       style="opacity:0.1;stroke-width:0.19903608"
       inkscape:connector-curvature="0"
       d="m -18.347729,165.63491 a 1.2360141,1.2360141 0 0 1 -0.939448,0.96533 z"
       id="path3955" />
    <path
       style="fill:#000000;fill-opacity:1;stroke-width:0.19903608"
       inkscape:connector-curvature="0"
       d="m -39.411723,168.22835 c 0.276667,1.13252 4.141942,1.24199 5.990988,0.93945 1.849046,-0.30253 5.686464,-1.40917 5.686464,-1.40917 0,0 4.030479,-0.38613 5.216736,-0.88173 1.18625,-0.4956 0.248796,-1.76744 0.248796,-1.76744 0,0 0,-0.0438 0,-0.11942 0.02783,-0.46176 0.111455,-2.13566 -0.173163,-2.58747 -0.330401,-0.52546 -0.137333,-2.23717 -0.137333,-2.23717 0,0 -5.714328,1.10465 -5.825791,0.58118 -0.111455,-0.52346 -0.995175,-1.26984 -1.407182,-1.43504 -0.412006,-0.16521 -0.718523,1.37932 -0.718523,1.37932 0,0 -2.587467,2.20929 -2.76063,3.00942 -0.173163,0.80012 -1.990359,1.21412 -1.990359,1.21412 0,0 -2.76063,0.77226 -3.479153,1.15839 a 1.3355321,1.3355321 0 0 0 -0.760319,1.07281 2.9855413,2.9855413 0 0 0 0.109469,1.08275 z"
       id="path3957" />
    <path
       style="opacity:0.1;stroke-width:0.19903608"
       inkscape:connector-curvature="0"
       d="m -39.411723,168.22835 c 0.276667,1.13252 4.141942,1.24199 5.990988,0.93945 1.849046,-0.30253 5.686464,-1.40917 5.686464,-1.40917 0,0 4.030479,-0.38613 5.216736,-0.88173 1.18625,-0.4956 0.248796,-1.76744 0.248796,-1.76744 0,0 0,-0.0438 0,-0.11942 l -5.772049,1.2798 c 0,0 -2.844229,1.21412 -4.665403,1.21412 -1.592292,0 -5.155036,0.65085 -6.807035,-0.33637 a 2.9855413,2.9855413 0 0 0 0.101503,1.08076 z"
       id="path3959" />
    <path
       style="opacity:0.1;stroke-width:0.19903608"
       inkscape:connector-curvature="0"
       d="m -31.599553,163.86747 c 0,0 0.276659,1.82119 1.381311,2.42825 z"
       id="path3961" />
    <path
       style="opacity:0.1;stroke-width:0.19903608"
       inkscape:connector-curvature="0"
       d="m -24.352649,55.448534 a 1.9744379,1.9744379 0 0 0 0.328408,0.137334 c 0.517496,0.139326 1.023047,-0.210978 1.482822,-0.489629 0.459775,-0.27865 1.0947,-0.485647 1.492767,-0.123401 0.51949,0.471715 0.143306,1.478838 0.678714,1.93463 0.33836,0.288603 0.875761,0.189085 1.251937,0.425937 0.376177,0.236853 0.489633,0.756338 0.58517,1.204169 0.09554,0.447831 0.286612,0.959354 0.724489,1.090718 0.437877,0.131363 0.845904,-0.157239 1.277808,-0.141316 0.08957,0 0.199041,0.01393 0.254769,-0.04976 a 0.26869872,0.26869872 0 0 0 0.04182,-0.199036 4.2534012,4.2534012 0 0 1 0.14132,-1.592289 c 0.177143,-0.509532 0.597109,-0.969306 1.122564,-1.05091 0.774251,-0.119422 1.425093,0.559291 1.880889,1.194216 a 19.561267,19.561267 0 0 1 1.305679,2.101821 1.3494647,1.3494647 0 0 1 0.06567,0.145297 6.7353812,6.7353812 0 1 0 -12.634811,-4.577831 z"
       id="path3963" />
    <path
       style="fill:#9a5e7f;stroke-width:0.19903608"
       inkscape:connector-curvature="0"
       d="m -13.089197,57.677738 c -0.455796,-0.640896 -1.106638,-1.317619 -1.882883,-1.194217 -0.531428,0.0816 -0.941441,0.541379 -1.12057,1.04892 a 4.2155843,4.2155843 0 0 0 -0.139326,1.592289 0.27865052,0.27865052 0 0 1 -0.04378,0.199036 c -0.06169,0.06568 -0.165197,0.05573 -0.254769,0.05175 -0.431903,-0.01593 -0.861821,0.264718 -1.277807,0.141316 -0.415987,-0.123402 -0.628952,-0.642887 -0.724489,-1.090718 -0.09554,-0.447831 -0.199041,-0.959354 -0.58517,-1.204169 -0.386129,-0.244814 -0.913578,-0.137334 -1.251938,-0.427927 -0.535408,-0.453802 -0.157238,-1.462915 -0.678714,-1.934631 -0.398067,-0.360255 -1.032991,-0.153258 -1.492766,0.125393 -0.459776,0.27865 -0.965326,0.626964 -1.484808,0.487639 -0.175157,-0.04777 -0.332395,-0.147287 -0.503565,-0.212969 -0.81804,-0.312487 -1.878903,0.21695 -2.551644,-0.344332 a 1.9724476,1.9724476 0 0 1 -0.50953,-0.881731 5.6108273,5.6108273 0 0 1 -0.372196,-1.407185 1.880891,1.880891 0 0 1 0.374182,-1.371358 c 0.437885,-0.515504 1.178299,-0.644877 1.737591,-1.025036 0.475693,-0.326419 0.796142,-0.822019 1.110618,-1.309657 0.314475,-0.487639 0.619006,-0.995181 1.078774,-1.339513 0.459775,-0.344333 1.104652,-0.515504 1.618169,-0.254767 a 1.7913248,1.7913248 0 0 0 0.531421,0.252776 1.0986792,1.0986792 0 0 0 0.587156,-0.161219 c 1.914733,-0.901633 4.143935,-0.742404 6.243762,-0.473706 0.839939,0.10748 1.691808,0.232873 2.4581,0.597108 0.766285,0.364237 1.443013,0.995181 1.657972,1.815209 0.171169,0.648858 0.03979,1.355437 0.246802,1.990362 0.139326,0.433898 0.4259384,0.796144 0.5971082,1.232033 0.4478293,1.164361 -0.087578,2.442173 -0.3144762,3.668235 -0.246802,1.339513 -0.123401,2.786505 -0.692645,4.056355 -0.111463,0.248796 -0.236858,0.684684 -0.517497,0.521475 -0.199033,-0.121412 -0.410013,-0.82799 -0.529434,-1.04892 a 19.340336,19.340336 0 0 0 -1.313638,-2.097841 z"
       id="path3965" />
    <path
       style="opacity:0.1;stroke-width:0.19903608"
       inkscape:connector-curvature="0"
       d="m -0.9579505,79.251259 0.99518295,2.834273 c 0,0 -2.35658975,8.75759 -3.46123445,10.598677 -1.1046522,1.841079 -2.7228137,4.195676 -2.7228137,4.195676 0,0 -2.7228137,1.3634 -5.8894773,0.736434 -3.166663,-0.626965 -12.407913,-2.280949 -12.407913,-2.280949 0,0 -0.774251,0.147285 -1.178292,-0.441864 -0.404047,-0.589142 -2.507854,-0.8877 -2.507854,-0.8877 0,0 -2.428243,-3.532887 0.553319,-5.005757 0,0 0.368217,0.810074 1.950556,0.258748 1.582331,-0.551333 2.060018,0.439863 2.060018,0.439863 0,0 2.587474,0.51551 4.012567,0.332395 1.425101,-0.183116 5.005757,-0.258748 5.373975,-0.553319 a 0.47370589,0.47370589 0 0 1 0.662796,0.03784 c 0,0 0.881726,-0.330401 1.176297,-0.662795 0.294579,-0.332387 0.700612,0.368217 0.700612,0.368217 0,0 0.515503,-0.294571 0.368218,-0.662788 -0.147293,-0.368218 0.477686,-1.765447 0.477686,-1.765447 0,0 0.294571,-0.921537 0.111455,-1.657971 -0.183108,-0.736435 0.919551,-3.383616 0.919551,-3.383616 a 4.6833191,4.6833191 0 0 0 -0.1472855,-1.325577 c -0.1851095,-0.660803 1.3932501,-1.990364 1.3932501,-1.990364 0,0 1.5445226,-7.509631 4.8206553,-5.043574 3.2761328,2.466057 2.7387316,5.859622 2.7387316,5.859623 z"
       id="path3967" />
    <path
       style="fill:#4c4981;stroke-width:0.19903608"
       inkscape:connector-curvature="0"
       d="m -0.74697099,79.251259 0.99518295,2.834273 c 0,0 -2.35658976,8.75759 -3.46123446,10.598677 -1.1046522,1.841079 -2.7208277,4.195676 -2.7208277,4.195676 0,0 -2.7228137,1.3634 -5.8894768,0.736434 -3.166664,-0.626965 -12.403927,-2.280949 -12.403927,-2.280949 0,0 -0.772265,0.147285 -1.176305,-0.441864 -0.40404,-0.589142 -2.505861,-0.8877 -2.505861,-0.8877 0,0 -2.428243,-3.532887 0.553319,-5.005757 0,0 0.368217,0.810074 1.950548,0.258748 1.582339,-0.551333 2.060026,0.439863 2.060026,0.439863 0,0 2.587466,0.51551 4.012567,0.332395 1.425101,-0.183116 5.005757,-0.258748 5.373975,-0.553319 a 0.47370589,0.47370589 0 0 1 0.662788,0.03784 c 0,0 0.881734,-0.330401 1.176305,-0.662795 0.294571,-0.332387 0.700605,0.368217 0.700605,0.368217 0,0 0.51551,-0.294571 0.368217,-0.662788 -0.147285,-0.368218 0.477687,-1.765447 0.477687,-1.765447 0,0 0.294578,-0.921537 0.109469,-1.657971 -0.185102,-0.736435 0.9215439,-3.383616 0.9215439,-3.383616 a 4.6833191,4.6833191 0 0 0 -0.147293,-1.325577 c -0.1851017,-0.660803 1.3932577,-1.990364 1.3932577,-1.990364 0,0 1.544515,-7.509631 4.8206553,-5.043574 3.27613274,2.466057 2.72877911,5.859622 2.72877911,5.859623 z"
       id="path3969" />
    <path
       style="opacity:0.1;stroke-width:0.19903608"
       inkscape:connector-curvature="0"
       d="m -24.669118,91.10187 c 0.03581,0.258748 0.845904,1.287761 0.551333,1.47287 -0.294578,0.185101 -0.772265,0.07365 -0.330401,0.662788 0.441856,0.589149 0.398075,1.470876 0.109469,1.361407 -0.288605,-0.109469 -0.772257,-1.435053 -0.772257,-1.950556 0,-0.515503 0.441856,-1.546509 0.441856,-1.546509 z"
       id="path3971" />
    <path
       style="opacity:0.1;stroke-width:0.19903608"
       inkscape:connector-curvature="0"
       d="m -13.738053,90.512721 c 0,0 0.220932,2.577522 2.032154,3.313956 1.8112294,0.736428 -2.032154,-3.313956 -2.032154,-3.313956 z"
       id="path3973" />
    <path
       style="opacity:0.1;stroke-width:0.19903608"
       inkscape:connector-curvature="0"
       d="m -9.984234,89.627007 c 0.1094692,0.03784 2.5755283,1.3634 1.4728696,2.135665 -1.1026587,0.772258 -1.4728696,-2.135665 -1.4728696,-2.135665 z"
       id="path3975" />
    <path
       style="opacity:0.1;stroke-width:0.19903608"
       inkscape:connector-curvature="0"
       d="m -9.8369485,87.789907 c 0,0 3.6065339,0.736435 2.388433,1.361407 -1.2181008,0.624972 -2.388433,-1.361407 -2.388433,-1.361407 z"
       id="path3977" />
    <g
       style="opacity:0.1"
       id="g3983"
       transform="matrix(0.19903609,0,0,0.19903609,-173.88846,20.095744)">
      <path
         inkscape:connector-curvature="0"
         d="m 928,225.58 c 0.9,-2.55 3,-4.86 5.63,-5.27 3.9,-0.6 7.17,2.81 9.46,6 a 98.28,98.28 0 0 1 6.56,10.56 c 0.6,1.11 1.62,4.65 2.66,5.26 1.41,0.83 2,-1.36 2.6,-2.61 2.86,-6.36 2.24,-13.65 3.48,-20.38 0.73,-3.93 2.08,-8 2.38,-11.9 0.43,4.84 -1.47,9.93 -2.38,14.85 -1.24,6.73 -0.62,14 -3.48,20.39 -0.56,1.25 -1.19,3.44 -2.6,2.61 -1,-0.61 -2.06,-4.15 -2.66,-5.26 a 98.28,98.28 0 0 0 -6.56,-10.56 c -2.29,-3.21 -5.56,-6.62 -9.46,-6 -2.67,0.41 -4.73,2.72 -5.63,5.27 a 14.67,14.67 0 0 0 -0.74,4.16 19.36,19.36 0 0 1 0.74,-7.12 z"
         transform="translate(-135.16,-40.66)"
         id="path3979" />
      <path
         inkscape:connector-curvature="0"
         d="m 870.19,208 a 9.89,9.89 0 0 0 2.56,4.44 c 3.38,2.82 8.71,0.16 12.82,1.73 0.86,0.32 1.65,0.83 2.53,1.07 2.61,0.69 5.16,-1.06 7.46,-2.46 2.3,-1.4 5.51,-2.43 7.5,-0.62 2.62,2.37 0.72,7.43 3.41,9.72 1.7,1.45 4.4,1 6.29,2.15 1.89,1.15 2.46,3.79 2.94,6 0.48,2.21 1.43,4.82 3.64,5.48 2.21,0.66 4.25,-0.78 6.42,-0.7 0.45,0 1,0.07 1.28,-0.26 a 0.94,0.94 0 0 0 0.15,-0.28 c 0,0.75 0,1.49 0.07,2.23 a 1.41,1.41 0 0 1 -0.22,1 c -0.31,0.32 -0.83,0.27 -1.28,0.25 -2.17,-0.07 -4.33,1.33 -6.42,0.71 -2.09,-0.62 -3.16,-3.22 -3.64,-5.48 -0.48,-2.26 -1,-4.82 -2.94,-6 -1.94,-1.18 -4.59,-0.7 -6.29,-2.15 -2.69,-2.29 -0.79,-7.36 -3.41,-9.72 -2,-1.82 -5.19,-0.78 -7.5,0.62 -2.31,1.4 -4.85,3.15 -7.46,2.46 -0.88,-0.24 -1.67,-0.75 -2.53,-1.07 -4.11,-1.57 -9.44,1.09 -12.82,-1.73 a 9.94,9.94 0 0 1 -2.56,-4.44 28.22,28.22 0 0 1 -1.87,-7.06 11.43,11.43 0 0 1 0.06,-2.48 29.75,29.75 0 0 0 1.81,6.59 z"
         transform="translate(-135.16,-40.66)"
         id="path3981" />
    </g>
    <path
       style="fill:#57a4ff;fill-opacity:1;stroke-width:0.19903608"
       inkscape:connector-curvature="0"
       d="m -154.02864,164.71138 c 0,0 -8.41525,-0.50753 -7.42404,5.38791 0,0 -0.19904,1.04295 0.74837,1.51666 0,0 0.0139,-0.43788 0.86381,-0.29059 a 3.9608181,3.9608181 0 0 0 0.91358,0.0457 1.902785,1.902785 0 0 0 1.11659,-0.46176 v 0 c 0,0 2.36655,-0.97727 3.28609,-4.84454 0,0 0.68071,-0.84192 0.65284,-1.05887 l -1.41913,0.59711 c 0,0 0.48565,1.02504 0.1035,1.87691 0,0 -0.0457,-1.83909 -0.31846,-1.79132 -0.0557,0 -0.73842,0.35428 -0.73842,0.35428 0,0 0.83595,1.79133 0.19904,3.08307 0,0 0.23884,-2.19935 -0.46575,-2.9537 l -0.99518,0.58318 c 0,0 0.97527,1.84308 0.31448,3.34779 0,0 0.16918,-2.30684 -0.52546,-3.20449 l -0.90561,0.70658 c 0,0 0.91755,1.81521 0.35826,3.06317 0,0 -0.0737,-2.685 -0.55332,-2.88801 0,0 -0.79614,0.69861 -0.91358,0.99517 0,0 0.62697,1.31961 0.23686,2.01624 0,0 -0.23884,-1.79133 -0.4339,-1.79133 0,0 -0.79615,1.18427 -0.87178,1.99037 0,0 0.0339,-1.20815 0.68071,-2.11177 a 2.3705198,2.3705198 0 0 0 -1.20815,0.62696 c 0,0 0.12141,-0.83794 1.4032,-0.91159 0,0 0.65284,-0.89964 0.826,-0.95338 0,0 -1.27383,-0.10748 -2.04609,0.23486 0,0 0.68071,-0.79615 2.28096,-0.42991 l 0.89367,-0.73047 c 0,0 -1.67788,-0.22889 -2.38843,0.0238 0,0 0.81803,-0.69862 2.62926,-0.18909 l 0.97328,-0.58317 c 0,0 -1.42907,-0.30851 -2.28095,-0.19904 0,0 0.89766,-0.48366 2.56756,0.0418 l 0.69464,-0.31248 c 0,0 -1.04693,-0.19905 -1.35344,-0.23885 -0.30652,-0.0398 -0.32443,-0.11743 -0.32443,-0.11743 a 3.6343989,3.6343989 0 0 1 1.96847,0.21893 c 0,0 1.47884,-0.55729 1.45495,-0.64885 z"
       id="path3985" />
    <ellipse
       style="opacity:0.1;fill:#6c63ff;stroke-width:0.19903608"
       cx="-159.82457"
       cy="172.12946"
       rx="5.9551597"
       ry="1.0071225"
       id="ellipse3987" />
    <path
       style="fill:#57a4ff;fill-opacity:1;stroke-width:0.19903608"
       inkscape:connector-curvature="0"
       d="m -137.89477,149.17264 c 0,0 -4.74503,-0.28662 -4.17976,3.03928 a 0.81206724,0.81206724 0 0 0 0.42196,0.85386 c 0,0 0,-0.2468 0.48764,-0.16321 a 2.3346933,2.3346933 0 0 0 0.5155,0.0259 1.0887274,1.0887274 0 0 0 0.62895,-0.26073 v 0 c 0,0 1.32956,-0.54338 1.85502,-2.73277 0,0 0.38413,-0.4757 0.36822,-0.59711 l -0.79615,0.34035 c 0,0 0.27268,0.57919 0.0577,1.05887 0,0 -0.0259,-1.03697 -0.17913,-1.01309 -0.0318,0 -0.41599,0.19903 -0.41599,0.19903 0,0 0.46973,0.99519 0.11544,1.73759 0,0 0.13336,-1.23999 -0.26272,-1.66593 l -0.56726,0.33836 c 0,0 0.54934,1.03897 0.17714,1.88686 0,0 0.0955,-1.30169 -0.29656,-1.80724 l -0.50953,0.39806 c 0,0 0.5155,1.02504 0.19904,1.72764 0,0 -0.0418,-1.51466 -0.31249,-1.62812 a 3.1845774,3.1845774 0 0 0 -0.51551,0.55531 c 0,0 0.35429,0.7444 0.13535,1.1365 0,0 -0.13535,-1.00911 -0.24482,-1.0131 0,0 -0.44584,0.66678 -0.49161,1.12655 a 2.4282402,2.4282402 0 0 1 0.38215,-1.19421 1.3494647,1.3494647 0 0 0 -0.68071,0.35428 c 0,0 0.0697,-0.4737 0.79615,-0.51351 0,0 0.36622,-0.50755 0.46574,-0.5374 0,0 -0.71853,-0.0617 -1.15441,0.13136 0,0 0.38414,-0.44584 1.28578,-0.24282 l 0.50355,-0.41201 c 0,0 -0.94542,-0.12937 -1.34548,0.0139 0,0 0.46176,-0.39807 1.48282,-0.10748 l 0.54735,-0.32642 a 4.9181817,4.9181817 0 0 0 -1.28578,-0.11146 c 0,0 0.50755,-0.27467 1.447,0.0219 l 0.39807,-0.17516 c 0,0 -0.59711,-0.11742 -0.76231,-0.13534 -0.1652,-0.0179 -0.18311,-0.0657 -0.18311,-0.0657 a 2.0540524,2.0540524 0 0 1 1.11062,0.12341 c 0,0 0.82401,-0.31448 0.80211,-0.36623 z"
       id="path3989" />
    <ellipse
       style="opacity:0.1;fill:#6c63ff;stroke-width:0.19903608"
       cx="-141.15498"
       cy="153.35439"
       rx="3.357739"
       ry="0.56725281"
       id="ellipse3991" />
    <path
       style="fill:#57a4ff;fill-opacity:1;stroke-width:0.19903608"
       inkscape:connector-curvature="0"
       d="m -165.8892,152.05866 c 0,0 -5.72826,-0.34632 -5.04556,3.66824 a 0.97925756,0.97925756 0 0 0 0.50953,1.031 c 0,0 0,-0.29855 0.58715,-0.19903 a 2.6153342,2.6153342 0 0 0 0.62299,0.0299 1.2857731,1.2857731 0 0 0 0.76032,-0.31447 v 0 c 0,0 1.6102,-0.66478 2.23716,-3.29604 0,0 0.46177,-0.57322 0.44385,-0.72052 l -0.98125,0.414 c 0,0 0.32841,0.69663 0.0697,1.27582 0,0 -0.0318,-1.24995 -0.21695,-1.22009 -0.0378,0 -0.50157,0.24084 -0.50157,0.24084 0,0 0.56725,1.21411 0.13933,2.09783 0,0 0.16121,-1.49675 -0.31846,-2.01026 l -0.67871,0.39807 c 0,0 0.66279,1.25393 0.21296,2.27697 0,0 0.11545,-1.57039 -0.35627,-2.18939 l -0.61701,0.48167 c 0,0 0.62298,1.23601 0.24282,2.08589 0,0 -0.0497,-1.82914 -0.37617,-1.96647 0,0 -0.53939,0.47569 -0.62299,0.67075 0,0 0.42793,0.89765 0.16321,1.37136 0,0 -0.16321,-1.21811 -0.29656,-1.22407 0,0 -0.5374,0.80808 -0.59711,1.36141 a 2.9357823,2.9357823 0 0 1 0.46375,-1.43705 1.6102019,1.6102019 0 0 0 -0.824,0.42594 c 0,0 0.0836,-0.57123 0.95736,-0.621 0,0 0.44385,-0.61104 0.56128,-0.64885 0,0 -0.86581,-0.0736 -1.39326,0.15923 0,0 0.46376,-0.5374 1.55249,-0.29259 l 0.60905,-0.49759 c 0,0 -1.14247,-0.15524 -1.62613,0.0179 0,0 0.55731,-0.47769 1.79133,-0.12938 l 0.66278,-0.39806 c 0,0 -0.97328,-0.21098 -1.55248,-0.13535 0,0 0.61105,-0.3304 1.74755,0.0278 l 0.4737,-0.21296 c 0,0 -0.71255,-0.13933 -0.92154,-0.16122 -0.20899,-0.0219 -0.22092,-0.0796 -0.22092,-0.0796 a 2.4600861,2.4600861 0 0 1 1.3395,0.14729 c 0,0 1.01708,-0.36225 0.99917,-0.42793 z"
       id="path3993" />
    <ellipse
       style="opacity:0.1;fill:#6c63ff;stroke-width:0.19903608"
       cx="-169.83409"
       cy="157.1082"
       rx="4.0543652"
       ry="0.68468416"
       id="ellipse3995" />
    <ellipse
       style="opacity:0.1;fill:#6c63ff;stroke-width:0.19903608"
       cx="-52.930256"
       cy="182.03548"
       rx="5.9551597"
       ry="1.0071225"
       id="ellipse3997" />
    <path
       style="fill:#a8a8a8;stroke-width:0.19903608"
       inkscape:connector-curvature="0"
       d="m -56.928882,177.35814 c 0,0 3.39754,-0.10549 4.420587,-0.83397 1.023047,-0.72846 5.224695,-1.59228 5.479464,-0.42991 0.254769,1.16237 5.105274,5.81384 1.269849,5.84569 -3.835425,0.0318 -8.910841,-0.59711 -9.933888,-1.22009 -1.023047,-0.62299 -1.236012,-3.36172 -1.236012,-3.36172 z"
       id="path3999" />
    <path
       style="opacity:0.2;stroke-width:0.19903608"
       inkscape:connector-curvature="0"
       d="m -45.691308,181.53193 c -3.835425,0.0318 -8.910842,-0.59711 -9.931902,-1.21811 -0.778231,-0.47569 -1.088727,-2.17546 -1.194217,-2.95966 h -0.113449 c 0,0 0.214959,2.73873 1.236013,3.36172 1.02106,0.62298 6.09847,1.24994 9.933895,1.22009 1.106638,0 1.488788,-0.39807 1.468883,-0.99518 -0.151265,0.36424 -0.57521,0.58516 -1.399223,0.59114 z"
       id="path4001" />
    <path
       style="fill:#57a4ff;fill-opacity:1;stroke-width:0.26458332"
       d="M -189.28464,17.281284 H 245.83014 V 154.12328 c -16.71633,65.45896 -89.81569,19.46735 -125.5135,0.19916 C 7.3109742,83.116946 93.099653,38.746503 -189.28464,17.281284 Z"
       id="rect5100"
       inkscape:connector-curvature="0"
       sodipodi:nodetypes="ccccc" />
  </g>
</svg>
