<?xml version="1.0" encoding="UTF-8" standalone="no"?>
<!-- Created with Inkscape (http://www.inkscape.org/) -->

<svg
   xmlns:dc="http://purl.org/dc/elements/1.1/"
   xmlns:cc="http://creativecommons.org/ns#"
   xmlns:rdf="http://www.w3.org/1999/02/22-rdf-syntax-ns#"
   xmlns:svg="http://www.w3.org/2000/svg"
   xmlns="http://www.w3.org/2000/svg"
   xmlns:sodipodi="http://sodipodi.sourceforge.net/DTD/sodipodi-0.dtd"
   xmlns:inkscape="http://www.inkscape.org/namespaces/inkscape"
   width="153.71834mm"
   height="132.24928mm"
   viewBox="0 0 153.71834 132.24928"
   version="1.1"
   id="svg8"
   inkscape:version="0.92.4 (5da689c313, 2019-01-14)"
   sodipodi:docname="icon.svg">
  <defs
     id="defs2" />
  <sodipodi:namedview
     id="base"
     pagecolor="#ffffff"
     bordercolor="#666666"
     borderopacity="1.0"
     inkscape:pageopacity="0.0"
     inkscape:pageshadow="2"
     inkscape:zoom="0.98994949"
     inkscape:cx="166.37109"
     inkscape:cy="204.24829"
     inkscape:document-units="mm"
     inkscape:current-layer="layer1"
     showgrid="false"
     inkscape:window-width="1920"
     inkscape:window-height="1018"
     inkscape:window-x="-8"
     inkscape:window-y="-8"
     inkscape:window-maximized="1"
     fit-margin-top="0"
     fit-margin-left="0"
     fit-margin-right="0"
     fit-margin-bottom="0" />
  <metadata
     id="metadata5">
    <rdf:RDF>
      <cc:Work
         rdf:about="">
        <dc:format>image/svg+xml</dc:format>
        <dc:type
           rdf:resource="http://purl.org/dc/dcmitype/StillImage" />
        <dc:title></dc:title>
      </cc:Work>
    </rdf:RDF>
  </metadata>
  <g
     inkscape:label="Camada 1"
     inkscape:groupmode="layer"
     id="layer1"
     transform="translate(257.21107,-27.778088)">
    <path
       style="fill:#2488ff;fill-opacity:0;stroke-width:2.85714293"
       d="m -1483.3865,454.90923 c -18.7845,-8.16992 -18.0421,1.69543 -18.0421,-239.74273 V -3.327599 l 7.3265,-8.707054 c 4.0296,-4.788879 12.0653,-10.023213 17.8572,-11.631852 14.4519,-4.013906 498.0379,-4.013906 512.48981,0 5.79186,1.608639 13.82758,6.842973 17.85715,11.631852 l 7.32651,8.707054 V 215.1665 c 0,242.35536 0.828,231.71744 -18.66943,239.86399 -14.2824,5.96757 -512.41004,5.85277 -526.14564,-0.12115 z m 104.9866,-196.0758 c 48.7492,-58.87904 83.4791,-98.41457 87.9428,-100.11166 13.0594,-4.96518 21.1236,-0.0499 48.981,29.85444 53.6874,57.63233 58.4139,61.94348 67.912,61.94348 6.3476,0 13.5031,-3.94759 25.8381,-14.25449 21.2022,-17.71615 28.2515,-20.60711 37.726,-15.47177 3.9286,2.12934 34.7857,34.01629 68.5714,70.85988 33.7857,36.8436 62.39289,67.08949 63.57146,67.21309 1.17857,0.12371 2.14285,-75.20977 2.14285,-167.40745 0,-151.974011 -0.44168,-168.120228 -4.72854,-172.857148 -4.50771,-4.980963 -15.67206,-5.224974 -239.06077,-5.224974 -214.0391,0 -234.7846,0.409491 -239.5571,4.728537 -4.9493,4.478977 -5.225,13.610691 -5.225,173.025765 0,103.15678 1.0296,167.6609 2.66,166.65324 1.463,-0.9042 38.9147,-45.43211 83.2258,-98.95094 z"
       id="path4547"
       inkscape:connector-curvature="0"
       transform="scale(0.26458333)" />
    <path
       style="fill:#2488ff;fill-opacity:0;stroke-width:2.85714293"
       d="m -1483.3865,454.90923 c -18.7845,-8.16992 -18.0421,1.69543 -18.0421,-239.74273 V -3.327599 l 7.3265,-8.707054 c 4.0296,-4.788879 12.0653,-10.023213 17.8572,-11.631852 14.4519,-4.013906 498.0379,-4.013906 512.48981,0 5.79186,1.608639 13.82758,6.842973 17.85715,11.631852 l 7.32651,8.707054 V 215.1665 c 0,242.35536 0.828,231.71744 -18.66943,239.86399 -14.2824,5.96757 -512.41004,5.85277 -526.14564,-0.12115 z m 507.67221,-262.96097 c 0,-163.333338 -0.13028,-167.273101 -5.71428,-172.857146 -5.6208,-5.6208 -9.5238,-5.714286 -238.57143,-5.714286 -229.0476,0 -232.9506,0.09349 -238.5714,5.714286 -5.583,5.582922 -5.7143,9.523808 -5.7143,171.428576 0,91.14285 1.0932,165.71428 2.4293,165.71428 1.3361,0 39.1359,-44.22671 83.9995,-98.28154 87.6509,-105.60798 89.2635,-107.08408 106.9341,-97.87944 4.4361,2.31079 25.2562,22.92626 46.2668,45.81215 21.0107,22.88589 40.7106,42.40717 43.7777,43.38061 9.0165,2.86173 17.9126,-0.77988 34.1678,-13.98648 22.1292,-17.97905 26.6803,-20.00161 35.0341,-15.56971 3.8019,2.017 35.3725,34.20298 70.1568,71.52441 34.7843,37.32143 63.82049,67.85714 64.5248,67.85714 0.70429,0 1.28051,-75.21428 1.28051,-167.14285 z"
       id="path4549"
       inkscape:connector-curvature="0"
       transform="scale(0.26458333)" />
    <path
       style="fill:#2488ff;fill-opacity:0;stroke-width:2.85714293"
       d="m -1483.3865,454.90923 c -18.7845,-8.16992 -18.0421,1.69543 -18.0421,-239.74273 V -3.327599 l 7.3265,-8.707054 c 4.0296,-4.788879 12.0653,-10.023213 17.8572,-11.631852 14.4519,-4.013906 498.0379,-4.013906 512.48981,0 5.79186,1.608639 13.82758,6.842973 17.85715,11.631852 l 7.32651,8.707054 V 215.1665 c 0,242.35536 0.828,231.71744 -18.66943,239.86399 -14.2824,5.96757 -512.41004,5.85277 -526.14564,-0.12115 z m 507.67221,-262.96097 c 0,-163.333338 -0.13028,-167.273101 -5.71428,-172.857146 -5.6208,-5.6208 -9.5238,-5.714286 -238.57143,-5.714286 -229.0476,0 -232.9506,0.09349 -238.5714,5.714286 -5.583,5.582922 -5.7143,9.523808 -5.7143,171.428576 0,91.14285 1.0932,165.71428 2.4293,165.71428 1.3361,0 39.1359,-44.22671 83.9995,-98.28154 87.6509,-105.60798 89.2635,-107.08408 106.9341,-97.87944 4.4361,2.31079 25.2562,22.92626 46.2668,45.81215 21.0107,22.88589 40.7106,42.40717 43.7777,43.38061 9.0165,2.86173 17.9126,-0.77988 34.1678,-13.98648 22.1292,-17.97905 26.6803,-20.00161 35.0341,-15.56971 3.8019,2.017 35.3725,34.20298 70.1568,71.52441 34.7843,37.32143 63.82049,67.85714 64.5248,67.85714 0.70429,0 1.28051,-75.21428 1.28051,-167.14285 z"
       id="path4551"
       inkscape:connector-curvature="0"
       transform="scale(0.26458333)" />
    <path
       style="fill:#2488ff;fill-opacity:0;stroke-width:2.85714293"
       d="m -1483.3865,454.90923 c -18.7845,-8.16992 -18.0421,1.69543 -18.0421,-239.74273 V -3.327599 l 7.3265,-8.707054 c 4.0296,-4.788879 12.0653,-10.023213 17.8572,-11.631852 14.4519,-4.013906 498.0379,-4.013906 512.48981,0 5.79186,1.608639 13.82758,6.842973 17.85715,11.631852 l 7.32651,8.707054 V 215.1665 c 0,242.35536 0.828,231.71744 -18.66943,239.86399 -14.2824,5.96757 -512.41004,5.85277 -526.14564,-0.12115 z m 507.67221,-262.96097 c 0,-163.333338 -0.13028,-167.273101 -5.71428,-172.857146 -5.6208,-5.6208 -9.5238,-5.714286 -238.57143,-5.714286 -229.0476,0 -232.9506,0.09349 -238.5714,5.714286 -5.583,5.582922 -5.7143,9.523808 -5.7143,171.428576 0,91.14285 1.0932,165.71428 2.4293,165.71428 1.3361,0 39.1359,-44.22671 83.9995,-98.28154 87.6509,-105.60798 89.2635,-107.08408 106.9341,-97.87944 4.4361,2.31079 25.2562,22.92626 46.2668,45.81215 21.0107,22.88589 40.7106,42.40717 43.7777,43.38061 9.0165,2.86173 17.9126,-0.77988 34.1678,-13.98648 22.1292,-17.97905 26.6803,-20.00161 35.0341,-15.56971 3.8019,2.017 35.3725,34.20298 70.1568,71.52441 34.7843,37.32143 63.82049,67.85714 64.5248,67.85714 0.70429,0 1.28051,-75.21428 1.28051,-167.14285 z"
       id="path4553"
       inkscape:connector-curvature="0"
       transform="scale(0.26458333)" />
    <path
       style="fill:#2488ff;fill-opacity:0;stroke-width:2.85714293"
       d="m -1483.3865,454.90923 c -18.7845,-8.16992 -18.0421,1.69543 -18.0421,-239.74273 V -3.327599 l 7.3265,-8.707054 c 4.0296,-4.788879 12.0653,-10.023213 17.8572,-11.631852 14.4519,-4.013906 498.0379,-4.013906 512.48981,0 5.79186,1.608639 13.82758,6.842973 17.85715,11.631852 l 7.32651,8.707054 V 215.1665 c 0,242.35536 0.828,231.71744 -18.66943,239.86399 -14.2824,5.96757 -512.41004,5.85277 -526.14564,-0.12115 z m 507.67221,-262.96097 c 0,-163.333338 -0.13028,-167.273101 -5.71428,-172.857146 -5.6208,-5.6208 -9.5238,-5.714286 -238.57143,-5.714286 -229.0476,0 -232.9506,0.09349 -238.5714,5.714286 -5.583,5.582922 -5.7143,9.523808 -5.7143,171.428576 0,91.14285 1.0932,165.71428 2.4293,165.71428 1.3361,0 39.1359,-44.22671 83.9995,-98.28154 87.6509,-105.60798 89.2635,-107.08408 106.9341,-97.87944 4.4361,2.31079 25.2562,22.92626 46.2668,45.81215 21.0107,22.88589 40.7106,42.40717 43.7777,43.38061 9.0165,2.86173 17.9126,-0.77988 34.1678,-13.98648 22.1292,-17.97905 26.6803,-20.00161 35.0341,-15.56971 3.8019,2.017 35.3725,34.20298 70.1568,71.52441 34.7843,37.32143 63.82049,67.85714 64.5248,67.85714 0.70429,0 1.28051,-75.21428 1.28051,-167.14285 z"
       id="path4555"
       inkscape:connector-curvature="0"
       transform="scale(0.26458333)" />
    <path
       style="fill:#2488ff;fill-opacity:0;stroke-width:2.85714293"
       d="m -1483.3865,454.90923 c -18.7845,-8.16992 -18.0421,1.69543 -18.0421,-239.74273 V -3.327599 l 7.3265,-8.707054 c 4.0296,-4.788879 12.0653,-10.023213 17.8572,-11.631852 14.4519,-4.013906 498.0379,-4.013906 512.48981,0 5.79186,1.608639 13.82758,6.842973 17.85715,11.631852 l 7.32651,8.707054 V 215.1665 c 0,242.35536 0.828,231.71744 -18.66943,239.86399 -14.2824,5.96757 -512.41004,5.85277 -526.14564,-0.12115 z m 507.67221,-262.96097 c 0,-163.333338 -0.13028,-167.273101 -5.71428,-172.857146 -5.6208,-5.6208 -9.5238,-5.714286 -238.57143,-5.714286 -229.0476,0 -232.9506,0.09349 -238.5714,5.714286 -5.583,5.582922 -5.7143,9.523808 -5.7143,171.428576 0,91.14285 1.0932,165.71428 2.4293,165.71428 1.3361,0 39.1359,-44.22671 83.9995,-98.28154 87.6509,-105.60798 89.2635,-107.08408 106.9341,-97.87944 4.4361,2.31079 25.2562,22.92626 46.2668,45.81215 21.0107,22.88589 40.7106,42.40717 43.7777,43.38061 9.0165,2.86173 17.9126,-0.77988 34.1678,-13.98648 22.1292,-17.97905 26.6803,-20.00161 35.0341,-15.56971 3.8019,2.017 35.3725,34.20298 70.1568,71.52441 34.7843,37.32143 63.82049,67.85714 64.5248,67.85714 0.70429,0 1.28051,-75.21428 1.28051,-167.14285 z"
       id="path4557"
       inkscape:connector-curvature="0"
       transform="scale(0.26458333)" />
    <path
       style="fill:#2488ff;fill-opacity:0;stroke-width:2.85714293"
       d="m -1483.3865,454.90923 c -18.7845,-8.16992 -18.0421,1.69543 -18.0421,-239.74273 V -3.327599 l 7.3265,-8.707054 c 4.0296,-4.788879 12.0653,-10.023213 17.8572,-11.631852 14.4519,-4.013906 498.0379,-4.013906 512.48981,0 5.79186,1.608639 13.82758,6.842973 17.85715,11.631852 l 7.32651,8.707054 V 215.1665 c 0,242.35536 0.828,231.71744 -18.66943,239.86399 -14.2824,5.96757 -512.41004,5.85277 -526.14564,-0.12115 z m 507.67221,-262.96097 c 0,-163.333338 -0.13028,-167.273101 -5.71428,-172.857146 -5.6208,-5.6208 -9.5238,-5.714286 -238.57143,-5.714286 -229.0476,0 -232.9506,0.09349 -238.5714,5.714286 -5.583,5.582922 -5.7143,9.523808 -5.7143,171.428576 0,91.14285 1.0932,165.71428 2.4293,165.71428 1.3361,0 39.1359,-44.22671 83.9995,-98.28154 87.6509,-105.60798 89.2635,-107.08408 106.9341,-97.87944 4.4361,2.31079 25.2562,22.92626 46.2668,45.81215 21.0107,22.88589 40.7106,42.40717 43.7777,43.38061 9.0165,2.86173 17.9126,-0.77988 34.1678,-13.98648 22.1292,-17.97905 26.6803,-20.00161 35.0341,-15.56971 3.8019,2.017 35.3725,34.20298 70.1568,71.52441 34.7843,37.32143 63.82049,67.85714 64.5248,67.85714 0.70429,0 1.28051,-75.21428 1.28051,-167.14285 z"
       id="path4559"
       inkscape:connector-curvature="0"
       transform="scale(0.26458333)" />
    <path
       style="fill:#2488ff;fill-opacity:0;stroke-width:2.85714293"
       d="m -1483.3865,454.90923 c -18.7845,-8.16992 -18.0421,1.69543 -18.0421,-239.74273 V -3.327599 l 7.3265,-8.707054 c 4.0296,-4.788879 12.0653,-10.023213 17.8572,-11.631852 14.4519,-4.013906 498.0379,-4.013906 512.48981,0 5.79186,1.608639 13.82758,6.842973 17.85715,11.631852 l 7.32651,8.707054 V 215.1665 c 0,242.35536 0.828,231.71744 -18.66943,239.86399 -14.2824,5.96757 -512.41004,5.85277 -526.14564,-0.12115 z m 507.67221,-262.96097 c 0,-163.333338 -0.13028,-167.273101 -5.71428,-172.857146 -5.6208,-5.6208 -9.5238,-5.714286 -238.57143,-5.714286 -229.0476,0 -232.9506,0.09349 -238.5714,5.714286 -5.583,5.582922 -5.7143,9.523808 -5.7143,171.428576 0,91.14285 1.0932,165.71428 2.4293,165.71428 1.3361,0 39.1359,-44.22671 83.9995,-98.28154 87.6509,-105.60798 89.2635,-107.08408 106.9341,-97.87944 4.4361,2.31079 25.2562,22.92626 46.2668,45.81215 21.0107,22.88589 40.7106,42.40717 43.7777,43.38061 9.0165,2.86173 17.9126,-0.77988 34.1678,-13.98648 22.1292,-17.97905 26.6803,-20.00161 35.0341,-15.56971 3.8019,2.017 35.3725,34.20298 70.1568,71.52441 34.7843,37.32143 63.82049,67.85714 64.5248,67.85714 0.70429,0 1.28051,-75.21428 1.28051,-167.14285 z"
       id="path4561"
       inkscape:connector-curvature="0"
       transform="scale(0.26458333)" />
    <path
       style="fill:#2488ff;fill-opacity:0;stroke-width:2.85714293"
       d="m -1483.3865,454.90923 c -18.7845,-8.16992 -18.0421,1.69543 -18.0421,-239.74273 V -3.327599 l 7.3265,-8.707054 c 4.0296,-4.788879 12.0653,-10.023213 17.8572,-11.631852 14.4519,-4.013906 498.0379,-4.013906 512.48981,0 5.79186,1.608639 13.82758,6.842973 17.85715,11.631852 l 7.32651,8.707054 V 215.1665 c 0,242.35536 0.828,231.71744 -18.66943,239.86399 -14.2824,5.96757 -512.41004,5.85277 -526.14564,-0.12115 z m 104.9866,-196.0758 c 48.7492,-58.87904 83.4791,-98.41457 87.9428,-100.11166 13.0594,-4.96518 21.1236,-0.0499 48.981,29.85444 53.6874,57.63233 58.4139,61.94348 67.912,61.94348 6.3476,0 13.5031,-3.94759 25.8381,-14.25449 21.2022,-17.71615 28.2515,-20.60711 37.726,-15.47177 3.9286,2.12934 34.7857,34.01629 68.5714,70.85988 33.7857,36.8436 62.39289,67.08949 63.57146,67.21309 1.17857,0.12371 2.14285,-75.20977 2.14285,-167.40745 0,-151.974011 -0.44168,-168.120228 -4.72854,-172.857148 -4.50771,-4.980963 -15.67206,-5.224974 -239.06077,-5.224974 -214.0391,0 -234.7846,0.409491 -239.5571,4.728537 -4.9493,4.478977 -5.225,13.610691 -5.225,173.025765 0,103.15678 1.0296,167.6609 2.66,166.65324 1.463,-0.9042 38.9147,-45.43211 83.2258,-98.95094 z"
       id="path4563"
       inkscape:connector-curvature="0"
       transform="scale(0.26458333)" />
    <path
       style="fill:#2488ff;fill-opacity:0;stroke-width:2.85714293"
       d="m -1483.3865,454.90923 c -18.7845,-8.16992 -18.0421,1.69543 -18.0421,-239.74273 V -3.327599 l 7.3265,-8.707054 c 4.0296,-4.788879 12.0653,-10.023213 17.8572,-11.631852 14.4519,-4.013906 498.0379,-4.013906 512.48981,0 5.79186,1.608639 13.82758,6.842973 17.85715,11.631852 l 7.32651,8.707054 V 215.1665 c 0,242.35536 0.828,231.71744 -18.66943,239.86399 -14.2824,5.96757 -512.41004,5.85277 -526.14564,-0.12115 z m 104.9866,-196.0758 c 48.7492,-58.87904 83.4791,-98.41457 87.9428,-100.11166 13.0594,-4.96518 21.1236,-0.0499 48.981,29.85444 53.6874,57.63233 58.4139,61.94348 67.912,61.94348 6.3476,0 13.5031,-3.94759 25.8381,-14.25449 21.2022,-17.71615 28.2515,-20.60711 37.726,-15.47177 3.9286,2.12934 34.7857,34.01629 68.5714,70.85988 33.7857,36.8436 62.39289,67.08949 63.57146,67.21309 1.17857,0.12371 2.14285,-75.20977 2.14285,-167.40745 0,-151.974011 -0.44168,-168.120228 -4.72854,-172.857148 -4.50771,-4.980963 -15.67206,-5.224974 -239.06077,-5.224974 -214.0391,0 -234.7846,0.409491 -239.5571,4.728537 -4.9493,4.478977 -5.225,13.610691 -5.225,173.025765 0,103.15678 1.0296,167.6609 2.66,166.65324 1.463,-0.9042 38.9147,-45.43211 83.2258,-98.95094 z"
       id="path4565"
       inkscape:connector-curvature="0"
       transform="scale(0.26458333)" />
    <path
       style="fill:#2488ff;fill-opacity:0;stroke-width:2.85714293"
       d="m -1483.3865,454.90923 c -18.7845,-8.16992 -18.0421,1.69543 -18.0421,-239.74273 V -3.327599 l 7.3265,-8.707054 c 4.0296,-4.788879 12.0653,-10.023213 17.8572,-11.631852 14.4519,-4.013906 498.0379,-4.013906 512.48981,0 5.79186,1.608639 13.82758,6.842973 17.85715,11.631852 l 7.32651,8.707054 V 215.1665 c 0,242.35536 0.828,231.71744 -18.66943,239.86399 -14.2824,5.96757 -512.41004,5.85277 -526.14564,-0.12115 z m 104.9866,-196.0758 c 48.7492,-58.87904 83.4791,-98.41457 87.9428,-100.11166 13.0594,-4.96518 21.1236,-0.0499 48.981,29.85444 53.6874,57.63233 58.4139,61.94348 67.912,61.94348 6.3476,0 13.5031,-3.94759 25.8381,-14.25449 21.2022,-17.71615 28.2515,-20.60711 37.726,-15.47177 3.9286,2.12934 34.7857,34.01629 68.5714,70.85988 33.7857,36.8436 62.39289,67.08949 63.57146,67.21309 1.17857,0.12371 2.14285,-75.20977 2.14285,-167.40745 0,-151.974011 -0.44168,-168.120228 -4.72854,-172.857148 -4.50771,-4.980963 -15.67206,-5.224974 -239.06077,-5.224974 -214.0391,0 -234.7846,0.409491 -239.5571,4.728537 -4.9493,4.478977 -5.225,13.610691 -5.225,173.025765 0,103.15678 1.0296,167.6609 2.66,166.65324 1.463,-0.9042 38.9147,-45.43211 83.2258,-98.95094 z"
       id="path4567"
       inkscape:connector-curvature="0"
       transform="scale(0.26458333)" />
    <path
       style="fill:#2488ff;fill-opacity:0;stroke-width:2.85714293"
       d="m -1483.3865,454.90923 c -18.7845,-8.16992 -18.0421,1.69543 -18.0421,-239.74273 V -3.327599 l 7.3265,-8.707054 c 4.0296,-4.788879 12.0653,-10.023213 17.8572,-11.631852 14.4519,-4.013906 498.0379,-4.013906 512.48981,0 5.79186,1.608639 13.82758,6.842973 17.85715,11.631852 l 7.32651,8.707054 V 215.1665 c 0,242.35536 0.828,231.71744 -18.66943,239.86399 -14.2824,5.96757 -512.41004,5.85277 -526.14564,-0.12115 z m 104.9866,-196.0758 c 48.7492,-58.87904 83.4791,-98.41457 87.9428,-100.11166 13.0594,-4.96518 21.1236,-0.0499 48.981,29.85444 53.6874,57.63233 58.4139,61.94348 67.912,61.94348 6.3476,0 13.5031,-3.94759 25.8381,-14.25449 21.2022,-17.71615 28.2515,-20.60711 37.726,-15.47177 3.9286,2.12934 34.7857,34.01629 68.5714,70.85988 33.7857,36.8436 62.39289,67.08949 63.57146,67.21309 1.17857,0.12371 2.14285,-75.20977 2.14285,-167.40745 0,-151.974011 -0.44168,-168.120228 -4.72854,-172.857148 -4.50771,-4.980963 -15.67206,-5.224974 -239.06077,-5.224974 -214.0391,0 -234.7846,0.409491 -239.5571,4.728537 -4.9493,4.478977 -5.225,13.610691 -5.225,173.025765 0,103.15678 1.0296,167.6609 2.66,166.65324 1.463,-0.9042 38.9147,-45.43211 83.2258,-98.95094 z"
       id="path4569"
       inkscape:connector-curvature="0"
       transform="scale(0.26458333)" />
    <path
       style="fill:#2488ff;fill-opacity:0;stroke-width:2.85714293"
       d="m -1483.3865,454.90923 c -18.7845,-8.16992 -18.0421,1.69543 -18.0421,-239.74273 V -3.327599 l 7.3265,-8.707054 c 4.0296,-4.788879 12.0653,-10.023213 17.8572,-11.631852 14.4519,-4.013906 498.0379,-4.013906 512.48981,0 5.79186,1.608639 13.82758,6.842973 17.85715,11.631852 l 7.32651,8.707054 V 215.1665 c 0,242.35536 0.828,231.71744 -18.66943,239.86399 -14.2824,5.96757 -512.41004,5.85277 -526.14564,-0.12115 z m 104.9866,-196.0758 c 48.7492,-58.87904 83.4791,-98.41457 87.9428,-100.11166 13.0594,-4.96518 21.1236,-0.0499 48.981,29.85444 53.6874,57.63233 58.4139,61.94348 67.912,61.94348 6.3476,0 13.5031,-3.94759 25.8381,-14.25449 21.2022,-17.71615 28.2515,-20.60711 37.726,-15.47177 3.9286,2.12934 34.7857,34.01629 68.5714,70.85988 33.7857,36.8436 62.39289,67.08949 63.57146,67.21309 1.17857,0.12371 2.14285,-75.20977 2.14285,-167.40745 0,-151.974011 -0.44168,-168.120228 -4.72854,-172.857148 -4.50771,-4.980963 -15.67206,-5.224974 -239.06077,-5.224974 -214.0391,0 -234.7846,0.409491 -239.5571,4.728537 -4.9493,4.478977 -5.225,13.610691 -5.225,173.025765 0,103.15678 1.0296,167.6609 2.66,166.65324 1.463,-0.9042 38.9147,-45.43211 83.2258,-98.95094 z"
       id="path4571"
       inkscape:connector-curvature="0"
       transform="scale(0.26458333)" />
    <path
       style="fill:#2488ff;fill-opacity:0;stroke-width:1.42857146"
       d="m -1478.7736,457.71044 c -8.3908,-2.62016 -15.2254,-8.16361 -19.9278,-16.1631 l -3.9604,-6.7373 V 216.9529 -0.90424612 l 3.0834,-5.71428568 c 4.0366,-7.4805882 9.7048,-12.7251542 17.6309,-16.3129812 6.3895,-2.892334 7.9709,-2.910127 260.7143,-2.933392 170.8592,-0.01573 256.03141,0.461429 259.60672,1.454384 7.95465,2.209198 16.92202,9.785397 21.02952,17.7670406 l 3.64943,7.09153571 V 216.91477 433.38147 l -4.23182,7.64 c -4.65464,8.40338 -12.53448,14.70208 -21.50998,17.19387 -9.0909,2.52383 -507.94787,2.03577 -516.08427,-0.5049 z m 136.1118,-243.21256 c 22.7857,-27.52341 43.5593,-51.52045 46.1635,-53.32674 6.4972,-4.50646 18.5085,-5.44426 26.0681,-2.03534 4.0764,1.83818 16.4159,14.19965 44.2426,44.32121 23.0611,24.96292 40.5319,42.69376 43.4165,44.06254 11.1911,5.31052 17.5254,2.82672 39.16,-15.35538 16.6966,-14.03203 21.0823,-16.17429 29.7745,-14.54363 6.02,1.12936 0.8596,-4.08927 76.8891,77.75641 l 59.99997,64.58995 0.36308,-166.65725 c 0.28612,-131.324453 -0.0167,-167.431036 -1.42857,-170.307088 -0.98541,-2.007418 -3.60663,-4.993381 -5.82493,-6.635472 l -4.03328,-2.985622 h -230.96667 c -185.6062,0 -231.8251,0.362596 -235.3374,1.846262 -9.8438,4.158271 -9.2008,-8.242849 -9.2008,177.45997 v 167.43681 l 39.6429,-47.79201 c 21.8035,-26.28562 58.2857,-70.31119 81.0714,-97.83462 z"
       id="path4573"
       inkscape:connector-curvature="0"
       transform="scale(0.26458333)" />
    <path
       style="fill:#2488ff;fill-opacity:0;stroke-width:1.42857146"
       d="m -1478.7736,457.71044 c -8.3908,-2.62016 -15.2254,-8.16361 -19.9278,-16.1631 l -3.9604,-6.7373 V 216.9529 -0.90424612 l 3.0834,-5.71428568 c 4.0366,-7.4805882 9.7048,-12.7251542 17.6309,-16.3129812 6.3895,-2.892334 7.9709,-2.910127 260.7143,-2.933392 170.8592,-0.01573 256.03141,0.461429 259.60672,1.454384 7.95465,2.209198 16.92202,9.785397 21.02952,17.7670406 l 3.64943,7.09153571 V 216.91477 433.38147 l -4.23182,7.64 c -4.65464,8.40338 -12.53448,14.70208 -21.50998,17.19387 -9.0909,2.52383 -507.94787,2.03577 -516.08427,-0.5049 z m 136.1118,-243.21256 c 22.7857,-27.52341 43.5593,-51.52045 46.1635,-53.32674 6.4972,-4.50646 18.5085,-5.44426 26.0681,-2.03534 4.0764,1.83818 16.4159,14.19965 44.2426,44.32121 23.0611,24.96292 40.5319,42.69376 43.4165,44.06254 11.1911,5.31052 17.5254,2.82672 39.16,-15.35538 16.6966,-14.03203 21.0823,-16.17429 29.7745,-14.54363 6.02,1.12936 0.8596,-4.08927 76.8891,77.75641 l 59.99997,64.58995 0.36308,-166.65725 c 0.28612,-131.324453 -0.0167,-167.431036 -1.42857,-170.307088 -0.98541,-2.007418 -3.60663,-4.993381 -5.82493,-6.635472 l -4.03328,-2.985622 h -230.96667 c -185.6062,0 -231.8251,0.362596 -235.3374,1.846262 -9.8438,4.158271 -9.2008,-8.242849 -9.2008,177.45997 v 167.43681 l 39.6429,-47.79201 c 21.8035,-26.28562 58.2857,-70.31119 81.0714,-97.83462 z"
       id="path4575"
       inkscape:connector-curvature="0"
       transform="scale(0.26458333)" />
    <path
       style="fill:#2488ff;fill-opacity:0;stroke-width:1.42857146"
       d="m -1478.7736,457.71044 c -8.3908,-2.62016 -15.2254,-8.16361 -19.9278,-16.1631 l -3.9604,-6.7373 V 216.9529 -0.90424612 l 3.0834,-5.71428568 c 4.0366,-7.4805882 9.7048,-12.7251542 17.6309,-16.3129812 6.3895,-2.892334 7.9709,-2.910127 260.7143,-2.933392 170.8592,-0.01573 256.03141,0.461429 259.60672,1.454384 7.95465,2.209198 16.92202,9.785397 21.02952,17.7670406 l 3.64943,7.09153571 V 216.91477 433.38147 l -4.23182,7.64 c -4.65464,8.40338 -12.53448,14.70208 -21.50998,17.19387 -9.0909,2.52383 -507.94787,2.03577 -516.08427,-0.5049 z m 136.1118,-243.21256 c 22.7857,-27.52341 43.5593,-51.52045 46.1635,-53.32674 6.4972,-4.50646 18.5085,-5.44426 26.0681,-2.03534 4.0764,1.83818 16.4159,14.19965 44.2426,44.32121 23.0611,24.96292 40.5319,42.69376 43.4165,44.06254 11.1911,5.31052 17.5254,2.82672 39.16,-15.35538 16.6966,-14.03203 21.0823,-16.17429 29.7745,-14.54363 6.02,1.12936 0.8596,-4.08927 76.8891,77.75641 l 59.99997,64.58995 0.36308,-166.65725 c 0.28612,-131.324453 -0.0167,-167.431036 -1.42857,-170.307088 -0.98541,-2.007418 -3.60663,-4.993381 -5.82493,-6.635472 l -4.03328,-2.985622 h -230.96667 c -185.6062,0 -231.8251,0.362596 -235.3374,1.846262 -9.8438,4.158271 -9.2008,-8.242849 -9.2008,177.45997 v 167.43681 l 39.6429,-47.79201 c 21.8035,-26.28562 58.2857,-70.31119 81.0714,-97.83462 z"
       id="path4577"
       inkscape:connector-curvature="0"
       transform="scale(0.26458333)" />
    <path
       style="fill:#2488ff;fill-opacity:0;stroke-width:1.42857146"
       d="m -1478.7736,457.71044 c -8.3908,-2.62016 -15.2254,-8.16361 -19.9278,-16.1631 l -3.9604,-6.7373 V 216.9529 -0.90424612 l 3.0834,-5.71428568 c 4.0366,-7.4805882 9.7048,-12.7251542 17.6309,-16.3129812 6.3895,-2.892334 7.9709,-2.910127 260.7143,-2.933392 170.8592,-0.01573 256.03141,0.461429 259.60672,1.454384 7.95465,2.209198 16.92202,9.785397 21.02952,17.7670406 l 3.64943,7.09153571 V 216.91477 433.38147 l -4.23182,7.64 c -4.65464,8.40338 -12.53448,14.70208 -21.50998,17.19387 -9.0909,2.52383 -507.94787,2.03577 -516.08427,-0.5049 z m 136.1118,-243.21256 c 22.7857,-27.52341 43.5593,-51.52045 46.1635,-53.32674 6.4972,-4.50646 18.5085,-5.44426 26.0681,-2.03534 4.0764,1.83818 16.4159,14.19965 44.2426,44.32121 23.0611,24.96292 40.5319,42.69376 43.4165,44.06254 11.1911,5.31052 17.5254,2.82672 39.16,-15.35538 16.6966,-14.03203 21.0823,-16.17429 29.7745,-14.54363 6.02,1.12936 0.8596,-4.08927 76.8891,77.75641 l 59.99997,64.58995 0.36308,-166.65725 c 0.28612,-131.324453 -0.0167,-167.431036 -1.42857,-170.307088 -0.98541,-2.007418 -3.60663,-4.993381 -5.82493,-6.635472 l -4.03328,-2.985622 h -230.96667 c -185.6062,0 -231.8251,0.362596 -235.3374,1.846262 -9.8438,4.158271 -9.2008,-8.242849 -9.2008,177.45997 v 167.43681 l 39.6429,-47.79201 c 21.8035,-26.28562 58.2857,-70.31119 81.0714,-97.83462 z"
       id="path4579"
       inkscape:connector-curvature="0"
       transform="scale(0.26458333)" />
    <path
       style="fill:#2488ff;fill-opacity:0;stroke-width:1.42857146"
       d="m -1478.7736,457.71044 c -8.3908,-2.62016 -15.2254,-8.16361 -19.9278,-16.1631 l -3.9604,-6.7373 V 216.9529 -0.90424612 l 3.0834,-5.71428568 c 4.0366,-7.4805882 9.7048,-12.7251542 17.6309,-16.3129812 6.3895,-2.892334 7.9709,-2.910127 260.7143,-2.933392 170.8592,-0.01573 256.03141,0.461429 259.60672,1.454384 7.95465,2.209198 16.92202,9.785397 21.02952,17.7670406 l 3.64943,7.09153571 V 216.91477 433.38147 l -4.23182,7.64 c -4.65464,8.40338 -12.53448,14.70208 -21.50998,17.19387 -9.0909,2.52383 -507.94787,2.03577 -516.08427,-0.5049 z m 136.1118,-243.21256 c 22.7857,-27.52341 43.5593,-51.52045 46.1635,-53.32674 6.4972,-4.50646 18.5085,-5.44426 26.0681,-2.03534 4.0764,1.83818 16.4159,14.19965 44.2426,44.32121 23.0611,24.96292 40.5319,42.69376 43.4165,44.06254 11.1911,5.31052 17.5254,2.82672 39.16,-15.35538 16.6966,-14.03203 21.0823,-16.17429 29.7745,-14.54363 6.02,1.12936 0.8596,-4.08927 76.8891,77.75641 l 59.99997,64.58995 0.36308,-166.65725 c 0.28612,-131.324453 -0.0167,-167.431036 -1.42857,-170.307088 -0.98541,-2.007418 -3.60663,-4.993381 -5.82493,-6.635472 l -4.03328,-2.985622 h -230.96667 c -185.6062,0 -231.8251,0.362596 -235.3374,1.846262 -9.8438,4.158271 -9.2008,-8.242849 -9.2008,177.45997 v 167.43681 l 39.6429,-47.79201 c 21.8035,-26.28562 58.2857,-70.31119 81.0714,-97.83462 z"
       id="path4581"
       inkscape:connector-curvature="0"
       transform="scale(0.26458333)" />
    <path
       style="fill:#2488ff;fill-opacity:0;stroke-width:1.42857146"
       d="m -1478.7736,457.71044 c -8.3908,-2.62016 -15.2254,-8.16361 -19.9278,-16.1631 l -3.9604,-6.7373 V 216.9529 -0.90424612 l 3.0834,-5.71428568 c 4.0366,-7.4805882 9.7048,-12.7251542 17.6309,-16.3129812 6.3895,-2.892334 7.9709,-2.910127 260.7143,-2.933392 170.8592,-0.01573 256.03141,0.461429 259.60672,1.454384 7.95465,2.209198 16.92202,9.785397 21.02952,17.7670406 l 3.64943,7.09153571 V 216.91477 433.38147 l -4.23182,7.64 c -4.65464,8.40338 -12.53448,14.70208 -21.50998,17.19387 -9.0909,2.52383 -507.94787,2.03577 -516.08427,-0.5049 z m 136.1118,-243.21256 c 22.7857,-27.52341 43.5593,-51.52045 46.1635,-53.32674 6.4972,-4.50646 18.5085,-5.44426 26.0681,-2.03534 4.0764,1.83818 16.4159,14.19965 44.2426,44.32121 23.0611,24.96292 40.5319,42.69376 43.4165,44.06254 11.1911,5.31052 17.5254,2.82672 39.16,-15.35538 16.6966,-14.03203 21.0823,-16.17429 29.7745,-14.54363 6.02,1.12936 0.8596,-4.08927 76.8891,77.75641 l 59.99997,64.58995 0.36308,-166.65725 c 0.28612,-131.324453 -0.0167,-167.431036 -1.42857,-170.307088 -0.98541,-2.007418 -3.60663,-4.993381 -5.82493,-6.635472 l -4.03328,-2.985622 h -230.96667 c -185.6062,0 -231.8251,0.362596 -235.3374,1.846262 -9.8438,4.158271 -9.2008,-8.242849 -9.2008,177.45997 v 167.43681 l 39.6429,-47.79201 c 21.8035,-26.28562 58.2857,-70.31119 81.0714,-97.83462 z"
       id="path4583"
       inkscape:connector-curvature="0"
       transform="scale(0.26458333)" />
    <path
       style="fill:#2488ff;fill-opacity:0;stroke-width:1.42857146"
       d="m -1478.7736,457.71044 c -8.3908,-2.62016 -15.2254,-8.16361 -19.9278,-16.1631 l -3.9604,-6.7373 V 216.9529 -0.90424612 l 3.0834,-5.71428568 c 4.0366,-7.4805882 9.7048,-12.7251542 17.6309,-16.3129812 6.3895,-2.892334 7.9709,-2.910127 260.7143,-2.933392 170.8592,-0.01573 256.03141,0.461429 259.60672,1.454384 7.95465,2.209198 16.92202,9.785397 21.02952,17.7670406 l 3.64943,7.09153571 V 216.91477 433.38147 l -4.23182,7.64 c -4.65464,8.40338 -12.53448,14.70208 -21.50998,17.19387 -9.0909,2.52383 -507.94787,2.03577 -516.08427,-0.5049 z m 136.1118,-243.21256 c 22.7857,-27.52341 43.5593,-51.52045 46.1635,-53.32674 6.4972,-4.50646 18.5085,-5.44426 26.0681,-2.03534 4.0764,1.83818 16.4159,14.19965 44.2426,44.32121 23.0611,24.96292 40.5319,42.69376 43.4165,44.06254 11.1911,5.31052 17.5254,2.82672 39.16,-15.35538 16.6966,-14.03203 21.0823,-16.17429 29.7745,-14.54363 6.02,1.12936 0.8596,-4.08927 76.8891,77.75641 l 59.99997,64.58995 0.36308,-166.65725 c 0.28612,-131.324453 -0.0167,-167.431036 -1.42857,-170.307088 -0.98541,-2.007418 -3.60663,-4.993381 -5.82493,-6.635472 l -4.03328,-2.985622 h -230.96667 c -185.6062,0 -231.8251,0.362596 -235.3374,1.846262 -9.8438,4.158271 -9.2008,-8.242849 -9.2008,177.45997 v 167.43681 l 39.6429,-47.79201 c 21.8035,-26.28562 58.2857,-70.31119 81.0714,-97.83462 z"
       id="path4585"
       inkscape:connector-curvature="0"
       transform="scale(0.26458333)" />
    <path
       style="fill:#2488ff;fill-opacity:0;stroke-width:1.42857146"
       d="m -1478.7736,457.71044 c -8.3908,-2.62016 -15.2254,-8.16361 -19.9278,-16.1631 l -3.9604,-6.7373 V 216.9529 -0.90424612 l 3.0834,-5.71428568 c 4.0366,-7.4805882 9.7048,-12.7251542 17.6309,-16.3129812 6.3895,-2.892334 7.9709,-2.910127 260.7143,-2.933392 170.8592,-0.01573 256.03141,0.461429 259.60672,1.454384 7.95465,2.209198 16.92202,9.785397 21.02952,17.7670406 l 3.64943,7.09153571 V 216.91477 433.38147 l -4.23182,7.64 c -4.65464,8.40338 -12.53448,14.70208 -21.50998,17.19387 -9.0909,2.52383 -507.94787,2.03577 -516.08427,-0.5049 z m 136.1118,-243.21256 c 22.7857,-27.52341 43.5593,-51.52045 46.1635,-53.32674 6.4972,-4.50646 18.5085,-5.44426 26.0681,-2.03534 4.0764,1.83818 16.4159,14.19965 44.2426,44.32121 23.0611,24.96292 40.5319,42.69376 43.4165,44.06254 11.1911,5.31052 17.5254,2.82672 39.16,-15.35538 16.6966,-14.03203 21.0823,-16.17429 29.7745,-14.54363 6.02,1.12936 0.8596,-4.08927 76.8891,77.75641 l 59.99997,64.58995 0.36308,-166.65725 c 0.28612,-131.324453 -0.0167,-167.431036 -1.42857,-170.307088 -0.98541,-2.007418 -3.60663,-4.993381 -5.82493,-6.635472 l -4.03328,-2.985622 h -230.96667 c -185.6062,0 -231.8251,0.362596 -235.3374,1.846262 -9.8438,4.158271 -9.2008,-8.242849 -9.2008,177.45997 v 167.43681 l 39.6429,-47.79201 c 21.8035,-26.28562 58.2857,-70.31119 81.0714,-97.83462 z"
       id="path4587"
       inkscape:connector-curvature="0"
       transform="scale(0.26458333)" />
    <path
       style="fill:#2488ff;fill-opacity:0;stroke-width:1.42857146"
       d="m -1478.7736,457.71044 c -8.3908,-2.62016 -15.2254,-8.16361 -19.9278,-16.1631 l -3.9604,-6.7373 V 216.9529 -0.90424612 l 3.0834,-5.71428568 c 4.0366,-7.4805882 9.7048,-12.7251542 17.6309,-16.3129812 6.3895,-2.892334 7.9709,-2.910127 260.7143,-2.933392 170.8592,-0.01573 256.03141,0.461429 259.60672,1.454384 7.95465,2.209198 16.92202,9.785397 21.02952,17.7670406 l 3.64943,7.09153571 V 216.91477 433.38147 l -4.23182,7.64 c -4.65464,8.40338 -12.53448,14.70208 -21.50998,17.19387 -9.0909,2.52383 -507.94787,2.03577 -516.08427,-0.5049 z m 136.1118,-243.21256 c 22.7857,-27.52341 43.5593,-51.52045 46.1635,-53.32674 6.4972,-4.50646 18.5085,-5.44426 26.0681,-2.03534 4.0764,1.83818 16.4159,14.19965 44.2426,44.32121 23.0611,24.96292 40.5319,42.69376 43.4165,44.06254 11.1911,5.31052 17.5254,2.82672 39.16,-15.35538 16.6966,-14.03203 21.0823,-16.17429 29.7745,-14.54363 6.02,1.12936 0.8596,-4.08927 76.8891,77.75641 l 59.99997,64.58995 0.36308,-166.65725 c 0.28612,-131.324453 -0.0167,-167.431036 -1.42857,-170.307088 -0.98541,-2.007418 -3.60663,-4.993381 -5.82493,-6.635472 l -4.03328,-2.985622 h -230.96667 c -185.6062,0 -231.8251,0.362596 -235.3374,1.846262 -9.8438,4.158271 -9.2008,-8.242849 -9.2008,177.45997 v 167.43681 l 39.6429,-47.79201 c 21.8035,-26.28562 58.2857,-70.31119 81.0714,-97.83462 z"
       id="path4589"
       inkscape:connector-curvature="0"
       transform="scale(0.26458333)" />
    <path
       style="fill:#2488ff;fill-opacity:0;stroke-width:1.42857146"
       d="m -1478.7736,457.71044 c -8.3908,-2.62016 -15.2254,-8.16361 -19.9278,-16.1631 l -3.9604,-6.7373 V 216.9529 -0.90424612 l 3.0834,-5.71428568 c 4.0366,-7.4805882 9.7048,-12.7251542 17.6309,-16.3129812 6.3895,-2.892334 7.9709,-2.910127 260.7143,-2.933392 170.8592,-0.01573 256.03141,0.461429 259.60672,1.454384 7.95465,2.209198 16.92202,9.785397 21.02952,17.7670406 l 3.64943,7.09153571 V 216.91477 433.38147 l -4.23182,7.64 c -4.65464,8.40338 -12.53448,14.70208 -21.50998,17.19387 -9.0909,2.52383 -507.94787,2.03577 -516.08427,-0.5049 z m 136.1118,-243.21256 c 22.7857,-27.52341 43.5593,-51.52045 46.1635,-53.32674 6.4972,-4.50646 18.5085,-5.44426 26.0681,-2.03534 4.0764,1.83818 16.4159,14.19965 44.2426,44.32121 23.0611,24.96292 40.5319,42.69376 43.4165,44.06254 11.1911,5.31052 17.5254,2.82672 39.16,-15.35538 16.6966,-14.03203 21.0823,-16.17429 29.7745,-14.54363 6.02,1.12936 0.8596,-4.08927 76.8891,77.75641 l 59.99997,64.58995 0.36308,-166.65725 c 0.28612,-131.324453 -0.0167,-167.431036 -1.42857,-170.307088 -0.98541,-2.007418 -3.60663,-4.993381 -5.82493,-6.635472 l -4.03328,-2.985622 h -230.96667 c -185.6062,0 -231.8251,0.362596 -235.3374,1.846262 -9.8438,4.158271 -9.2008,-8.242849 -9.2008,177.45997 v 167.43681 l 39.6429,-47.79201 c 21.8035,-26.28562 58.2857,-70.31119 81.0714,-97.83462 z"
       id="path4591"
       inkscape:connector-curvature="0"
       transform="scale(0.26458333)" />
    <path
       style="fill:#2488ff;fill-opacity:0;stroke-width:1.42857146"
       d="m -1478.7736,457.71044 c -8.3908,-2.62016 -15.2254,-8.16361 -19.9278,-16.1631 l -3.9604,-6.7373 V 216.9529 -0.90424612 l 3.0834,-5.71428568 c 4.0366,-7.4805882 9.7048,-12.7251542 17.6309,-16.3129812 6.3895,-2.892334 7.9709,-2.910127 260.7143,-2.933392 170.8592,-0.01573 256.03141,0.461429 259.60672,1.454384 7.95465,2.209198 16.92202,9.785397 21.02952,17.7670406 l 3.64943,7.09153571 V 216.91477 433.38147 l -4.23182,7.64 c -4.65464,8.40338 -12.53448,14.70208 -21.50998,17.19387 -9.0909,2.52383 -507.94787,2.03577 -516.08427,-0.5049 z m 136.1118,-243.21256 c 22.7857,-27.52341 43.5593,-51.52045 46.1635,-53.32674 6.4972,-4.50646 18.5085,-5.44426 26.0681,-2.03534 4.0764,1.83818 16.4159,14.19965 44.2426,44.32121 23.0611,24.96292 40.5319,42.69376 43.4165,44.06254 11.1911,5.31052 17.5254,2.82672 39.16,-15.35538 16.6966,-14.03203 21.0823,-16.17429 29.7745,-14.54363 6.02,1.12936 0.8596,-4.08927 76.8891,77.75641 l 59.99997,64.58995 0.36308,-166.65725 c 0.28612,-131.324453 -0.0167,-167.431036 -1.42857,-170.307088 -0.98541,-2.007418 -3.60663,-4.993381 -5.82493,-6.635472 l -4.03328,-2.985622 h -230.96667 c -185.6062,0 -231.8251,0.362596 -235.3374,1.846262 -9.8438,4.158271 -9.2008,-8.242849 -9.2008,177.45997 v 167.43681 l 39.6429,-47.79201 c 21.8035,-26.28562 58.2857,-70.31119 81.0714,-97.83462 z"
       id="path4593"
       inkscape:connector-curvature="0"
       transform="scale(0.26458333)" />
    <path
       style="fill:#2488ff;fill-opacity:0;stroke-width:1.42857146"
       d="m -1478.7736,457.71044 c -8.3908,-2.62016 -15.2254,-8.16361 -19.9278,-16.1631 l -3.9604,-6.7373 V 216.9529 -0.90424612 l 3.0834,-5.71428568 c 4.0366,-7.4805882 9.7048,-12.7251542 17.6309,-16.3129812 6.3895,-2.892334 7.9709,-2.910127 260.7143,-2.933392 170.8592,-0.01573 256.03141,0.461429 259.60672,1.454384 7.95465,2.209198 16.92202,9.785397 21.02952,17.7670406 l 3.64943,7.09153571 V 216.91477 433.38147 l -4.23182,7.64 c -4.65464,8.40338 -12.53448,14.70208 -21.50998,17.19387 -9.0909,2.52383 -507.94787,2.03577 -516.08427,-0.5049 z m 136.1118,-243.21256 c 22.7857,-27.52341 43.5593,-51.52045 46.1635,-53.32674 6.4972,-4.50646 18.5085,-5.44426 26.0681,-2.03534 4.0764,1.83818 16.4159,14.19965 44.2426,44.32121 23.0611,24.96292 40.5319,42.69376 43.4165,44.06254 11.1911,5.31052 17.5254,2.82672 39.16,-15.35538 16.6966,-14.03203 21.0823,-16.17429 29.7745,-14.54363 6.02,1.12936 0.8596,-4.08927 76.8891,77.75641 l 59.99997,64.58995 0.36308,-166.65725 c 0.28612,-131.324453 -0.0167,-167.431036 -1.42857,-170.307088 -0.98541,-2.007418 -3.60663,-4.993381 -5.82493,-6.635472 l -4.03328,-2.985622 h -230.96667 c -185.6062,0 -231.8251,0.362596 -235.3374,1.846262 -9.8438,4.158271 -9.2008,-8.242849 -9.2008,177.45997 v 167.43681 l 39.6429,-47.79201 c 21.8035,-26.28562 58.2857,-70.31119 81.0714,-97.83462 z"
       id="path4595"
       inkscape:connector-curvature="0"
       transform="scale(0.26458333)" />
    <path
       style="fill:#248853;fill-opacity:0;stroke-width:1.42857146"
       d="m -1478.7736,457.71044 c -8.3908,-2.62016 -15.2254,-8.16361 -19.9278,-16.1631 l -3.9604,-6.7373 V 216.9529 -0.90424612 l 3.0834,-5.71428568 c 4.0366,-7.4805882 9.7048,-12.7251542 17.6309,-16.3129812 6.3895,-2.892334 7.9709,-2.910127 260.7143,-2.933392 170.8592,-0.01573 256.03141,0.461429 259.60672,1.454384 7.95465,2.209198 16.92202,9.785397 21.02952,17.7670406 l 3.64943,7.09153571 V 216.91477 433.38147 l -4.23182,7.64 c -4.65464,8.40338 -12.53448,14.70208 -21.50998,17.19387 -9.0909,2.52383 -507.94787,2.03577 -516.08427,-0.5049 z m 136.1118,-243.21256 c 22.7857,-27.52341 43.5593,-51.52045 46.1635,-53.32674 6.4972,-4.50646 18.5085,-5.44426 26.0681,-2.03534 4.0764,1.83818 16.4159,14.19965 44.2426,44.32121 23.0611,24.96292 40.5319,42.69376 43.4165,44.06254 11.1911,5.31052 17.5254,2.82672 39.16,-15.35538 16.6966,-14.03203 21.0823,-16.17429 29.7745,-14.54363 6.02,1.12936 0.8596,-4.08927 76.8891,77.75641 l 59.99997,64.58995 0.36308,-166.65725 c 0.28612,-131.324453 -0.0167,-167.431036 -1.42857,-170.307088 -0.98541,-2.007418 -3.60663,-4.993381 -5.82493,-6.635472 l -4.03328,-2.985622 h -230.96667 c -185.6062,0 -231.8251,0.362596 -235.3374,1.846262 -9.8438,4.158271 -9.2008,-8.242849 -9.2008,177.45997 v 167.43681 l 39.6429,-47.79201 c 21.8035,-26.28562 58.2857,-70.31119 81.0714,-97.83462 z"
       id="path4597"
       inkscape:connector-curvature="0"
       transform="scale(0.26458333)" />
    <path
       style="fill:#248853;fill-opacity:0;stroke-width:1.42857146"
       d="m -1478.7736,457.71044 c -8.3908,-2.62016 -15.2254,-8.16361 -19.9278,-16.1631 l -3.9604,-6.7373 V 216.9529 -0.90424612 l 3.0834,-5.71428568 c 4.0366,-7.4805882 9.7048,-12.7251542 17.6309,-16.3129812 6.3895,-2.892334 7.9709,-2.910127 260.7143,-2.933392 170.8592,-0.01573 256.03141,0.461429 259.60672,1.454384 7.95465,2.209198 16.92202,9.785397 21.02952,17.7670406 l 3.64943,7.09153571 V 216.91477 433.38147 l -4.23182,7.64 c -4.65464,8.40338 -12.53448,14.70208 -21.50998,17.19387 -9.0909,2.52383 -507.94787,2.03577 -516.08427,-0.5049 z m 136.1118,-243.21256 c 22.7857,-27.52341 43.5593,-51.52045 46.1635,-53.32674 6.4972,-4.50646 18.5085,-5.44426 26.0681,-2.03534 4.0764,1.83818 16.4159,14.19965 44.2426,44.32121 23.0611,24.96292 40.5319,42.69376 43.4165,44.06254 11.1911,5.31052 17.5254,2.82672 39.16,-15.35538 16.6966,-14.03203 21.0823,-16.17429 29.7745,-14.54363 6.02,1.12936 0.8596,-4.08927 76.8891,77.75641 l 59.99997,64.58995 0.36308,-166.65725 c 0.28612,-131.324453 -0.0167,-167.431036 -1.42857,-170.307088 -0.98541,-2.007418 -3.60663,-4.993381 -5.82493,-6.635472 l -4.03328,-2.985622 h -230.96667 c -185.6062,0 -231.8251,0.362596 -235.3374,1.846262 -9.8438,4.158271 -9.2008,-8.242849 -9.2008,177.45997 v 167.43681 l 39.6429,-47.79201 c 21.8035,-26.28562 58.2857,-70.31119 81.0714,-97.83462 z"
       id="path4599"
       inkscape:connector-curvature="0"
       transform="scale(0.26458333)" />
    <path
       style="fill:#248853;fill-opacity:0;stroke-width:1.42857146"
       d="m -1478.7736,457.71044 c -8.3908,-2.62016 -15.2254,-8.16361 -19.9278,-16.1631 l -3.9604,-6.7373 V 216.9529 -0.90424612 l 3.0834,-5.71428568 c 4.0366,-7.4805882 9.7048,-12.7251542 17.6309,-16.3129812 6.3895,-2.892334 7.9709,-2.910127 260.7143,-2.933392 170.8592,-0.01573 256.03141,0.461429 259.60672,1.454384 7.95465,2.209198 16.92202,9.785397 21.02952,17.7670406 l 3.64943,7.09153571 V 216.91477 433.38147 l -4.23182,7.64 c -4.65464,8.40338 -12.53448,14.70208 -21.50998,17.19387 -9.0909,2.52383 -507.94787,2.03577 -516.08427,-0.5049 z m 136.1118,-243.21256 c 22.7857,-27.52341 43.5593,-51.52045 46.1635,-53.32674 6.4972,-4.50646 18.5085,-5.44426 26.0681,-2.03534 4.0764,1.83818 16.4159,14.19965 44.2426,44.32121 23.0611,24.96292 40.5319,42.69376 43.4165,44.06254 11.1911,5.31052 17.5254,2.82672 39.16,-15.35538 16.6966,-14.03203 21.0823,-16.17429 29.7745,-14.54363 6.02,1.12936 0.8596,-4.08927 76.8891,77.75641 l 59.99997,64.58995 0.36308,-166.65725 c 0.28612,-131.324453 -0.0167,-167.431036 -1.42857,-170.307088 -0.98541,-2.007418 -3.60663,-4.993381 -5.82493,-6.635472 l -4.03328,-2.985622 h -230.96667 c -185.6062,0 -231.8251,0.362596 -235.3374,1.846262 -9.8438,4.158271 -9.2008,-8.242849 -9.2008,177.45997 v 167.43681 l 39.6429,-47.79201 c 21.8035,-26.28562 58.2857,-70.31119 81.0714,-97.83462 z"
       id="path4601"
       inkscape:connector-curvature="0"
       transform="scale(0.26458333)" />
    <path
       style="fill:#248853;fill-opacity:0;stroke-width:1.42857146"
       d="m -1478.7736,457.71044 c -8.3908,-2.62016 -15.2254,-8.16361 -19.9278,-16.1631 l -3.9604,-6.7373 V 216.9529 -0.90424612 l 3.0834,-5.71428568 c 4.0366,-7.4805882 9.7048,-12.7251542 17.6309,-16.3129812 6.3895,-2.892334 7.9709,-2.910127 260.7143,-2.933392 170.8592,-0.01573 256.03141,0.461429 259.60672,1.454384 7.95465,2.209198 16.92202,9.785397 21.02952,17.7670406 l 3.64943,7.09153571 V 216.91477 433.38147 l -4.23182,7.64 c -4.65464,8.40338 -12.53448,14.70208 -21.50998,17.19387 -9.0909,2.52383 -507.94787,2.03577 -516.08427,-0.5049 z m 136.1118,-243.21256 c 22.7857,-27.52341 43.5593,-51.52045 46.1635,-53.32674 6.4972,-4.50646 18.5085,-5.44426 26.0681,-2.03534 4.0764,1.83818 16.4159,14.19965 44.2426,44.32121 23.0611,24.96292 40.5319,42.69376 43.4165,44.06254 11.1911,5.31052 17.5254,2.82672 39.16,-15.35538 16.6966,-14.03203 21.0823,-16.17429 29.7745,-14.54363 6.02,1.12936 0.8596,-4.08927 76.8891,77.75641 l 59.99997,64.58995 0.36308,-166.65725 c 0.28612,-131.324453 -0.0167,-167.431036 -1.42857,-170.307088 -0.98541,-2.007418 -3.60663,-4.993381 -5.82493,-6.635472 l -4.03328,-2.985622 h -230.96667 c -185.6062,0 -231.8251,0.362596 -235.3374,1.846262 -9.8438,4.158271 -9.2008,-8.242849 -9.2008,177.45997 v 167.43681 l 39.6429,-47.79201 c 21.8035,-26.28562 58.2857,-70.31119 81.0714,-97.83462 z"
       id="path4603"
       inkscape:connector-curvature="0"
       transform="scale(0.26458333)" />
    <path
       style="fill:#248853;fill-opacity:0;stroke-width:1.42857146"
       d="m -1478.7736,457.71044 c -8.3908,-2.62016 -15.2254,-8.16361 -19.9278,-16.1631 l -3.9604,-6.7373 V 216.9529 -0.90424612 l 3.0834,-5.71428568 c 4.0366,-7.4805882 9.7048,-12.7251542 17.6309,-16.3129812 6.3895,-2.892334 7.9709,-2.910127 260.7143,-2.933392 170.8592,-0.01573 256.03141,0.461429 259.60672,1.454384 7.95465,2.209198 16.92202,9.785397 21.02952,17.7670406 l 3.64943,7.09153571 V 216.91477 433.38147 l -4.23182,7.64 c -4.65464,8.40338 -12.53448,14.70208 -21.50998,17.19387 -9.0909,2.52383 -507.94787,2.03577 -516.08427,-0.5049 z m 136.1118,-243.21256 c 22.7857,-27.52341 43.5593,-51.52045 46.1635,-53.32674 6.4972,-4.50646 18.5085,-5.44426 26.0681,-2.03534 4.0764,1.83818 16.4159,14.19965 44.2426,44.32121 23.0611,24.96292 40.5319,42.69376 43.4165,44.06254 11.1911,5.31052 17.5254,2.82672 39.16,-15.35538 16.6966,-14.03203 21.0823,-16.17429 29.7745,-14.54363 6.02,1.12936 0.8596,-4.08927 76.8891,77.75641 l 59.99997,64.58995 0.36308,-166.65725 c 0.28612,-131.324453 -0.0167,-167.431036 -1.42857,-170.307088 -0.98541,-2.007418 -3.60663,-4.993381 -5.82493,-6.635472 l -4.03328,-2.985622 h -230.96667 c -185.6062,0 -231.8251,0.362596 -235.3374,1.846262 -9.8438,4.158271 -9.2008,-8.242849 -9.2008,177.45997 v 167.43681 l 39.6429,-47.79201 c 21.8035,-26.28562 58.2857,-70.31119 81.0714,-97.83462 z"
       id="path4605"
       inkscape:connector-curvature="0"
       transform="scale(0.26458333)" />
    <path
       style="fill:#248853;fill-opacity:0;stroke-width:1.42857146"
       d="m -1478.7736,457.71044 c -8.3908,-2.62016 -15.2254,-8.16361 -19.9278,-16.1631 l -3.9604,-6.7373 V 216.9529 -0.90424612 l 3.0834,-5.71428568 c 4.0366,-7.4805882 9.7048,-12.7251542 17.6309,-16.3129812 6.3895,-2.892334 7.9709,-2.910127 260.7143,-2.933392 170.8592,-0.01573 256.03141,0.461429 259.60672,1.454384 7.95465,2.209198 16.92202,9.785397 21.02952,17.7670406 l 3.64943,7.09153571 V 216.91477 433.38147 l -4.23182,7.64 c -4.65464,8.40338 -12.53448,14.70208 -21.50998,17.19387 -9.0909,2.52383 -507.94787,2.03577 -516.08427,-0.5049 z m 136.1118,-243.21256 c 22.7857,-27.52341 43.5593,-51.52045 46.1635,-53.32674 6.4972,-4.50646 18.5085,-5.44426 26.0681,-2.03534 4.0764,1.83818 16.4159,14.19965 44.2426,44.32121 23.0611,24.96292 40.5319,42.69376 43.4165,44.06254 11.1911,5.31052 17.5254,2.82672 39.16,-15.35538 16.6966,-14.03203 21.0823,-16.17429 29.7745,-14.54363 6.02,1.12936 0.8596,-4.08927 76.8891,77.75641 l 59.99997,64.58995 0.36308,-166.65725 c 0.28612,-131.324453 -0.0167,-167.431036 -1.42857,-170.307088 -0.98541,-2.007418 -3.60663,-4.993381 -5.82493,-6.635472 l -4.03328,-2.985622 h -230.96667 c -185.6062,0 -231.8251,0.362596 -235.3374,1.846262 -9.8438,4.158271 -9.2008,-8.242849 -9.2008,177.45997 v 167.43681 l 39.6429,-47.79201 c 21.8035,-26.28562 58.2857,-70.31119 81.0714,-97.83462 z"
       id="path4607"
       inkscape:connector-curvature="0"
       transform="scale(0.26458333)" />
    <path
       style="fill:#248853;fill-opacity:0;stroke-width:1.42857146"
       d="m -1478.7736,457.71044 c -8.3908,-2.62016 -15.2254,-8.16361 -19.9278,-16.1631 l -3.9604,-6.7373 V 216.9529 -0.90424612 l 3.0834,-5.71428568 c 4.0366,-7.4805882 9.7048,-12.7251542 17.6309,-16.3129812 6.3895,-2.892334 7.9709,-2.910127 260.7143,-2.933392 170.8592,-0.01573 256.03141,0.461429 259.60672,1.454384 7.95465,2.209198 16.92202,9.785397 21.02952,17.7670406 l 3.64943,7.09153571 V 216.91477 433.38147 l -4.23182,7.64 c -4.65464,8.40338 -12.53448,14.70208 -21.50998,17.19387 -9.0909,2.52383 -507.94787,2.03577 -516.08427,-0.5049 z m 136.1118,-243.21256 c 22.7857,-27.52341 43.5593,-51.52045 46.1635,-53.32674 6.4972,-4.50646 18.5085,-5.44426 26.0681,-2.03534 4.0764,1.83818 16.4159,14.19965 44.2426,44.32121 23.0611,24.96292 40.5319,42.69376 43.4165,44.06254 11.1911,5.31052 17.5254,2.82672 39.16,-15.35538 16.6966,-14.03203 21.0823,-16.17429 29.7745,-14.54363 6.02,1.12936 0.8596,-4.08927 76.8891,77.75641 l 59.99997,64.58995 0.36308,-166.65725 c 0.28612,-131.324453 -0.0167,-167.431036 -1.42857,-170.307088 -0.98541,-2.007418 -3.60663,-4.993381 -5.82493,-6.635472 l -4.03328,-2.985622 h -230.96667 c -185.6062,0 -231.8251,0.362596 -235.3374,1.846262 -9.8438,4.158271 -9.2008,-8.242849 -9.2008,177.45997 v 167.43681 l 39.6429,-47.79201 c 21.8035,-26.28562 58.2857,-70.31119 81.0714,-97.83462 z"
       id="path4609"
       inkscape:connector-curvature="0"
       transform="scale(0.26458333)" />
    <path
       style="fill:#248853;fill-opacity:0;stroke-width:1.42857146"
       d="m -1478.7736,457.71044 c -8.3908,-2.62016 -15.2254,-8.16361 -19.9278,-16.1631 l -3.9604,-6.7373 V 216.9529 -0.90424612 l 3.0834,-5.71428568 c 4.0366,-7.4805882 9.7048,-12.7251542 17.6309,-16.3129812 6.3895,-2.892334 7.9709,-2.910127 260.7143,-2.933392 170.8592,-0.01573 256.03141,0.461429 259.60672,1.454384 7.95465,2.209198 16.92202,9.785397 21.02952,17.7670406 l 3.64943,7.09153571 V 216.91477 433.38147 l -4.23182,7.64 c -4.65464,8.40338 -12.53448,14.70208 -21.50998,17.19387 -9.0909,2.52383 -507.94787,2.03577 -516.08427,-0.5049 z m 136.1118,-243.21256 c 22.7857,-27.52341 43.5593,-51.52045 46.1635,-53.32674 6.4972,-4.50646 18.5085,-5.44426 26.0681,-2.03534 4.0764,1.83818 16.4159,14.19965 44.2426,44.32121 23.0611,24.96292 40.5319,42.69376 43.4165,44.06254 11.1911,5.31052 17.5254,2.82672 39.16,-15.35538 16.6966,-14.03203 21.0823,-16.17429 29.7745,-14.54363 6.02,1.12936 0.8596,-4.08927 76.8891,77.75641 l 59.99997,64.58995 0.36308,-166.65725 c 0.28612,-131.324453 -0.0167,-167.431036 -1.42857,-170.307088 -0.98541,-2.007418 -3.60663,-4.993381 -5.82493,-6.635472 l -4.03328,-2.985622 h -230.96667 c -185.6062,0 -231.8251,0.362596 -235.3374,1.846262 -9.8438,4.158271 -9.2008,-8.242849 -9.2008,177.45997 v 167.43681 l 39.6429,-47.79201 c 21.8035,-26.28562 58.2857,-70.31119 81.0714,-97.83462 z"
       id="path4611"
       inkscape:connector-curvature="0"
       transform="scale(0.26458333)" />
    <path
       style="fill:#248853;fill-opacity:0;stroke-width:1.42857146"
       d="m -1478.7736,457.71044 c -8.3908,-2.62016 -15.2254,-8.16361 -19.9278,-16.1631 l -3.9604,-6.7373 V 216.9529 -0.90424612 l 3.0834,-5.71428568 c 4.0366,-7.4805882 9.7048,-12.7251542 17.6309,-16.3129812 6.3895,-2.892334 7.9709,-2.910127 260.7143,-2.933392 170.8592,-0.01573 256.03141,0.461429 259.60672,1.454384 7.95465,2.209198 16.92202,9.785397 21.02952,17.7670406 l 3.64943,7.09153571 V 216.91477 433.38147 l -4.23182,7.64 c -4.65464,8.40338 -12.53448,14.70208 -21.50998,17.19387 -9.0909,2.52383 -507.94787,2.03577 -516.08427,-0.5049 z m 136.1118,-243.21256 c 22.7857,-27.52341 43.5593,-51.52045 46.1635,-53.32674 6.4972,-4.50646 18.5085,-5.44426 26.0681,-2.03534 4.0764,1.83818 16.4159,14.19965 44.2426,44.32121 23.0611,24.96292 40.5319,42.69376 43.4165,44.06254 11.1911,5.31052 17.5254,2.82672 39.16,-15.35538 16.6966,-14.03203 21.0823,-16.17429 29.7745,-14.54363 6.02,1.12936 0.8596,-4.08927 76.8891,77.75641 l 59.99997,64.58995 0.36308,-166.65725 c 0.28612,-131.324453 -0.0167,-167.431036 -1.42857,-170.307088 -0.98541,-2.007418 -3.60663,-4.993381 -5.82493,-6.635472 l -4.03328,-2.985622 h -230.96667 c -185.6062,0 -231.8251,0.362596 -235.3374,1.846262 -9.8438,4.158271 -9.2008,-8.242849 -9.2008,177.45997 v 167.43681 l 39.6429,-47.79201 c 21.8035,-26.28562 58.2857,-70.31119 81.0714,-97.83462 z"
       id="path4613"
       inkscape:connector-curvature="0"
       transform="scale(0.26458333)" />
    <path
       style="fill:#2488ff;fill-opacity:0;stroke-width:1.42857146"
       d="m -1478.7736,457.71044 c -8.3908,-2.62016 -15.2254,-8.16361 -19.9278,-16.1631 l -3.9604,-6.7373 V 216.9529 -0.90424612 l 3.0834,-5.71428568 c 4.0366,-7.4805882 9.7048,-12.7251542 17.6309,-16.3129812 6.3895,-2.892334 7.9709,-2.910127 260.7143,-2.933392 170.8592,-0.01573 256.03141,0.461429 259.60672,1.454384 7.95465,2.209198 16.92202,9.785397 21.02952,17.7670406 l 3.64943,7.09153571 V 216.91477 433.38147 l -4.23182,7.64 c -4.65464,8.40338 -12.53448,14.70208 -21.50998,17.19387 -9.0909,2.52383 -507.94787,2.03577 -516.08427,-0.5049 z m 136.1118,-243.21256 c 22.7857,-27.52341 43.5593,-51.52045 46.1635,-53.32674 6.4972,-4.50646 18.5085,-5.44426 26.0681,-2.03534 4.0764,1.83818 16.4159,14.19965 44.2426,44.32121 23.0611,24.96292 40.5319,42.69376 43.4165,44.06254 11.1911,5.31052 17.5254,2.82672 39.16,-15.35538 16.6966,-14.03203 21.0823,-16.17429 29.7745,-14.54363 6.02,1.12936 0.8596,-4.08927 76.8891,77.75641 l 59.99997,64.58995 0.36308,-166.65725 c 0.28612,-131.324453 -0.0167,-167.431036 -1.42857,-170.307088 -0.98541,-2.007418 -3.60663,-4.993381 -5.82493,-6.635472 l -4.03328,-2.985622 h -230.96667 c -185.6062,0 -231.8251,0.362596 -235.3374,1.846262 -9.8438,4.158271 -9.2008,-8.242849 -9.2008,177.45997 v 167.43681 l 39.6429,-47.79201 c 21.8035,-26.28562 58.2857,-70.31119 81.0714,-97.83462 z"
       id="path4615"
       inkscape:connector-curvature="0"
       transform="scale(0.26458333)" />
    <rect
       style="fill:#ffffff;fill-opacity:1;stroke-width:0.26458332"
       id="rect4658"
       width="139.81892"
       height="104.64455"
       x="-247.9007"
       y="35.820999"
       rx="11.172163"
       ry="10.075148"
       inkscape:export-xdpi="96"
       inkscape:export-ydpi="96" />
    <path
       style="fill:#2488ff;fill-opacity:1;stroke:none;stroke-width:0;stroke-miterlimit:4;stroke-dasharray:none;stroke-opacity:1"
       d="m -147.26529,81.492409 c -4.11789,-1.406219 -7.32952,-4.164885 -9.12216,-7.835552 -1.36416,-2.793325 -1.78442,-4.841477 -1.61011,-7.846991 0.76977,-13.272644 16.87706,-19.382214 26.3807,-10.006326 3.71265,3.662734 5.37102,9.374994 4.20979,14.500628 -1.18752,5.241674 -5.5783,9.750238 -11.08412,11.381436 -2.37169,0.702657 -6.41121,0.613713 -8.7741,-0.193195 z"
       id="path4664"
       inkscape:connector-curvature="0"
       inkscape:export-xdpi="96"
       inkscape:export-ydpi="96" />
    <path
       style="fill:#2488f0;fill-opacity:0;stroke:#000000;stroke-width:3.43499994;stroke-miterlimit:4;stroke-dasharray:none;stroke-opacity:1"
       inkscape:connector-curvature="0"
       d="m -142.78107,83.168208 c 8.88953,0 16.10179,-7.212259 16.10179,-16.101786 0,-8.889528 -7.21226,-16.101786 -16.10179,-16.101786 -8.88952,0 -16.10178,7.212258 -16.10178,16.101786 0,8.889527 7.21226,16.101786 16.10178,16.101786 z"
       id="path3726" />
    <path
       style="fill:#57a4ff;fill-opacity:1;stroke:#000000;stroke-width:3.435;stroke-miterlimit:4;stroke-dasharray:none;stroke-opacity:1;stroke-linecap:butt;paint-order:normal"
       inkscape:connector-curvature="0"
       d="m -114.60294,29.495588 h -131.49792 c -5.23308,0 -9.39271,4.260265 -9.39271,9.493345 V 148.81653 c 0,5.23308 4.15963,9.49334 9.39271,9.49334 h 131.49792 c 5.23308,0 9.39271,-4.26026 9.39271,-9.49334 V 38.988933 c 0,-5.23308 -4.15963,-9.493345 -9.39271,-9.493345 z m -34.58529,66.31923 c -1.00637,-1.174088 -2.54945,-2.079814 -4.29381,-2.079814 -1.71082,0 -2.91845,0.80509 -4.29381,1.912088 l -6.27299,5.300168 c -1.30827,0.93927 -2.34818,1.57664 -3.85772,1.57664 -1.44245,0 -2.75072,-0.53673 -3.68999,-1.37536 -0.33546,-0.30191 -0.93927,-0.87219 -1.44245,-1.375366 l -18.04742,-19.523415 c -1.34182,-1.543088 -3.35454,-2.515904 -5.60208,-2.515904 -2.24754,0 -4.32736,1.106998 -5.63563,2.61654 l -42.43491,51.190265 V 44.154922 c 0.33545,-2.281086 2.11336,-3.92481 4.39444,-3.92481 h 119.99185 c 2.31463,0 4.19318,1.710815 4.32736,4.025447 l 0.10063,87.352191 z"
       id="path3728" />
    <rect
       style="fill:#7ae300;fill-opacity:0;stroke-width:0.26458332"
       id="rect4640"
       width="137.37653"
       height="78.844505"
       x="-247.9007"
       y="35.820999"
       rx="12.24124"
       ry="10.075148"
       inkscape:export-xdpi="96"
       inkscape:export-ydpi="96" />
    <path
       style="fill:#43a4ff;fill-opacity:1;stroke:#000000;stroke-width:2.31361079;stroke-miterlimit:4;stroke-dasharray:none;stroke-opacity:1"
       d=""
       id="path4871"
       inkscape:connector-curvature="0"
       transform="matrix(0.26458333,0,0,0.26458333,-257.21107,27.778088)" />
  </g>
</svg>
