<?xml version="1.0" encoding="UTF-8" standalone="no"?>
<svg
   xmlns:dc="http://purl.org/dc/elements/1.1/"
   xmlns:cc="http://creativecommons.org/ns#"
   xmlns:rdf="http://www.w3.org/1999/02/22-rdf-syntax-ns#"
   xmlns:svg="http://www.w3.org/2000/svg"
   xmlns="http://www.w3.org/2000/svg"
   xmlns:sodipodi="http://sodipodi.sourceforge.net/DTD/sodipodi-0.dtd"
   xmlns:inkscape="http://www.inkscape.org/namespaces/inkscape"
   id="Layer_1"
   version="1.1"
   viewBox="0 0 39 47.900002"
   xml:space="preserve"
   sodipodi:docname="iconfinder_basket_1814090.svg"
   width="39"
   height="47.900002"
   inkscape:version="0.92.4 (5da689c313, 2019-01-14)"><metadata
     id="metadata3747"><rdf:RDF><cc:Work
         rdf:about=""><dc:format>image/svg+xml</dc:format><dc:type
           rdf:resource="http://purl.org/dc/dcmitype/StillImage" /><dc:title></dc:title></cc:Work></rdf:RDF></metadata><defs
     id="defs3745" /><sodipodi:namedview
     pagecolor="#ffffff"
     bordercolor="#666666"
     borderopacity="1"
     objecttolerance="10"
     gridtolerance="10"
     guidetolerance="10"
     inkscape:pageopacity="0"
     inkscape:pageshadow="2"
     inkscape:window-width="1920"
     inkscape:window-height="1018"
     id="namedview3743"
     showgrid="false"
     fit-margin-top="0"
     fit-margin-left="0"
     fit-margin-right="0"
     fit-margin-bottom="0"
     inkscape:zoom="13.265625"
     inkscape:cx="19.5"
     inkscape:cy="23.9"
     inkscape:window-x="-8"
     inkscape:window-y="-8"
     inkscape:window-maximized="1"
     inkscape:current-layer="Layer_1" /><style
     type="text/css"
     id="style3731">
	.st0{fill:#134563;}
</style><g
     id="g3740"
     style="fill:#000000"
     transform="translate(-12.5,-8)"><g
       id="Icon-Trash"
       transform="translate(232,228)"
       style="fill:#000000"><polygon
         class="st0"
         id="Fill-6"
         points="-204.5,-181.1 -207.5,-181.1 -207.5,-205.1 -204.5,-205.1 "
         style="fill:#000000" /><polygon
         class="st0"
         id="Fill-7"
         points="-198.5,-181.1 -201.5,-181.1 -201.5,-205.1 -198.5,-205.1 "
         style="fill:#000000" /><polygon
         class="st0"
         id="Fill-8"
         points="-192.5,-181.1 -195.5,-181.1 -195.5,-205.1 -192.5,-205.1 "
         style="fill:#000000" /><polygon
         class="st0"
         id="Fill-9"
         points="-180.5,-211.1 -219.5,-211.1 -219.5,-214.1 -180.5,-214.1 "
         style="fill:#000000" /><path
         class="st0"
         d="m -192.6,-212.6 h -2.8 v -3 c 0,-0.9 -0.7,-1.6 -1.6,-1.6 h -6 c -0.9,0 -1.6,0.7 -1.6,1.6 v 3 h -2.8 v -3 c 0,-2.4 2,-4.4 4.4,-4.4 h 6 c 2.4,0 4.4,2 4.4,4.4 v 3"
         id="Fill-10"
         style="fill:#000000"
         inkscape:connector-curvature="0" /><path
         class="st0"
         d="m -191,-172.1 h -18 c -2.4,0 -4.5,-2 -4.7,-4.4 l -2.8,-36 3,-0.2 2.8,36 c 0.1,0.9 0.9,1.6 1.7,1.6 h 18 c 0.9,0 1.7,-0.8 1.7,-1.6 l 2.8,-36 3,0.2 -2.8,36 c -0.2,2.5 -2.3,4.4 -4.7,4.4"
         id="Fill-11"
         style="fill:#000000"
         inkscape:connector-curvature="0" /></g></g></svg>